<svg xmlns="http://www.w3.org/2000/svg" xmlns:xlink="http://www.w3.org/1999/xlink" width="600" height="400" viewBox="0 0 2400 1600">
<defs>
  <clipPath id="clip040">
    <rect x="0" y="0" width="2400" height="1600"></rect>
  </clipPath>
</defs>
<path clip-path="url(#clip040)" d="M0 1600 L2400 1600 L2400 0 L0 0  Z" fill="#ffffff" fill-rule="evenodd" fill-opacity="1"></path>
<defs>
  <clipPath id="clip041">
    <rect x="480" y="0" width="1681" height="1600"></rect>
  </clipPath>
</defs>
<path clip-path="url(#clip040)" d="M194.422 686.448 L1152.76 686.448 L1152.76 123.472 L194.422 123.472  Z" fill="#ffffff" fill-rule="evenodd" fill-opacity="1"></path>
<defs>
  <clipPath id="clip042">
    <rect x="194" y="123" width="959" height="564"></rect>
  </clipPath>
</defs>
<polyline clip-path="url(#clip042)" style="stroke:#000000; stroke-linecap:round; stroke-linejoin:round; stroke-width:2; stroke-opacity:0.1; fill:none" points="221.545,686.448 221.545,123.472 "></polyline>
<polyline clip-path="url(#clip042)" style="stroke:#000000; stroke-linecap:round; stroke-linejoin:round; stroke-width:2; stroke-opacity:0.1; fill:none" points="447.567,686.448 447.567,123.472 "></polyline>
<polyline clip-path="url(#clip042)" style="stroke:#000000; stroke-linecap:round; stroke-linejoin:round; stroke-width:2; stroke-opacity:0.1; fill:none" points="673.589,686.448 673.589,123.472 "></polyline>
<polyline clip-path="url(#clip042)" style="stroke:#000000; stroke-linecap:round; stroke-linejoin:round; stroke-width:2; stroke-opacity:0.1; fill:none" points="899.611,686.448 899.611,123.472 "></polyline>
<polyline clip-path="url(#clip042)" style="stroke:#000000; stroke-linecap:round; stroke-linejoin:round; stroke-width:2; stroke-opacity:0.1; fill:none" points="1125.63,686.448 1125.63,123.472 "></polyline>
<polyline clip-path="url(#clip040)" style="stroke:#000000; stroke-linecap:round; stroke-linejoin:round; stroke-width:4; stroke-opacity:1; fill:none" points="194.422,686.448 1152.76,686.448 "></polyline>
<polyline clip-path="url(#clip040)" style="stroke:#000000; stroke-linecap:round; stroke-linejoin:round; stroke-width:4; stroke-opacity:1; fill:none" points="221.545,686.448 221.545,667.55 "></polyline>
<polyline clip-path="url(#clip040)" style="stroke:#000000; stroke-linecap:round; stroke-linejoin:round; stroke-width:4; stroke-opacity:1; fill:none" points="447.567,686.448 447.567,667.55 "></polyline>
<polyline clip-path="url(#clip040)" style="stroke:#000000; stroke-linecap:round; stroke-linejoin:round; stroke-width:4; stroke-opacity:1; fill:none" points="673.589,686.448 673.589,667.55 "></polyline>
<polyline clip-path="url(#clip040)" style="stroke:#000000; stroke-linecap:round; stroke-linejoin:round; stroke-width:4; stroke-opacity:1; fill:none" points="899.611,686.448 899.611,667.55 "></polyline>
<polyline clip-path="url(#clip040)" style="stroke:#000000; stroke-linecap:round; stroke-linejoin:round; stroke-width:4; stroke-opacity:1; fill:none" points="1125.63,686.448 1125.63,667.55 "></polyline>
<path clip-path="url(#clip040)" d="M183.848 717.367 Q180.237 717.367 178.408 720.931 Q176.603 724.473 176.603 731.603 Q176.603 738.709 178.408 742.274 Q180.237 745.815 183.848 745.815 Q187.482 745.815 189.288 742.274 Q191.117 738.709 191.117 731.603 Q191.117 724.473 189.288 720.931 Q187.482 717.367 183.848 717.367 M183.848 713.663 Q189.658 713.663 192.714 718.269 Q195.793 722.853 195.793 731.603 Q195.793 740.329 192.714 744.936 Q189.658 749.519 183.848 749.519 Q178.038 749.519 174.959 744.936 Q171.904 740.329 171.904 731.603 Q171.904 722.853 174.959 718.269 Q178.038 713.663 183.848 713.663 Z" fill="#000000" fill-rule="nonzero" fill-opacity="1"></path><path clip-path="url(#clip040)" d="M204.01 742.968 L208.894 742.968 L208.894 748.848 L204.01 748.848 L204.01 742.968 Z" fill="#000000" fill-rule="nonzero" fill-opacity="1"></path><path clip-path="url(#clip040)" d="M229.079 717.367 Q225.468 717.367 223.64 720.931 Q221.834 724.473 221.834 731.603 Q221.834 738.709 223.64 742.274 Q225.468 745.815 229.079 745.815 Q232.714 745.815 234.519 742.274 Q236.348 738.709 236.348 731.603 Q236.348 724.473 234.519 720.931 Q232.714 717.367 229.079 717.367 M229.079 713.663 Q234.89 713.663 237.945 718.269 Q241.024 722.853 241.024 731.603 Q241.024 740.329 237.945 744.936 Q234.89 749.519 229.079 749.519 Q223.269 749.519 220.191 744.936 Q217.135 740.329 217.135 731.603 Q217.135 722.853 220.191 718.269 Q223.269 713.663 229.079 713.663 Z" fill="#000000" fill-rule="nonzero" fill-opacity="1"></path><path clip-path="url(#clip040)" d="M259.241 717.367 Q255.63 717.367 253.802 720.931 Q251.996 724.473 251.996 731.603 Q251.996 738.709 253.802 742.274 Q255.63 745.815 259.241 745.815 Q262.876 745.815 264.681 742.274 Q266.51 738.709 266.51 731.603 Q266.51 724.473 264.681 720.931 Q262.876 717.367 259.241 717.367 M259.241 713.663 Q265.051 713.663 268.107 718.269 Q271.186 722.853 271.186 731.603 Q271.186 740.329 268.107 744.936 Q265.051 749.519 259.241 749.519 Q253.431 749.519 250.352 744.936 Q247.297 740.329 247.297 731.603 Q247.297 722.853 250.352 718.269 Q253.431 713.663 259.241 713.663 Z" fill="#000000" fill-rule="nonzero" fill-opacity="1"></path><path clip-path="url(#clip040)" d="M410.368 717.367 Q406.757 717.367 404.928 720.931 Q403.123 724.473 403.123 731.603 Q403.123 738.709 404.928 742.274 Q406.757 745.815 410.368 745.815 Q414.002 745.815 415.808 742.274 Q417.636 738.709 417.636 731.603 Q417.636 724.473 415.808 720.931 Q414.002 717.367 410.368 717.367 M410.368 713.663 Q416.178 713.663 419.234 718.269 Q422.312 722.853 422.312 731.603 Q422.312 740.329 419.234 744.936 Q416.178 749.519 410.368 749.519 Q404.558 749.519 401.479 744.936 Q398.424 740.329 398.424 731.603 Q398.424 722.853 401.479 718.269 Q404.558 713.663 410.368 713.663 Z" fill="#000000" fill-rule="nonzero" fill-opacity="1"></path><path clip-path="url(#clip040)" d="M430.53 742.968 L435.414 742.968 L435.414 748.848 L430.53 748.848 L430.53 742.968 Z" fill="#000000" fill-rule="nonzero" fill-opacity="1"></path><path clip-path="url(#clip040)" d="M449.627 744.913 L465.946 744.913 L465.946 748.848 L444.002 748.848 L444.002 744.913 Q446.664 742.158 451.247 737.528 Q455.854 732.876 457.034 731.533 Q459.28 729.01 460.159 727.274 Q461.062 725.515 461.062 723.825 Q461.062 721.07 459.118 719.334 Q457.196 717.598 454.095 717.598 Q451.896 717.598 449.442 718.362 Q447.011 719.126 444.234 720.677 L444.234 715.955 Q447.058 714.82 449.511 714.242 Q451.965 713.663 454.002 713.663 Q459.372 713.663 462.567 716.348 Q465.761 719.033 465.761 723.524 Q465.761 725.654 464.951 727.575 Q464.164 729.473 462.058 732.066 Q461.479 732.737 458.377 735.954 Q455.275 739.149 449.627 744.913 Z" fill="#000000" fill-rule="nonzero" fill-opacity="1"></path><path clip-path="url(#clip040)" d="M475.807 714.288 L494.164 714.288 L494.164 718.223 L480.09 718.223 L480.09 726.695 Q481.108 726.348 482.127 726.186 Q483.145 726.001 484.164 726.001 Q489.951 726.001 493.331 729.172 Q496.71 732.343 496.71 737.76 Q496.71 743.339 493.238 746.44 Q489.766 749.519 483.446 749.519 Q481.27 749.519 479.002 749.149 Q476.757 748.778 474.349 748.038 L474.349 743.339 Q476.432 744.473 478.655 745.028 Q480.877 745.584 483.354 745.584 Q487.358 745.584 489.696 743.478 Q492.034 741.371 492.034 737.76 Q492.034 734.149 489.696 732.042 Q487.358 729.936 483.354 729.936 Q481.479 729.936 479.604 730.353 Q477.752 730.769 475.807 731.649 L475.807 714.288 Z" fill="#000000" fill-rule="nonzero" fill-opacity="1"></path><path clip-path="url(#clip040)" d="M635.892 717.367 Q632.281 717.367 630.453 720.931 Q628.647 724.473 628.647 731.603 Q628.647 738.709 630.453 742.274 Q632.281 745.815 635.892 745.815 Q639.527 745.815 641.332 742.274 Q643.161 738.709 643.161 731.603 Q643.161 724.473 641.332 720.931 Q639.527 717.367 635.892 717.367 M635.892 713.663 Q641.703 713.663 644.758 718.269 Q647.837 722.853 647.837 731.603 Q647.837 740.329 644.758 744.936 Q641.703 749.519 635.892 749.519 Q630.082 749.519 627.004 744.936 Q623.948 740.329 623.948 731.603 Q623.948 722.853 627.004 718.269 Q630.082 713.663 635.892 713.663 Z" fill="#000000" fill-rule="nonzero" fill-opacity="1"></path><path clip-path="url(#clip040)" d="M656.054 742.968 L660.939 742.968 L660.939 748.848 L656.054 748.848 L656.054 742.968 Z" fill="#000000" fill-rule="nonzero" fill-opacity="1"></path><path clip-path="url(#clip040)" d="M671.17 714.288 L689.526 714.288 L689.526 718.223 L675.452 718.223 L675.452 726.695 Q676.471 726.348 677.489 726.186 Q678.508 726.001 679.526 726.001 Q685.313 726.001 688.693 729.172 Q692.073 732.343 692.073 737.76 Q692.073 743.339 688.6 746.44 Q685.128 749.519 678.809 749.519 Q676.633 749.519 674.364 749.149 Q672.119 748.778 669.712 748.038 L669.712 743.339 Q671.795 744.473 674.017 745.028 Q676.239 745.584 678.716 745.584 Q682.721 745.584 685.059 743.478 Q687.397 741.371 687.397 737.76 Q687.397 734.149 685.059 732.042 Q682.721 729.936 678.716 729.936 Q676.841 729.936 674.966 730.353 Q673.114 730.769 671.17 731.649 L671.17 714.288 Z" fill="#000000" fill-rule="nonzero" fill-opacity="1"></path><path clip-path="url(#clip040)" d="M711.286 717.367 Q707.674 717.367 705.846 720.931 Q704.04 724.473 704.04 731.603 Q704.04 738.709 705.846 742.274 Q707.674 745.815 711.286 745.815 Q714.92 745.815 716.725 742.274 Q718.554 738.709 718.554 731.603 Q718.554 724.473 716.725 720.931 Q714.92 717.367 711.286 717.367 M711.286 713.663 Q717.096 713.663 720.151 718.269 Q723.23 722.853 723.23 731.603 Q723.23 740.329 720.151 744.936 Q717.096 749.519 711.286 749.519 Q705.475 749.519 702.397 744.936 Q699.341 740.329 699.341 731.603 Q699.341 722.853 702.397 718.269 Q705.475 713.663 711.286 713.663 Z" fill="#000000" fill-rule="nonzero" fill-opacity="1"></path><path clip-path="url(#clip040)" d="M862.412 717.367 Q858.801 717.367 856.972 720.931 Q855.167 724.473 855.167 731.603 Q855.167 738.709 856.972 742.274 Q858.801 745.815 862.412 745.815 Q866.046 745.815 867.852 742.274 Q869.681 738.709 869.681 731.603 Q869.681 724.473 867.852 720.931 Q866.046 717.367 862.412 717.367 M862.412 713.663 Q868.222 713.663 871.278 718.269 Q874.357 722.853 874.357 731.603 Q874.357 740.329 871.278 744.936 Q868.222 749.519 862.412 749.519 Q856.602 749.519 853.523 744.936 Q850.468 740.329 850.468 731.603 Q850.468 722.853 853.523 718.269 Q856.602 713.663 862.412 713.663 Z" fill="#000000" fill-rule="nonzero" fill-opacity="1"></path><path clip-path="url(#clip040)" d="M882.574 742.968 L887.458 742.968 L887.458 748.848 L882.574 748.848 L882.574 742.968 Z" fill="#000000" fill-rule="nonzero" fill-opacity="1"></path><path clip-path="url(#clip040)" d="M896.463 714.288 L918.685 714.288 L918.685 716.279 L906.139 748.848 L901.255 748.848 L913.06 718.223 L896.463 718.223 L896.463 714.288 Z" fill="#000000" fill-rule="nonzero" fill-opacity="1"></path><path clip-path="url(#clip040)" d="M927.852 714.288 L946.208 714.288 L946.208 718.223 L932.134 718.223 L932.134 726.695 Q933.153 726.348 934.171 726.186 Q935.19 726.001 936.208 726.001 Q941.995 726.001 945.375 729.172 Q948.754 732.343 948.754 737.76 Q948.754 743.339 945.282 746.44 Q941.81 749.519 935.491 749.519 Q933.315 749.519 931.046 749.149 Q928.801 748.778 926.393 748.038 L926.393 743.339 Q928.477 744.473 930.699 745.028 Q932.921 745.584 935.398 745.584 Q939.403 745.584 941.741 743.478 Q944.078 741.371 944.078 737.76 Q944.078 734.149 941.741 732.042 Q939.403 729.936 935.398 729.936 Q933.523 729.936 931.648 730.353 Q929.796 730.769 927.852 731.649 L927.852 714.288 Z" fill="#000000" fill-rule="nonzero" fill-opacity="1"></path><path clip-path="url(#clip040)" d="M1077.71 744.913 L1085.34 744.913 L1085.34 718.547 L1077.03 720.214 L1077.03 715.955 L1085.3 714.288 L1089.97 714.288 L1089.97 744.913 L1097.61 744.913 L1097.61 748.848 L1077.71 748.848 L1077.71 744.913 Z" fill="#000000" fill-rule="nonzero" fill-opacity="1"></path><path clip-path="url(#clip040)" d="M1107.06 742.968 L1111.94 742.968 L1111.94 748.848 L1107.06 748.848 L1107.06 742.968 Z" fill="#000000" fill-rule="nonzero" fill-opacity="1"></path><path clip-path="url(#clip040)" d="M1132.13 717.367 Q1128.52 717.367 1126.69 720.931 Q1124.88 724.473 1124.88 731.603 Q1124.88 738.709 1126.69 742.274 Q1128.52 745.815 1132.13 745.815 Q1135.76 745.815 1137.57 742.274 Q1139.39 738.709 1139.39 731.603 Q1139.39 724.473 1137.57 720.931 Q1135.76 717.367 1132.13 717.367 M1132.13 713.663 Q1137.94 713.663 1140.99 718.269 Q1144.07 722.853 1144.07 731.603 Q1144.07 740.329 1140.99 744.936 Q1137.94 749.519 1132.13 749.519 Q1126.32 749.519 1123.24 744.936 Q1120.18 740.329 1120.18 731.603 Q1120.18 722.853 1123.24 718.269 Q1126.32 713.663 1132.13 713.663 Z" fill="#000000" fill-rule="nonzero" fill-opacity="1"></path><path clip-path="url(#clip040)" d="M1162.29 717.367 Q1158.68 717.367 1156.85 720.931 Q1155.04 724.473 1155.04 731.603 Q1155.04 738.709 1156.85 742.274 Q1158.68 745.815 1162.29 745.815 Q1165.92 745.815 1167.73 742.274 Q1169.56 738.709 1169.56 731.603 Q1169.56 724.473 1167.73 720.931 Q1165.92 717.367 1162.29 717.367 M1162.29 713.663 Q1168.1 713.663 1171.15 718.269 Q1174.23 722.853 1174.23 731.603 Q1174.23 740.329 1171.15 744.936 Q1168.1 749.519 1162.29 749.519 Q1156.48 749.519 1153.4 744.936 Q1150.34 740.329 1150.34 731.603 Q1150.34 722.853 1153.4 718.269 Q1156.48 713.663 1162.29 713.663 Z" fill="#000000" fill-rule="nonzero" fill-opacity="1"></path><polyline clip-path="url(#clip042)" style="stroke:#000000; stroke-linecap:round; stroke-linejoin:round; stroke-width:2; stroke-opacity:0.1; fill:none" points="194.422,644.174 1152.76,644.174 "></polyline>
<polyline clip-path="url(#clip042)" style="stroke:#000000; stroke-linecap:round; stroke-linejoin:round; stroke-width:2; stroke-opacity:0.1; fill:none" points="194.422,548.936 1152.76,548.936 "></polyline>
<polyline clip-path="url(#clip042)" style="stroke:#000000; stroke-linecap:round; stroke-linejoin:round; stroke-width:2; stroke-opacity:0.1; fill:none" points="194.422,453.699 1152.76,453.699 "></polyline>
<polyline clip-path="url(#clip042)" style="stroke:#000000; stroke-linecap:round; stroke-linejoin:round; stroke-width:2; stroke-opacity:0.1; fill:none" points="194.422,358.462 1152.76,358.462 "></polyline>
<polyline clip-path="url(#clip042)" style="stroke:#000000; stroke-linecap:round; stroke-linejoin:round; stroke-width:2; stroke-opacity:0.1; fill:none" points="194.422,263.225 1152.76,263.225 "></polyline>
<polyline clip-path="url(#clip042)" style="stroke:#000000; stroke-linecap:round; stroke-linejoin:round; stroke-width:2; stroke-opacity:0.1; fill:none" points="194.422,167.988 1152.76,167.988 "></polyline>
<polyline clip-path="url(#clip040)" style="stroke:#000000; stroke-linecap:round; stroke-linejoin:round; stroke-width:4; stroke-opacity:1; fill:none" points="194.422,686.448 194.422,123.472 "></polyline>
<polyline clip-path="url(#clip040)" style="stroke:#000000; stroke-linecap:round; stroke-linejoin:round; stroke-width:4; stroke-opacity:1; fill:none" points="194.422,644.174 213.32,644.174 "></polyline>
<polyline clip-path="url(#clip040)" style="stroke:#000000; stroke-linecap:round; stroke-linejoin:round; stroke-width:4; stroke-opacity:1; fill:none" points="194.422,548.936 213.32,548.936 "></polyline>
<polyline clip-path="url(#clip040)" style="stroke:#000000; stroke-linecap:round; stroke-linejoin:round; stroke-width:4; stroke-opacity:1; fill:none" points="194.422,453.699 213.32,453.699 "></polyline>
<polyline clip-path="url(#clip040)" style="stroke:#000000; stroke-linecap:round; stroke-linejoin:round; stroke-width:4; stroke-opacity:1; fill:none" points="194.422,358.462 213.32,358.462 "></polyline>
<polyline clip-path="url(#clip040)" style="stroke:#000000; stroke-linecap:round; stroke-linejoin:round; stroke-width:4; stroke-opacity:1; fill:none" points="194.422,263.225 213.32,263.225 "></polyline>
<polyline clip-path="url(#clip040)" style="stroke:#000000; stroke-linecap:round; stroke-linejoin:round; stroke-width:4; stroke-opacity:1; fill:none" points="194.422,167.988 213.32,167.988 "></polyline>
<path clip-path="url(#clip040)" d="M52.4736 644.625 L82.1494 644.625 L82.1494 648.56 L52.4736 648.56 L52.4736 644.625 Z" fill="#000000" fill-rule="nonzero" fill-opacity="1"></path><path clip-path="url(#clip040)" d="M93.0521 657.519 L100.691 657.519 L100.691 631.153 L92.3808 632.82 L92.3808 628.56 L100.645 626.894 L105.321 626.894 L105.321 657.519 L112.959 657.519 L112.959 661.454 L93.0521 661.454 L93.0521 657.519 Z" fill="#000000" fill-rule="nonzero" fill-opacity="1"></path><path clip-path="url(#clip040)" d="M122.404 655.574 L127.288 655.574 L127.288 661.454 L122.404 661.454 L122.404 655.574 Z" fill="#000000" fill-rule="nonzero" fill-opacity="1"></path><path clip-path="url(#clip040)" d="M137.519 626.894 L155.876 626.894 L155.876 630.829 L141.802 630.829 L141.802 639.301 Q142.82 638.954 143.839 638.792 Q144.857 638.607 145.876 638.607 Q151.663 638.607 155.042 641.778 Q158.422 644.949 158.422 650.366 Q158.422 655.944 154.95 659.046 Q151.478 662.125 145.158 662.125 Q142.982 662.125 140.714 661.755 Q138.469 661.384 136.061 660.644 L136.061 655.944 Q138.144 657.079 140.367 657.634 Q142.589 658.19 145.066 658.19 Q149.07 658.19 151.408 656.083 Q153.746 653.977 153.746 650.366 Q153.746 646.755 151.408 644.648 Q149.07 642.542 145.066 642.542 Q143.191 642.542 141.316 642.958 Q139.464 643.375 137.519 644.255 L137.519 626.894 Z" fill="#000000" fill-rule="nonzero" fill-opacity="1"></path><path clip-path="url(#clip040)" d="M51.4782 549.388 L81.154 549.388 L81.154 553.323 L51.4782 553.323 L51.4782 549.388 Z" fill="#000000" fill-rule="nonzero" fill-opacity="1"></path><path clip-path="url(#clip040)" d="M92.0567 562.281 L99.6956 562.281 L99.6956 535.916 L91.3854 537.582 L91.3854 533.323 L99.6493 531.656 L104.325 531.656 L104.325 562.281 L111.964 562.281 L111.964 566.216 L92.0567 566.216 L92.0567 562.281 Z" fill="#000000" fill-rule="nonzero" fill-opacity="1"></path><path clip-path="url(#clip040)" d="M121.408 560.337 L126.293 560.337 L126.293 566.216 L121.408 566.216 L121.408 560.337 Z" fill="#000000" fill-rule="nonzero" fill-opacity="1"></path><path clip-path="url(#clip040)" d="M146.478 534.735 Q142.867 534.735 141.038 538.3 Q139.232 541.842 139.232 548.971 Q139.232 556.078 141.038 559.642 Q142.867 563.184 146.478 563.184 Q150.112 563.184 151.918 559.642 Q153.746 556.078 153.746 548.971 Q153.746 541.842 151.918 538.3 Q150.112 534.735 146.478 534.735 M146.478 531.031 Q152.288 531.031 155.343 535.638 Q158.422 540.221 158.422 548.971 Q158.422 557.698 155.343 562.304 Q152.288 566.888 146.478 566.888 Q140.668 566.888 137.589 562.304 Q134.533 557.698 134.533 548.971 Q134.533 540.221 137.589 535.638 Q140.668 531.031 146.478 531.031 Z" fill="#000000" fill-rule="nonzero" fill-opacity="1"></path><path clip-path="url(#clip040)" d="M52.4736 454.151 L82.1494 454.151 L82.1494 458.086 L52.4736 458.086 L52.4736 454.151 Z" fill="#000000" fill-rule="nonzero" fill-opacity="1"></path><path clip-path="url(#clip040)" d="M102.242 439.498 Q98.6308 439.498 96.8021 443.063 Q94.9965 446.604 94.9965 453.734 Q94.9965 460.84 96.8021 464.405 Q98.6308 467.947 102.242 467.947 Q105.876 467.947 107.682 464.405 Q109.51 460.84 109.51 453.734 Q109.51 446.604 107.682 443.063 Q105.876 439.498 102.242 439.498 M102.242 435.794 Q108.052 435.794 111.108 440.401 Q114.186 444.984 114.186 453.734 Q114.186 462.461 111.108 467.067 Q108.052 471.651 102.242 471.651 Q96.4317 471.651 93.353 467.067 Q90.2975 462.461 90.2975 453.734 Q90.2975 444.984 93.353 440.401 Q96.4317 435.794 102.242 435.794 Z" fill="#000000" fill-rule="nonzero" fill-opacity="1"></path><path clip-path="url(#clip040)" d="M122.404 465.1 L127.288 465.1 L127.288 470.979 L122.404 470.979 L122.404 465.1 Z" fill="#000000" fill-rule="nonzero" fill-opacity="1"></path><path clip-path="url(#clip040)" d="M137.519 436.419 L155.876 436.419 L155.876 440.354 L141.802 440.354 L141.802 448.827 Q142.82 448.479 143.839 448.317 Q144.857 448.132 145.876 448.132 Q151.663 448.132 155.042 451.303 Q158.422 454.475 158.422 459.891 Q158.422 465.47 154.95 468.572 Q151.478 471.651 145.158 471.651 Q142.982 471.651 140.714 471.28 Q138.469 470.91 136.061 470.169 L136.061 465.47 Q138.144 466.604 140.367 467.16 Q142.589 467.715 145.066 467.715 Q149.07 467.715 151.408 465.609 Q153.746 463.502 153.746 459.891 Q153.746 456.28 151.408 454.174 Q149.07 452.067 145.066 452.067 Q143.191 452.067 141.316 452.484 Q139.464 452.901 137.519 453.78 L137.519 436.419 Z" fill="#000000" fill-rule="nonzero" fill-opacity="1"></path><path clip-path="url(#clip040)" d="M101.246 344.261 Q97.6354 344.261 95.8067 347.826 Q94.0012 351.367 94.0012 358.497 Q94.0012 365.603 95.8067 369.168 Q97.6354 372.71 101.246 372.71 Q104.881 372.71 106.686 369.168 Q108.515 365.603 108.515 358.497 Q108.515 351.367 106.686 347.826 Q104.881 344.261 101.246 344.261 M101.246 340.557 Q107.057 340.557 110.112 345.164 Q113.191 349.747 113.191 358.497 Q113.191 367.224 110.112 371.83 Q107.057 376.413 101.246 376.413 Q95.4363 376.413 92.3576 371.83 Q89.3021 367.224 89.3021 358.497 Q89.3021 349.747 92.3576 345.164 Q95.4363 340.557 101.246 340.557 Z" fill="#000000" fill-rule="nonzero" fill-opacity="1"></path><path clip-path="url(#clip040)" d="M121.408 369.862 L126.293 369.862 L126.293 375.742 L121.408 375.742 L121.408 369.862 Z" fill="#000000" fill-rule="nonzero" fill-opacity="1"></path><path clip-path="url(#clip040)" d="M146.478 344.261 Q142.867 344.261 141.038 347.826 Q139.232 351.367 139.232 358.497 Q139.232 365.603 141.038 369.168 Q142.867 372.71 146.478 372.71 Q150.112 372.71 151.918 369.168 Q153.746 365.603 153.746 358.497 Q153.746 351.367 151.918 347.826 Q150.112 344.261 146.478 344.261 M146.478 340.557 Q152.288 340.557 155.343 345.164 Q158.422 349.747 158.422 358.497 Q158.422 367.224 155.343 371.83 Q152.288 376.413 146.478 376.413 Q140.668 376.413 137.589 371.83 Q134.533 367.224 134.533 358.497 Q134.533 349.747 137.589 345.164 Q140.668 340.557 146.478 340.557 Z" fill="#000000" fill-rule="nonzero" fill-opacity="1"></path><path clip-path="url(#clip040)" d="M102.242 249.024 Q98.6308 249.024 96.8021 252.588 Q94.9965 256.13 94.9965 263.26 Q94.9965 270.366 96.8021 273.931 Q98.6308 277.473 102.242 277.473 Q105.876 277.473 107.682 273.931 Q109.51 270.366 109.51 263.26 Q109.51 256.13 107.682 252.588 Q105.876 249.024 102.242 249.024 M102.242 245.32 Q108.052 245.32 111.108 249.926 Q114.186 254.51 114.186 263.26 Q114.186 271.986 111.108 276.593 Q108.052 281.176 102.242 281.176 Q96.4317 281.176 93.353 276.593 Q90.2975 271.986 90.2975 263.26 Q90.2975 254.51 93.353 249.926 Q96.4317 245.32 102.242 245.32 Z" fill="#000000" fill-rule="nonzero" fill-opacity="1"></path><path clip-path="url(#clip040)" d="M122.404 274.625 L127.288 274.625 L127.288 280.505 L122.404 280.505 L122.404 274.625 Z" fill="#000000" fill-rule="nonzero" fill-opacity="1"></path><path clip-path="url(#clip040)" d="M137.519 245.945 L155.876 245.945 L155.876 249.88 L141.802 249.88 L141.802 258.352 Q142.82 258.005 143.839 257.843 Q144.857 257.658 145.876 257.658 Q151.663 257.658 155.042 260.829 Q158.422 264 158.422 269.417 Q158.422 274.996 154.95 278.097 Q151.478 281.176 145.158 281.176 Q142.982 281.176 140.714 280.806 Q138.469 280.435 136.061 279.695 L136.061 274.996 Q138.144 276.13 140.367 276.685 Q142.589 277.241 145.066 277.241 Q149.07 277.241 151.408 275.135 Q153.746 273.028 153.746 269.417 Q153.746 265.806 151.408 263.699 Q149.07 261.593 145.066 261.593 Q143.191 261.593 141.316 262.01 Q139.464 262.426 137.519 263.306 L137.519 245.945 Z" fill="#000000" fill-rule="nonzero" fill-opacity="1"></path><path clip-path="url(#clip040)" d="M92.0567 181.333 L99.6956 181.333 L99.6956 154.967 L91.3854 156.634 L91.3854 152.374 L99.6493 150.708 L104.325 150.708 L104.325 181.333 L111.964 181.333 L111.964 185.268 L92.0567 185.268 L92.0567 181.333 Z" fill="#000000" fill-rule="nonzero" fill-opacity="1"></path><path clip-path="url(#clip040)" d="M121.408 179.388 L126.293 179.388 L126.293 185.268 L121.408 185.268 L121.408 179.388 Z" fill="#000000" fill-rule="nonzero" fill-opacity="1"></path><path clip-path="url(#clip040)" d="M146.478 153.786 Q142.867 153.786 141.038 157.351 Q139.232 160.893 139.232 168.022 Q139.232 175.129 141.038 178.694 Q142.867 182.235 146.478 182.235 Q150.112 182.235 151.918 178.694 Q153.746 175.129 153.746 168.022 Q153.746 160.893 151.918 157.351 Q150.112 153.786 146.478 153.786 M146.478 150.083 Q152.288 150.083 155.343 154.689 Q158.422 159.272 158.422 168.022 Q158.422 176.749 155.343 181.356 Q152.288 185.939 146.478 185.939 Q140.668 185.939 137.589 181.356 Q134.533 176.749 134.533 168.022 Q134.533 159.272 137.589 154.689 Q140.668 150.083 146.478 150.083 Z" fill="#000000" fill-rule="nonzero" fill-opacity="1"></path><path clip-path="url(#clip040)" d="M478.538 63.9476 L478.538 47.7034 L465.17 47.7034 L465.17 40.9789 L486.64 40.9789 L486.64 66.9452 Q481.9 70.3075 476.188 72.0494 Q470.477 73.7508 463.995 73.7508 Q449.817 73.7508 441.796 65.4869 Q433.816 57.1826 433.816 42.3968 Q433.816 27.5705 441.796 19.3066 Q449.817 11.0023 463.995 11.0023 Q469.91 11.0023 475.216 12.4606 Q480.563 13.9189 485.06 16.7545 L485.06 25.464 Q480.523 21.6156 475.419 19.6712 Q470.315 17.7268 464.684 17.7268 Q453.584 17.7268 447.994 23.9246 Q442.444 30.1225 442.444 42.3968 Q442.444 54.6305 447.994 60.8284 Q453.584 67.0263 464.684 67.0263 Q469.018 67.0263 472.421 66.2971 Q475.824 65.5274 478.538 63.9476 Z" fill="#000000" fill-rule="nonzero" fill-opacity="1"></path><path clip-path="url(#clip040)" d="M490.245 12.096 L541.408 12.096 L541.408 18.9825 L519.938 18.9825 L519.938 72.576 L511.715 72.576 L511.715 18.9825 L490.245 18.9825 L490.245 12.096 Z" fill="#000000" fill-rule="nonzero" fill-opacity="1"></path><path clip-path="url(#clip040)" d="M575.679 12.096 L610.435 12.096 L610.435 18.9825 L583.861 18.9825 L583.861 36.8065 L607.843 36.8065 L607.843 43.6931 L583.861 43.6931 L583.861 72.576 L575.679 72.576 L575.679 12.096 Z" fill="#000000" fill-rule="nonzero" fill-opacity="1"></path><path clip-path="url(#clip040)" d="M617.768 54.671 L617.768 27.2059 L625.221 27.2059 L625.221 54.3874 Q625.221 60.8284 627.733 64.0691 Q630.244 67.2693 635.267 67.2693 Q641.303 67.2693 644.787 63.421 Q648.311 59.5726 648.311 52.9291 L648.311 27.2059 L655.765 27.2059 L655.765 72.576 L648.311 72.576 L648.311 65.6084 Q645.597 69.7404 641.992 71.7658 Q638.427 73.7508 633.688 73.7508 Q625.869 73.7508 621.818 68.8897 Q617.768 64.0286 617.768 54.671 M636.523 26.1121 L636.523 26.1121 Z" fill="#000000" fill-rule="nonzero" fill-opacity="1"></path><path clip-path="url(#clip040)" d="M708.832 45.1919 L708.832 72.576 L701.378 72.576 L701.378 45.4349 Q701.378 38.994 698.867 35.7938 Q696.355 32.5936 691.332 32.5936 Q685.296 32.5936 681.812 36.4419 Q678.329 40.2903 678.329 46.9338 L678.329 72.576 L670.834 72.576 L670.834 27.2059 L678.329 27.2059 L678.329 34.2544 Q681.002 30.163 684.607 28.1376 Q688.253 26.1121 692.993 26.1121 Q700.811 26.1121 704.821 30.9732 Q708.832 35.7938 708.832 45.1919 Z" fill="#000000" fill-rule="nonzero" fill-opacity="1"></path><path clip-path="url(#clip040)" d="M756.349 28.9478 L756.349 35.9153 Q753.189 34.1734 749.989 33.3227 Q746.829 32.4315 743.589 32.4315 Q736.338 32.4315 732.327 37.0496 Q728.317 41.6271 728.317 49.9314 Q728.317 58.2358 732.327 62.8538 Q736.338 67.4314 743.589 67.4314 Q746.829 67.4314 749.989 66.5807 Q753.189 65.6895 756.349 63.9476 L756.349 70.8341 Q753.23 72.2924 749.868 73.0216 Q746.546 73.7508 742.778 73.7508 Q732.53 73.7508 726.494 67.3098 Q720.458 60.8689 720.458 49.9314 Q720.458 38.832 726.534 32.472 Q732.651 26.1121 743.265 26.1121 Q746.708 26.1121 749.989 26.8413 Q753.27 27.5299 756.349 28.9478 Z" fill="#000000" fill-rule="nonzero" fill-opacity="1"></path><path clip-path="url(#clip040)" d="M776.685 14.324 L776.685 27.2059 L792.037 27.2059 L792.037 32.9987 L776.685 32.9987 L776.685 57.6282 Q776.685 63.1779 778.183 64.7578 Q779.723 66.3376 784.381 66.3376 L792.037 66.3376 L792.037 72.576 L784.381 72.576 Q775.753 72.576 772.472 69.3758 Q769.19 66.1351 769.19 57.6282 L769.19 32.9987 L763.722 32.9987 L763.722 27.2059 L769.19 27.2059 L769.19 14.324 L776.685 14.324 Z" fill="#000000" fill-rule="nonzero" fill-opacity="1"></path><path clip-path="url(#clip040)" d="M801.841 27.2059 L809.294 27.2059 L809.294 72.576 L801.841 72.576 L801.841 27.2059 M801.841 9.54393 L809.294 9.54393 L809.294 18.9825 L801.841 18.9825 L801.841 9.54393 Z" fill="#000000" fill-rule="nonzero" fill-opacity="1"></path><path clip-path="url(#clip040)" d="M842.471 32.4315 Q836.476 32.4315 832.992 37.1306 Q829.508 41.7891 829.508 49.9314 Q829.508 58.0738 832.952 62.7728 Q836.435 67.4314 842.471 67.4314 Q848.426 67.4314 851.91 62.7323 Q855.394 58.0333 855.394 49.9314 Q855.394 41.8701 851.91 37.1711 Q848.426 32.4315 842.471 32.4315 M842.471 26.1121 Q852.193 26.1121 857.743 32.4315 Q863.293 38.7509 863.293 49.9314 Q863.293 61.0714 857.743 67.4314 Q852.193 73.7508 842.471 73.7508 Q832.709 73.7508 827.159 67.4314 Q821.65 61.0714 821.65 49.9314 Q821.65 38.7509 827.159 32.4315 Q832.709 26.1121 842.471 26.1121 Z" fill="#000000" fill-rule="nonzero" fill-opacity="1"></path><path clip-path="url(#clip040)" d="M913.362 45.1919 L913.362 72.576 L905.908 72.576 L905.908 45.4349 Q905.908 38.994 903.397 35.7938 Q900.885 32.5936 895.862 32.5936 Q889.826 32.5936 886.342 36.4419 Q882.859 40.2903 882.859 46.9338 L882.859 72.576 L875.365 72.576 L875.365 27.2059 L882.859 27.2059 L882.859 34.2544 Q885.532 30.163 889.138 28.1376 Q892.783 26.1121 897.523 26.1121 Q905.341 26.1121 909.352 30.9732 Q913.362 35.7938 913.362 45.1919 Z" fill="#000000" fill-rule="nonzero" fill-opacity="1"></path><polyline clip-path="url(#clip042)" style="stroke:#009af9; stroke-linecap:round; stroke-linejoin:round; stroke-width:4; stroke-opacity:1; fill:none" points="221.545,139.405 250.709,144.109 279.873,150.666 309.037,159.247 338.201,169.973 367.365,182.922 396.53,198.116 425.694,215.529 454.858,235.079 484.022,256.636 513.186,280.018 542.35,305.002 571.514,331.323 600.679,358.68 629.843,386.748 659.007,415.178 688.171,443.609 717.335,471.676 746.499,499.013 775.664,525.267 804.828,550.103 833.992,573.207 863.156,594.3 892.32,613.135 921.484,629.508 950.648,643.261 979.813,654.278 1008.98,662.496 1038.14,667.897 1067.3,670.515 1096.47,670.425 1125.63,667.749 "></polyline>
<path clip-path="url(#clip040)" d="M972.548 245.918 L1120.81 245.918 L1120.81 142.238 L972.548 142.238  Z" fill="#ffffff" fill-rule="evenodd" fill-opacity="1"></path>
<polyline clip-path="url(#clip040)" style="stroke:#000000; stroke-linecap:round; stroke-linejoin:round; stroke-width:4; stroke-opacity:1; fill:none" points="972.548,245.918 1120.81,245.918 1120.81,142.238 972.548,142.238 972.548,245.918 "></polyline>
<polyline clip-path="url(#clip040)" style="stroke:#009af9; stroke-linecap:round; stroke-linejoin:round; stroke-width:4; stroke-opacity:1; fill:none" points="983.196,194.078 1047.08,194.078 "></polyline>
<path clip-path="url(#clip040)" d="M1071.58 213.765 Q1069.77 218.395 1068.06 219.807 Q1066.34 221.219 1063.47 221.219 L1060.07 221.219 L1060.07 217.654 L1062.57 217.654 Q1064.33 217.654 1065.3 216.821 Q1066.27 215.988 1067.46 212.886 L1068.22 210.941 L1057.73 185.432 L1062.25 185.432 L1070.35 205.71 L1078.45 185.432 L1082.96 185.432 L1071.58 213.765 Z" fill="#000000" fill-rule="nonzero" fill-opacity="1"></path><path clip-path="url(#clip040)" d="M1090.26 207.423 L1097.89 207.423 L1097.89 181.057 L1089.58 182.724 L1089.58 178.465 L1097.85 176.798 L1102.52 176.798 L1102.52 207.423 L1110.16 207.423 L1110.16 211.358 L1090.26 211.358 L1090.26 207.423 Z" fill="#000000" fill-rule="nonzero" fill-opacity="1"></path><path clip-path="url(#clip040)" d="M1394.42 686.448 L2352.76 686.448 L2352.76 123.472 L1394.42 123.472  Z" fill="#ffffff" fill-rule="evenodd" fill-opacity="1"></path>
<defs>
  <clipPath id="clip043">
    <rect x="1394" y="123" width="959" height="564"></rect>
  </clipPath>
</defs>
<polyline clip-path="url(#clip043)" style="stroke:#000000; stroke-linecap:round; stroke-linejoin:round; stroke-width:2; stroke-opacity:0.1; fill:none" points="1421.54,686.448 1421.54,123.472 "></polyline>
<polyline clip-path="url(#clip043)" style="stroke:#000000; stroke-linecap:round; stroke-linejoin:round; stroke-width:2; stroke-opacity:0.1; fill:none" points="1647.57,686.448 1647.57,123.472 "></polyline>
<polyline clip-path="url(#clip043)" style="stroke:#000000; stroke-linecap:round; stroke-linejoin:round; stroke-width:2; stroke-opacity:0.1; fill:none" points="1873.59,686.448 1873.59,123.472 "></polyline>
<polyline clip-path="url(#clip043)" style="stroke:#000000; stroke-linecap:round; stroke-linejoin:round; stroke-width:2; stroke-opacity:0.1; fill:none" points="2099.61,686.448 2099.61,123.472 "></polyline>
<polyline clip-path="url(#clip043)" style="stroke:#000000; stroke-linecap:round; stroke-linejoin:round; stroke-width:2; stroke-opacity:0.1; fill:none" points="2325.63,686.448 2325.63,123.472 "></polyline>
<polyline clip-path="url(#clip040)" style="stroke:#000000; stroke-linecap:round; stroke-linejoin:round; stroke-width:4; stroke-opacity:1; fill:none" points="1394.42,686.448 2352.76,686.448 "></polyline>
<polyline clip-path="url(#clip040)" style="stroke:#000000; stroke-linecap:round; stroke-linejoin:round; stroke-width:4; stroke-opacity:1; fill:none" points="1421.54,686.448 1421.54,667.55 "></polyline>
<polyline clip-path="url(#clip040)" style="stroke:#000000; stroke-linecap:round; stroke-linejoin:round; stroke-width:4; stroke-opacity:1; fill:none" points="1647.57,686.448 1647.57,667.55 "></polyline>
<polyline clip-path="url(#clip040)" style="stroke:#000000; stroke-linecap:round; stroke-linejoin:round; stroke-width:4; stroke-opacity:1; fill:none" points="1873.59,686.448 1873.59,667.55 "></polyline>
<polyline clip-path="url(#clip040)" style="stroke:#000000; stroke-linecap:round; stroke-linejoin:round; stroke-width:4; stroke-opacity:1; fill:none" points="2099.61,686.448 2099.61,667.55 "></polyline>
<polyline clip-path="url(#clip040)" style="stroke:#000000; stroke-linecap:round; stroke-linejoin:round; stroke-width:4; stroke-opacity:1; fill:none" points="2325.63,686.448 2325.63,667.55 "></polyline>
<path clip-path="url(#clip040)" d="M1383.85 717.367 Q1380.24 717.367 1378.41 720.931 Q1376.6 724.473 1376.6 731.603 Q1376.6 738.709 1378.41 742.274 Q1380.24 745.815 1383.85 745.815 Q1387.48 745.815 1389.29 742.274 Q1391.12 738.709 1391.12 731.603 Q1391.12 724.473 1389.29 720.931 Q1387.48 717.367 1383.85 717.367 M1383.85 713.663 Q1389.66 713.663 1392.71 718.269 Q1395.79 722.853 1395.79 731.603 Q1395.79 740.329 1392.71 744.936 Q1389.66 749.519 1383.85 749.519 Q1378.04 749.519 1374.96 744.936 Q1371.9 740.329 1371.9 731.603 Q1371.9 722.853 1374.96 718.269 Q1378.04 713.663 1383.85 713.663 Z" fill="#000000" fill-rule="nonzero" fill-opacity="1"></path><path clip-path="url(#clip040)" d="M1404.01 742.968 L1408.89 742.968 L1408.89 748.848 L1404.01 748.848 L1404.01 742.968 Z" fill="#000000" fill-rule="nonzero" fill-opacity="1"></path><path clip-path="url(#clip040)" d="M1429.08 717.367 Q1425.47 717.367 1423.64 720.931 Q1421.83 724.473 1421.83 731.603 Q1421.83 738.709 1423.64 742.274 Q1425.47 745.815 1429.08 745.815 Q1432.71 745.815 1434.52 742.274 Q1436.35 738.709 1436.35 731.603 Q1436.35 724.473 1434.52 720.931 Q1432.71 717.367 1429.08 717.367 M1429.08 713.663 Q1434.89 713.663 1437.95 718.269 Q1441.02 722.853 1441.02 731.603 Q1441.02 740.329 1437.95 744.936 Q1434.89 749.519 1429.08 749.519 Q1423.27 749.519 1420.19 744.936 Q1417.14 740.329 1417.14 731.603 Q1417.14 722.853 1420.19 718.269 Q1423.27 713.663 1429.08 713.663 Z" fill="#000000" fill-rule="nonzero" fill-opacity="1"></path><path clip-path="url(#clip040)" d="M1459.24 717.367 Q1455.63 717.367 1453.8 720.931 Q1452 724.473 1452 731.603 Q1452 738.709 1453.8 742.274 Q1455.63 745.815 1459.24 745.815 Q1462.88 745.815 1464.68 742.274 Q1466.51 738.709 1466.51 731.603 Q1466.51 724.473 1464.68 720.931 Q1462.88 717.367 1459.24 717.367 M1459.24 713.663 Q1465.05 713.663 1468.11 718.269 Q1471.19 722.853 1471.19 731.603 Q1471.19 740.329 1468.11 744.936 Q1465.05 749.519 1459.24 749.519 Q1453.43 749.519 1450.35 744.936 Q1447.3 740.329 1447.3 731.603 Q1447.3 722.853 1450.35 718.269 Q1453.43 713.663 1459.24 713.663 Z" fill="#000000" fill-rule="nonzero" fill-opacity="1"></path><path clip-path="url(#clip040)" d="M1610.37 717.367 Q1606.76 717.367 1604.93 720.931 Q1603.12 724.473 1603.12 731.603 Q1603.12 738.709 1604.93 742.274 Q1606.76 745.815 1610.37 745.815 Q1614 745.815 1615.81 742.274 Q1617.64 738.709 1617.64 731.603 Q1617.64 724.473 1615.81 720.931 Q1614 717.367 1610.37 717.367 M1610.37 713.663 Q1616.18 713.663 1619.23 718.269 Q1622.31 722.853 1622.31 731.603 Q1622.31 740.329 1619.23 744.936 Q1616.18 749.519 1610.37 749.519 Q1604.56 749.519 1601.48 744.936 Q1598.42 740.329 1598.42 731.603 Q1598.42 722.853 1601.48 718.269 Q1604.56 713.663 1610.37 713.663 Z" fill="#000000" fill-rule="nonzero" fill-opacity="1"></path><path clip-path="url(#clip040)" d="M1630.53 742.968 L1635.41 742.968 L1635.41 748.848 L1630.53 748.848 L1630.53 742.968 Z" fill="#000000" fill-rule="nonzero" fill-opacity="1"></path><path clip-path="url(#clip040)" d="M1649.63 744.913 L1665.95 744.913 L1665.95 748.848 L1644 748.848 L1644 744.913 Q1646.66 742.158 1651.25 737.528 Q1655.85 732.876 1657.03 731.533 Q1659.28 729.01 1660.16 727.274 Q1661.06 725.515 1661.06 723.825 Q1661.06 721.07 1659.12 719.334 Q1657.2 717.598 1654.09 717.598 Q1651.9 717.598 1649.44 718.362 Q1647.01 719.126 1644.23 720.677 L1644.23 715.955 Q1647.06 714.82 1649.51 714.242 Q1651.97 713.663 1654 713.663 Q1659.37 713.663 1662.57 716.348 Q1665.76 719.033 1665.76 723.524 Q1665.76 725.654 1664.95 727.575 Q1664.16 729.473 1662.06 732.066 Q1661.48 732.737 1658.38 735.954 Q1655.28 739.149 1649.63 744.913 Z" fill="#000000" fill-rule="nonzero" fill-opacity="1"></path><path clip-path="url(#clip040)" d="M1675.81 714.288 L1694.16 714.288 L1694.16 718.223 L1680.09 718.223 L1680.09 726.695 Q1681.11 726.348 1682.13 726.186 Q1683.15 726.001 1684.16 726.001 Q1689.95 726.001 1693.33 729.172 Q1696.71 732.343 1696.71 737.76 Q1696.71 743.339 1693.24 746.44 Q1689.77 749.519 1683.45 749.519 Q1681.27 749.519 1679 749.149 Q1676.76 748.778 1674.35 748.038 L1674.35 743.339 Q1676.43 744.473 1678.65 745.028 Q1680.88 745.584 1683.35 745.584 Q1687.36 745.584 1689.7 743.478 Q1692.03 741.371 1692.03 737.76 Q1692.03 734.149 1689.7 732.042 Q1687.36 729.936 1683.35 729.936 Q1681.48 729.936 1679.6 730.353 Q1677.75 730.769 1675.81 731.649 L1675.81 714.288 Z" fill="#000000" fill-rule="nonzero" fill-opacity="1"></path><path clip-path="url(#clip040)" d="M1835.89 717.367 Q1832.28 717.367 1830.45 720.931 Q1828.65 724.473 1828.65 731.603 Q1828.65 738.709 1830.45 742.274 Q1832.28 745.815 1835.89 745.815 Q1839.53 745.815 1841.33 742.274 Q1843.16 738.709 1843.16 731.603 Q1843.16 724.473 1841.33 720.931 Q1839.53 717.367 1835.89 717.367 M1835.89 713.663 Q1841.7 713.663 1844.76 718.269 Q1847.84 722.853 1847.84 731.603 Q1847.84 740.329 1844.76 744.936 Q1841.7 749.519 1835.89 749.519 Q1830.08 749.519 1827 744.936 Q1823.95 740.329 1823.95 731.603 Q1823.95 722.853 1827 718.269 Q1830.08 713.663 1835.89 713.663 Z" fill="#000000" fill-rule="nonzero" fill-opacity="1"></path><path clip-path="url(#clip040)" d="M1856.05 742.968 L1860.94 742.968 L1860.94 748.848 L1856.05 748.848 L1856.05 742.968 Z" fill="#000000" fill-rule="nonzero" fill-opacity="1"></path><path clip-path="url(#clip040)" d="M1871.17 714.288 L1889.53 714.288 L1889.53 718.223 L1875.45 718.223 L1875.45 726.695 Q1876.47 726.348 1877.49 726.186 Q1878.51 726.001 1879.53 726.001 Q1885.31 726.001 1888.69 729.172 Q1892.07 732.343 1892.07 737.76 Q1892.07 743.339 1888.6 746.44 Q1885.13 749.519 1878.81 749.519 Q1876.63 749.519 1874.36 749.149 Q1872.12 748.778 1869.71 748.038 L1869.71 743.339 Q1871.8 744.473 1874.02 745.028 Q1876.24 745.584 1878.72 745.584 Q1882.72 745.584 1885.06 743.478 Q1887.4 741.371 1887.4 737.76 Q1887.4 734.149 1885.06 732.042 Q1882.72 729.936 1878.72 729.936 Q1876.84 729.936 1874.97 730.353 Q1873.11 730.769 1871.17 731.649 L1871.17 714.288 Z" fill="#000000" fill-rule="nonzero" fill-opacity="1"></path><path clip-path="url(#clip040)" d="M1911.29 717.367 Q1907.67 717.367 1905.85 720.931 Q1904.04 724.473 1904.04 731.603 Q1904.04 738.709 1905.85 742.274 Q1907.67 745.815 1911.29 745.815 Q1914.92 745.815 1916.73 742.274 Q1918.55 738.709 1918.55 731.603 Q1918.55 724.473 1916.73 720.931 Q1914.92 717.367 1911.29 717.367 M1911.29 713.663 Q1917.1 713.663 1920.15 718.269 Q1923.23 722.853 1923.23 731.603 Q1923.23 740.329 1920.15 744.936 Q1917.1 749.519 1911.29 749.519 Q1905.48 749.519 1902.4 744.936 Q1899.34 740.329 1899.34 731.603 Q1899.34 722.853 1902.4 718.269 Q1905.48 713.663 1911.29 713.663 Z" fill="#000000" fill-rule="nonzero" fill-opacity="1"></path><path clip-path="url(#clip040)" d="M2062.41 717.367 Q2058.8 717.367 2056.97 720.931 Q2055.17 724.473 2055.17 731.603 Q2055.17 738.709 2056.97 742.274 Q2058.8 745.815 2062.41 745.815 Q2066.05 745.815 2067.85 742.274 Q2069.68 738.709 2069.68 731.603 Q2069.68 724.473 2067.85 720.931 Q2066.05 717.367 2062.41 717.367 M2062.41 713.663 Q2068.22 713.663 2071.28 718.269 Q2074.36 722.853 2074.36 731.603 Q2074.36 740.329 2071.28 744.936 Q2068.22 749.519 2062.41 749.519 Q2056.6 749.519 2053.52 744.936 Q2050.47 740.329 2050.47 731.603 Q2050.47 722.853 2053.52 718.269 Q2056.6 713.663 2062.41 713.663 Z" fill="#000000" fill-rule="nonzero" fill-opacity="1"></path><path clip-path="url(#clip040)" d="M2082.57 742.968 L2087.46 742.968 L2087.46 748.848 L2082.57 748.848 L2082.57 742.968 Z" fill="#000000" fill-rule="nonzero" fill-opacity="1"></path><path clip-path="url(#clip040)" d="M2096.46 714.288 L2118.69 714.288 L2118.69 716.279 L2106.14 748.848 L2101.25 748.848 L2113.06 718.223 L2096.46 718.223 L2096.46 714.288 Z" fill="#000000" fill-rule="nonzero" fill-opacity="1"></path><path clip-path="url(#clip040)" d="M2127.85 714.288 L2146.21 714.288 L2146.21 718.223 L2132.13 718.223 L2132.13 726.695 Q2133.15 726.348 2134.17 726.186 Q2135.19 726.001 2136.21 726.001 Q2142 726.001 2145.37 729.172 Q2148.75 732.343 2148.75 737.76 Q2148.75 743.339 2145.28 746.44 Q2141.81 749.519 2135.49 749.519 Q2133.31 749.519 2131.05 749.149 Q2128.8 748.778 2126.39 748.038 L2126.39 743.339 Q2128.48 744.473 2130.7 745.028 Q2132.92 745.584 2135.4 745.584 Q2139.4 745.584 2141.74 743.478 Q2144.08 741.371 2144.08 737.76 Q2144.08 734.149 2141.74 732.042 Q2139.4 729.936 2135.4 729.936 Q2133.52 729.936 2131.65 730.353 Q2129.8 730.769 2127.85 731.649 L2127.85 714.288 Z" fill="#000000" fill-rule="nonzero" fill-opacity="1"></path><path clip-path="url(#clip040)" d="M2277.71 744.913 L2285.34 744.913 L2285.34 718.547 L2277.03 720.214 L2277.03 715.955 L2285.3 714.288 L2289.97 714.288 L2289.97 744.913 L2297.61 744.913 L2297.61 748.848 L2277.71 748.848 L2277.71 744.913 Z" fill="#000000" fill-rule="nonzero" fill-opacity="1"></path><path clip-path="url(#clip040)" d="M2307.06 742.968 L2311.94 742.968 L2311.94 748.848 L2307.06 748.848 L2307.06 742.968 Z" fill="#000000" fill-rule="nonzero" fill-opacity="1"></path><path clip-path="url(#clip040)" d="M2332.13 717.367 Q2328.52 717.367 2326.69 720.931 Q2324.88 724.473 2324.88 731.603 Q2324.88 738.709 2326.69 742.274 Q2328.52 745.815 2332.13 745.815 Q2335.76 745.815 2337.57 742.274 Q2339.39 738.709 2339.39 731.603 Q2339.39 724.473 2337.57 720.931 Q2335.76 717.367 2332.13 717.367 M2332.13 713.663 Q2337.94 713.663 2340.99 718.269 Q2344.07 722.853 2344.07 731.603 Q2344.07 740.329 2340.99 744.936 Q2337.94 749.519 2332.13 749.519 Q2326.32 749.519 2323.24 744.936 Q2320.18 740.329 2320.18 731.603 Q2320.18 722.853 2323.24 718.269 Q2326.32 713.663 2332.13 713.663 Z" fill="#000000" fill-rule="nonzero" fill-opacity="1"></path><path clip-path="url(#clip040)" d="M2362.29 717.367 Q2358.68 717.367 2356.85 720.931 Q2355.04 724.473 2355.04 731.603 Q2355.04 738.709 2356.85 742.274 Q2358.68 745.815 2362.29 745.815 Q2365.92 745.815 2367.73 742.274 Q2369.56 738.709 2369.56 731.603 Q2369.56 724.473 2367.73 720.931 Q2365.92 717.367 2362.29 717.367 M2362.29 713.663 Q2368.1 713.663 2371.15 718.269 Q2374.23 722.853 2374.23 731.603 Q2374.23 740.329 2371.15 744.936 Q2368.1 749.519 2362.29 749.519 Q2356.48 749.519 2353.4 744.936 Q2350.34 740.329 2350.34 731.603 Q2350.34 722.853 2353.4 718.269 Q2356.48 713.663 2362.29 713.663 Z" fill="#000000" fill-rule="nonzero" fill-opacity="1"></path><polyline clip-path="url(#clip043)" style="stroke:#000000; stroke-linecap:round; stroke-linejoin:round; stroke-width:2; stroke-opacity:0.1; fill:none" points="1394.42,656.097 2352.76,656.097 "></polyline>
<polyline clip-path="url(#clip043)" style="stroke:#000000; stroke-linecap:round; stroke-linejoin:round; stroke-width:2; stroke-opacity:0.1; fill:none" points="1394.42,528.246 2352.76,528.246 "></polyline>
<polyline clip-path="url(#clip043)" style="stroke:#000000; stroke-linecap:round; stroke-linejoin:round; stroke-width:2; stroke-opacity:0.1; fill:none" points="1394.42,400.394 2352.76,400.394 "></polyline>
<polyline clip-path="url(#clip043)" style="stroke:#000000; stroke-linecap:round; stroke-linejoin:round; stroke-width:2; stroke-opacity:0.1; fill:none" points="1394.42,272.543 2352.76,272.543 "></polyline>
<polyline clip-path="url(#clip043)" style="stroke:#000000; stroke-linecap:round; stroke-linejoin:round; stroke-width:2; stroke-opacity:0.1; fill:none" points="1394.42,144.692 2352.76,144.692 "></polyline>
<polyline clip-path="url(#clip040)" style="stroke:#000000; stroke-linecap:round; stroke-linejoin:round; stroke-width:4; stroke-opacity:1; fill:none" points="1394.42,686.448 1394.42,123.472 "></polyline>
<polyline clip-path="url(#clip040)" style="stroke:#000000; stroke-linecap:round; stroke-linejoin:round; stroke-width:4; stroke-opacity:1; fill:none" points="1394.42,656.097 1413.32,656.097 "></polyline>
<polyline clip-path="url(#clip040)" style="stroke:#000000; stroke-linecap:round; stroke-linejoin:round; stroke-width:4; stroke-opacity:1; fill:none" points="1394.42,528.246 1413.32,528.246 "></polyline>
<polyline clip-path="url(#clip040)" style="stroke:#000000; stroke-linecap:round; stroke-linejoin:round; stroke-width:4; stroke-opacity:1; fill:none" points="1394.42,400.394 1413.32,400.394 "></polyline>
<polyline clip-path="url(#clip040)" style="stroke:#000000; stroke-linecap:round; stroke-linejoin:round; stroke-width:4; stroke-opacity:1; fill:none" points="1394.42,272.543 1413.32,272.543 "></polyline>
<polyline clip-path="url(#clip040)" style="stroke:#000000; stroke-linecap:round; stroke-linejoin:round; stroke-width:4; stroke-opacity:1; fill:none" points="1394.42,144.692 1413.32,144.692 "></polyline>
<path clip-path="url(#clip040)" d="M1251.32 656.548 L1280.99 656.548 L1280.99 660.484 L1251.32 660.484 L1251.32 656.548 Z" fill="#000000" fill-rule="nonzero" fill-opacity="1"></path><path clip-path="url(#clip040)" d="M1301.08 641.896 Q1297.47 641.896 1295.64 645.461 Q1293.84 649.002 1293.84 656.132 Q1293.84 663.238 1295.64 666.803 Q1297.47 670.345 1301.08 670.345 Q1304.72 670.345 1306.52 666.803 Q1308.35 663.238 1308.35 656.132 Q1308.35 649.002 1306.52 645.461 Q1304.72 641.896 1301.08 641.896 M1301.08 638.192 Q1306.89 638.192 1309.95 642.799 Q1313.03 647.382 1313.03 656.132 Q1313.03 664.859 1309.95 669.465 Q1306.89 674.048 1301.08 674.048 Q1295.27 674.048 1292.2 669.465 Q1289.14 664.859 1289.14 656.132 Q1289.14 647.382 1292.2 642.799 Q1295.27 638.192 1301.08 638.192 Z" fill="#000000" fill-rule="nonzero" fill-opacity="1"></path><path clip-path="url(#clip040)" d="M1321.25 667.497 L1326.13 667.497 L1326.13 673.377 L1321.25 673.377 L1321.25 667.497 Z" fill="#000000" fill-rule="nonzero" fill-opacity="1"></path><path clip-path="url(#clip040)" d="M1346.89 654.234 Q1343.75 654.234 1341.89 656.386 Q1340.07 658.539 1340.07 662.289 Q1340.07 666.016 1341.89 668.192 Q1343.75 670.345 1346.89 670.345 Q1350.04 670.345 1351.87 668.192 Q1353.72 666.016 1353.72 662.289 Q1353.72 658.539 1351.87 656.386 Q1350.04 654.234 1346.89 654.234 M1356.18 639.581 L1356.18 643.84 Q1354.42 643.007 1352.61 642.567 Q1350.83 642.127 1349.07 642.127 Q1344.44 642.127 1341.99 645.252 Q1339.56 648.377 1339.21 654.697 Q1340.57 652.683 1342.64 651.618 Q1344.7 650.53 1347.17 650.53 Q1352.38 650.53 1355.39 653.701 Q1358.42 656.849 1358.42 662.289 Q1358.42 667.613 1355.27 670.831 Q1352.13 674.048 1346.89 674.048 Q1340.9 674.048 1337.73 669.465 Q1334.56 664.859 1334.56 656.132 Q1334.56 647.937 1338.45 643.076 Q1342.33 638.192 1348.89 638.192 Q1350.64 638.192 1352.43 638.539 Q1354.23 638.887 1356.18 639.581 Z" fill="#000000" fill-rule="nonzero" fill-opacity="1"></path><path clip-path="url(#clip040)" d="M1250.99 528.697 L1280.67 528.697 L1280.67 532.632 L1250.99 532.632 L1250.99 528.697 Z" fill="#000000" fill-rule="nonzero" fill-opacity="1"></path><path clip-path="url(#clip040)" d="M1300.76 514.044 Q1297.15 514.044 1295.32 517.609 Q1293.52 521.151 1293.52 528.28 Q1293.52 535.387 1295.32 538.952 Q1297.15 542.493 1300.76 542.493 Q1304.39 542.493 1306.2 538.952 Q1308.03 535.387 1308.03 528.28 Q1308.03 521.151 1306.2 517.609 Q1304.39 514.044 1300.76 514.044 M1300.76 510.341 Q1306.57 510.341 1309.63 514.947 Q1312.7 519.531 1312.7 528.28 Q1312.7 537.007 1309.63 541.614 Q1306.57 546.197 1300.76 546.197 Q1294.95 546.197 1291.87 541.614 Q1288.82 537.007 1288.82 528.28 Q1288.82 519.531 1291.87 514.947 Q1294.95 510.341 1300.76 510.341 Z" fill="#000000" fill-rule="nonzero" fill-opacity="1"></path><path clip-path="url(#clip040)" d="M1320.92 539.646 L1325.81 539.646 L1325.81 545.526 L1320.92 545.526 L1320.92 539.646 Z" fill="#000000" fill-rule="nonzero" fill-opacity="1"></path><path clip-path="url(#clip040)" d="M1348.84 515.04 L1337.03 533.489 L1348.84 533.489 L1348.84 515.04 M1347.61 510.966 L1353.49 510.966 L1353.49 533.489 L1358.42 533.489 L1358.42 537.378 L1353.49 537.378 L1353.49 545.526 L1348.84 545.526 L1348.84 537.378 L1333.24 537.378 L1333.24 532.864 L1347.61 510.966 Z" fill="#000000" fill-rule="nonzero" fill-opacity="1"></path><path clip-path="url(#clip040)" d="M1253.08 400.846 L1282.75 400.846 L1282.75 404.781 L1253.08 404.781 L1253.08 400.846 Z" fill="#000000" fill-rule="nonzero" fill-opacity="1"></path><path clip-path="url(#clip040)" d="M1302.84 386.193 Q1299.23 386.193 1297.4 389.758 Q1295.6 393.3 1295.6 400.429 Q1295.6 407.536 1297.4 411.1 Q1299.23 414.642 1302.84 414.642 Q1306.48 414.642 1308.28 411.1 Q1310.11 407.536 1310.11 400.429 Q1310.11 393.3 1308.28 389.758 Q1306.48 386.193 1302.84 386.193 M1302.84 382.489 Q1308.65 382.489 1311.71 387.096 Q1314.79 391.679 1314.79 400.429 Q1314.79 409.156 1311.71 413.762 Q1308.65 418.346 1302.84 418.346 Q1297.03 418.346 1293.95 413.762 Q1290.9 409.156 1290.9 400.429 Q1290.9 391.679 1293.95 387.096 Q1297.03 382.489 1302.84 382.489 Z" fill="#000000" fill-rule="nonzero" fill-opacity="1"></path><path clip-path="url(#clip040)" d="M1323.01 411.795 L1327.89 411.795 L1327.89 417.674 L1323.01 417.674 L1323.01 411.795 Z" fill="#000000" fill-rule="nonzero" fill-opacity="1"></path><path clip-path="url(#clip040)" d="M1342.1 413.739 L1358.42 413.739 L1358.42 417.674 L1336.48 417.674 L1336.48 413.739 Q1339.14 410.985 1343.72 406.355 Q1348.33 401.702 1349.51 400.36 Q1351.76 397.837 1352.64 396.101 Q1353.54 394.341 1353.54 392.651 Q1353.54 389.897 1351.59 388.161 Q1349.67 386.425 1346.57 386.425 Q1344.37 386.425 1341.92 387.189 Q1339.49 387.952 1336.71 389.503 L1336.71 384.781 Q1339.53 383.647 1341.99 383.068 Q1344.44 382.489 1346.48 382.489 Q1351.85 382.489 1355.04 385.175 Q1358.24 387.86 1358.24 392.351 Q1358.24 394.48 1357.43 396.401 Q1356.64 398.3 1354.53 400.892 Q1353.95 401.563 1350.85 404.781 Q1347.75 407.975 1342.1 413.739 Z" fill="#000000" fill-rule="nonzero" fill-opacity="1"></path><path clip-path="url(#clip040)" d="M1301.25 258.342 Q1297.64 258.342 1295.81 261.907 Q1294 265.448 1294 272.578 Q1294 279.684 1295.81 283.249 Q1297.64 286.791 1301.25 286.791 Q1304.88 286.791 1306.69 283.249 Q1308.51 279.684 1308.51 272.578 Q1308.51 265.448 1306.69 261.907 Q1304.88 258.342 1301.25 258.342 M1301.25 254.638 Q1307.06 254.638 1310.11 259.245 Q1313.19 263.828 1313.19 272.578 Q1313.19 281.305 1310.11 285.911 Q1307.06 290.494 1301.25 290.494 Q1295.44 290.494 1292.36 285.911 Q1289.3 281.305 1289.3 272.578 Q1289.3 263.828 1292.36 259.245 Q1295.44 254.638 1301.25 254.638 Z" fill="#000000" fill-rule="nonzero" fill-opacity="1"></path><path clip-path="url(#clip040)" d="M1321.41 283.944 L1326.29 283.944 L1326.29 289.823 L1321.41 289.823 L1321.41 283.944 Z" fill="#000000" fill-rule="nonzero" fill-opacity="1"></path><path clip-path="url(#clip040)" d="M1346.48 258.342 Q1342.87 258.342 1341.04 261.907 Q1339.23 265.448 1339.23 272.578 Q1339.23 279.684 1341.04 283.249 Q1342.87 286.791 1346.48 286.791 Q1350.11 286.791 1351.92 283.249 Q1353.75 279.684 1353.75 272.578 Q1353.75 265.448 1351.92 261.907 Q1350.11 258.342 1346.48 258.342 M1346.48 254.638 Q1352.29 254.638 1355.34 259.245 Q1358.42 263.828 1358.42 272.578 Q1358.42 281.305 1355.34 285.911 Q1352.29 290.494 1346.48 290.494 Q1340.67 290.494 1337.59 285.911 Q1334.53 281.305 1334.53 272.578 Q1334.53 263.828 1337.59 259.245 Q1340.67 254.638 1346.48 254.638 Z" fill="#000000" fill-rule="nonzero" fill-opacity="1"></path><path clip-path="url(#clip040)" d="M1302.84 130.491 Q1299.23 130.491 1297.4 134.055 Q1295.6 137.597 1295.6 144.727 Q1295.6 151.833 1297.4 155.398 Q1299.23 158.939 1302.84 158.939 Q1306.48 158.939 1308.28 155.398 Q1310.11 151.833 1310.11 144.727 Q1310.11 137.597 1308.28 134.055 Q1306.48 130.491 1302.84 130.491 M1302.84 126.787 Q1308.65 126.787 1311.71 131.393 Q1314.79 135.977 1314.79 144.727 Q1314.79 153.453 1311.71 158.06 Q1308.65 162.643 1302.84 162.643 Q1297.03 162.643 1293.95 158.06 Q1290.9 153.453 1290.9 144.727 Q1290.9 135.977 1293.95 131.393 Q1297.03 126.787 1302.84 126.787 Z" fill="#000000" fill-rule="nonzero" fill-opacity="1"></path><path clip-path="url(#clip040)" d="M1323.01 156.092 L1327.89 156.092 L1327.89 161.972 L1323.01 161.972 L1323.01 156.092 Z" fill="#000000" fill-rule="nonzero" fill-opacity="1"></path><path clip-path="url(#clip040)" d="M1342.1 158.037 L1358.42 158.037 L1358.42 161.972 L1336.48 161.972 L1336.48 158.037 Q1339.14 155.282 1343.72 150.652 Q1348.33 146 1349.51 144.657 Q1351.76 142.134 1352.64 140.398 Q1353.54 138.639 1353.54 136.949 Q1353.54 134.194 1351.59 132.458 Q1349.67 130.722 1346.57 130.722 Q1344.37 130.722 1341.92 131.486 Q1339.49 132.25 1336.71 133.801 L1336.71 129.079 Q1339.53 127.944 1341.99 127.366 Q1344.44 126.787 1346.48 126.787 Q1351.85 126.787 1355.04 129.472 Q1358.24 132.157 1358.24 136.648 Q1358.24 138.778 1357.43 140.699 Q1356.64 142.597 1354.53 145.19 Q1353.95 145.861 1350.85 149.078 Q1347.75 152.273 1342.1 158.037 Z" fill="#000000" fill-rule="nonzero" fill-opacity="1"></path><path clip-path="url(#clip040)" d="M1685.99 63.9476 L1685.99 47.7034 L1672.62 47.7034 L1672.62 40.9789 L1694.09 40.9789 L1694.09 66.9452 Q1689.35 70.3075 1683.64 72.0494 Q1677.93 73.7508 1671.45 73.7508 Q1657.27 73.7508 1649.25 65.4869 Q1641.27 57.1826 1641.27 42.3968 Q1641.27 27.5705 1649.25 19.3066 Q1657.27 11.0023 1671.45 11.0023 Q1677.36 11.0023 1682.67 12.4606 Q1688.02 13.9189 1692.51 16.7545 L1692.51 25.464 Q1687.98 21.6156 1682.87 19.6712 Q1677.77 17.7268 1672.14 17.7268 Q1661.04 17.7268 1655.45 23.9246 Q1649.9 30.1225 1649.9 42.3968 Q1649.9 54.6305 1655.45 60.8284 Q1661.04 67.0263 1672.14 67.0263 Q1676.47 67.0263 1679.87 66.2971 Q1683.28 65.5274 1685.99 63.9476 Z" fill="#000000" fill-rule="nonzero" fill-opacity="1"></path><path clip-path="url(#clip040)" d="M1697.7 12.096 L1748.86 12.096 L1748.86 18.9825 L1727.39 18.9825 L1727.39 72.576 L1719.17 72.576 L1719.17 18.9825 L1697.7 18.9825 L1697.7 12.096 Z" fill="#000000" fill-rule="nonzero" fill-opacity="1"></path><path clip-path="url(#clip040)" d="M1819.39 14.0809 L1819.39 22.0612 Q1814.73 19.8332 1810.6 18.7395 Q1806.47 17.6457 1802.62 17.6457 Q1795.93 17.6457 1792.29 20.2383 Q1788.68 22.8309 1788.68 27.611 Q1788.68 31.6214 1791.07 33.6873 Q1793.5 35.7128 1800.23 36.9686 L1805.17 37.9813 Q1814.32 39.7232 1818.66 44.1387 Q1823.03 48.5136 1823.03 55.8863 Q1823.03 64.6767 1817.12 69.2137 Q1811.25 73.7508 1799.86 73.7508 Q1795.57 73.7508 1790.71 72.7785 Q1785.89 71.8063 1780.7 69.9024 L1780.7 61.4765 Q1785.68 64.2716 1790.46 65.6895 Q1795.24 67.1073 1799.86 67.1073 Q1806.87 67.1073 1810.68 64.3527 Q1814.49 61.598 1814.49 56.4939 Q1814.49 52.0379 1811.73 49.5264 Q1809.02 47.0148 1802.78 45.759 L1797.8 44.7868 Q1788.64 42.9639 1784.55 39.075 Q1780.46 35.1862 1780.46 28.2591 Q1780.46 20.2383 1786.09 15.6203 Q1791.76 11.0023 1801.69 11.0023 Q1805.94 11.0023 1810.35 11.7719 Q1814.77 12.5416 1819.39 14.0809 Z" fill="#000000" fill-rule="nonzero" fill-opacity="1"></path><path clip-path="url(#clip040)" d="M1853.05 32.4315 Q1847.06 32.4315 1843.57 37.1306 Q1840.09 41.7891 1840.09 49.9314 Q1840.09 58.0738 1843.53 62.7728 Q1847.02 67.4314 1853.05 67.4314 Q1859.01 67.4314 1862.49 62.7323 Q1865.97 58.0333 1865.97 49.9314 Q1865.97 41.8701 1862.49 37.1711 Q1859.01 32.4315 1853.05 32.4315 M1853.05 26.1121 Q1862.77 26.1121 1868.32 32.4315 Q1873.87 38.7509 1873.87 49.9314 Q1873.87 61.0714 1868.32 67.4314 Q1862.77 73.7508 1853.05 73.7508 Q1843.29 73.7508 1837.74 67.4314 Q1832.23 61.0714 1832.23 49.9314 Q1832.23 38.7509 1837.74 32.4315 Q1843.29 26.1121 1853.05 26.1121 Z" fill="#000000" fill-rule="nonzero" fill-opacity="1"></path><path clip-path="url(#clip040)" d="M1886.23 9.54393 L1893.68 9.54393 L1893.68 72.576 L1886.23 72.576 L1886.23 9.54393 Z" fill="#000000" fill-rule="nonzero" fill-opacity="1"></path><path clip-path="url(#clip040)" d="M1908.51 54.671 L1908.51 27.2059 L1915.96 27.2059 L1915.96 54.3874 Q1915.96 60.8284 1918.47 64.0691 Q1920.98 67.2693 1926.01 67.2693 Q1932.04 67.2693 1935.53 63.421 Q1939.05 59.5726 1939.05 52.9291 L1939.05 27.2059 L1946.51 27.2059 L1946.51 72.576 L1939.05 72.576 L1939.05 65.6084 Q1936.34 69.7404 1932.73 71.7658 Q1929.17 73.7508 1924.43 73.7508 Q1916.61 73.7508 1912.56 68.8897 Q1908.51 64.0286 1908.51 54.671 M1927.26 26.1121 L1927.26 26.1121 Z" fill="#000000" fill-rule="nonzero" fill-opacity="1"></path><path clip-path="url(#clip040)" d="M1969.23 14.324 L1969.23 27.2059 L1984.58 27.2059 L1984.58 32.9987 L1969.23 32.9987 L1969.23 57.6282 Q1969.23 63.1779 1970.73 64.7578 Q1972.27 66.3376 1976.93 66.3376 L1984.58 66.3376 L1984.58 72.576 L1976.93 72.576 Q1968.3 72.576 1965.02 69.3758 Q1961.74 66.1351 1961.74 57.6282 L1961.74 32.9987 L1956.27 32.9987 L1956.27 27.2059 L1961.74 27.2059 L1961.74 14.324 L1969.23 14.324 Z" fill="#000000" fill-rule="nonzero" fill-opacity="1"></path><path clip-path="url(#clip040)" d="M1994.39 27.2059 L2001.84 27.2059 L2001.84 72.576 L1994.39 72.576 L1994.39 27.2059 M1994.39 9.54393 L2001.84 9.54393 L2001.84 18.9825 L1994.39 18.9825 L1994.39 9.54393 Z" fill="#000000" fill-rule="nonzero" fill-opacity="1"></path><path clip-path="url(#clip040)" d="M2035.02 32.4315 Q2029.02 32.4315 2025.54 37.1306 Q2022.05 41.7891 2022.05 49.9314 Q2022.05 58.0738 2025.5 62.7728 Q2028.98 67.4314 2035.02 67.4314 Q2040.97 67.4314 2044.46 62.7323 Q2047.94 58.0333 2047.94 49.9314 Q2047.94 41.8701 2044.46 37.1711 Q2040.97 32.4315 2035.02 32.4315 M2035.02 26.1121 Q2044.74 26.1121 2050.29 32.4315 Q2055.84 38.7509 2055.84 49.9314 Q2055.84 61.0714 2050.29 67.4314 Q2044.74 73.7508 2035.02 73.7508 Q2025.25 73.7508 2019.71 67.4314 Q2014.2 61.0714 2014.2 49.9314 Q2014.2 38.7509 2019.71 32.4315 Q2025.25 26.1121 2035.02 26.1121 Z" fill="#000000" fill-rule="nonzero" fill-opacity="1"></path><path clip-path="url(#clip040)" d="M2105.91 45.1919 L2105.91 72.576 L2098.45 72.576 L2098.45 45.4349 Q2098.45 38.994 2095.94 35.7938 Q2093.43 32.5936 2088.41 32.5936 Q2082.37 32.5936 2078.89 36.4419 Q2075.41 40.2903 2075.41 46.9338 L2075.41 72.576 L2067.91 72.576 L2067.91 27.2059 L2075.41 27.2059 L2075.41 34.2544 Q2078.08 30.163 2081.68 28.1376 Q2085.33 26.1121 2090.07 26.1121 Q2097.89 26.1121 2101.9 30.9732 Q2105.91 35.7938 2105.91 45.1919 Z" fill="#000000" fill-rule="nonzero" fill-opacity="1"></path><polyline clip-path="url(#clip043)" style="stroke:#009af9; stroke-linecap:round; stroke-linejoin:round; stroke-width:4; stroke-opacity:1; fill:none" points="1421.54,272.543 1450.71,249.295 1479.87,227.257 1509.04,206.84 1538.2,188.449 1567.37,172.472 1596.53,159.273 1625.69,149.18 1654.86,142.478 1684.02,139.405 1713.19,140.14 1742.35,144.797 1771.51,153.423 1800.68,165.997 1829.84,182.421 1859.01,202.526 1888.17,226.069 1917.34,252.737 1946.5,282.154 1975.66,313.883 2004.83,347.432 2033.99,382.263 2063.16,417.8 2092.32,453.45 2121.48,488.595 2150.65,522.617 2179.81,554.894 2208.98,584.827 2238.14,611.857 2267.3,635.46 2296.47,655.151 2325.63,670.515 "></polyline>
<path clip-path="url(#clip040)" d="M2172.55 245.918 L2320.81 245.918 L2320.81 142.238 L2172.55 142.238  Z" fill="#ffffff" fill-rule="evenodd" fill-opacity="1"></path>
<polyline clip-path="url(#clip040)" style="stroke:#000000; stroke-linecap:round; stroke-linejoin:round; stroke-width:4; stroke-opacity:1; fill:none" points="2172.55,245.918 2320.81,245.918 2320.81,142.238 2172.55,142.238 2172.55,245.918 "></polyline>
<polyline clip-path="url(#clip040)" style="stroke:#009af9; stroke-linecap:round; stroke-linejoin:round; stroke-width:4; stroke-opacity:1; fill:none" points="2183.2,194.078 2247.08,194.078 "></polyline>
<path clip-path="url(#clip040)" d="M2271.58 213.765 Q2269.77 218.395 2268.06 219.807 Q2266.34 221.219 2263.47 221.219 L2260.07 221.219 L2260.07 217.654 L2262.57 217.654 Q2264.33 217.654 2265.3 216.821 Q2266.27 215.988 2267.46 212.886 L2268.22 210.941 L2257.73 185.432 L2262.25 185.432 L2270.35 205.71 L2278.45 185.432 L2282.96 185.432 L2271.58 213.765 Z" fill="#000000" fill-rule="nonzero" fill-opacity="1"></path><path clip-path="url(#clip040)" d="M2290.26 207.423 L2297.89 207.423 L2297.89 181.057 L2289.58 182.724 L2289.58 178.465 L2297.85 176.798 L2302.52 176.798 L2302.52 207.423 L2310.16 207.423 L2310.16 211.358 L2290.26 211.358 L2290.26 207.423 Z" fill="#000000" fill-rule="nonzero" fill-opacity="1"></path><path clip-path="url(#clip040)" d="M194.422 1486.45 L1152.76 1486.45 L1152.76 923.472 L194.422 923.472  Z" fill="#ffffff" fill-rule="evenodd" fill-opacity="1"></path>
<defs>
  <clipPath id="clip044">
    <rect x="194" y="923" width="959" height="564"></rect>
  </clipPath>
</defs>
<polyline clip-path="url(#clip044)" style="stroke:#000000; stroke-linecap:round; stroke-linejoin:round; stroke-width:2; stroke-opacity:0.1; fill:none" points="221.545,1486.45 221.545,923.472 "></polyline>
<polyline clip-path="url(#clip044)" style="stroke:#000000; stroke-linecap:round; stroke-linejoin:round; stroke-width:2; stroke-opacity:0.1; fill:none" points="447.567,1486.45 447.567,923.472 "></polyline>
<polyline clip-path="url(#clip044)" style="stroke:#000000; stroke-linecap:round; stroke-linejoin:round; stroke-width:2; stroke-opacity:0.1; fill:none" points="673.589,1486.45 673.589,923.472 "></polyline>
<polyline clip-path="url(#clip044)" style="stroke:#000000; stroke-linecap:round; stroke-linejoin:round; stroke-width:2; stroke-opacity:0.1; fill:none" points="899.611,1486.45 899.611,923.472 "></polyline>
<polyline clip-path="url(#clip044)" style="stroke:#000000; stroke-linecap:round; stroke-linejoin:round; stroke-width:2; stroke-opacity:0.1; fill:none" points="1125.63,1486.45 1125.63,923.472 "></polyline>
<polyline clip-path="url(#clip040)" style="stroke:#000000; stroke-linecap:round; stroke-linejoin:round; stroke-width:4; stroke-opacity:1; fill:none" points="194.422,1486.45 1152.76,1486.45 "></polyline>
<polyline clip-path="url(#clip040)" style="stroke:#000000; stroke-linecap:round; stroke-linejoin:round; stroke-width:4; stroke-opacity:1; fill:none" points="221.545,1486.45 221.545,1467.55 "></polyline>
<polyline clip-path="url(#clip040)" style="stroke:#000000; stroke-linecap:round; stroke-linejoin:round; stroke-width:4; stroke-opacity:1; fill:none" points="447.567,1486.45 447.567,1467.55 "></polyline>
<polyline clip-path="url(#clip040)" style="stroke:#000000; stroke-linecap:round; stroke-linejoin:round; stroke-width:4; stroke-opacity:1; fill:none" points="673.589,1486.45 673.589,1467.55 "></polyline>
<polyline clip-path="url(#clip040)" style="stroke:#000000; stroke-linecap:round; stroke-linejoin:round; stroke-width:4; stroke-opacity:1; fill:none" points="899.611,1486.45 899.611,1467.55 "></polyline>
<polyline clip-path="url(#clip040)" style="stroke:#000000; stroke-linecap:round; stroke-linejoin:round; stroke-width:4; stroke-opacity:1; fill:none" points="1125.63,1486.45 1125.63,1467.55 "></polyline>
<path clip-path="url(#clip040)" d="M183.848 1517.37 Q180.237 1517.37 178.408 1520.93 Q176.603 1524.47 176.603 1531.6 Q176.603 1538.71 178.408 1542.27 Q180.237 1545.82 183.848 1545.82 Q187.482 1545.82 189.288 1542.27 Q191.117 1538.71 191.117 1531.6 Q191.117 1524.47 189.288 1520.93 Q187.482 1517.37 183.848 1517.37 M183.848 1513.66 Q189.658 1513.66 192.714 1518.27 Q195.793 1522.85 195.793 1531.6 Q195.793 1540.33 192.714 1544.94 Q189.658 1549.52 183.848 1549.52 Q178.038 1549.52 174.959 1544.94 Q171.904 1540.33 171.904 1531.6 Q171.904 1522.85 174.959 1518.27 Q178.038 1513.66 183.848 1513.66 Z" fill="#000000" fill-rule="nonzero" fill-opacity="1"></path><path clip-path="url(#clip040)" d="M204.01 1542.97 L208.894 1542.97 L208.894 1548.85 L204.01 1548.85 L204.01 1542.97 Z" fill="#000000" fill-rule="nonzero" fill-opacity="1"></path><path clip-path="url(#clip040)" d="M229.079 1517.37 Q225.468 1517.37 223.64 1520.93 Q221.834 1524.47 221.834 1531.6 Q221.834 1538.71 223.64 1542.27 Q225.468 1545.82 229.079 1545.82 Q232.714 1545.82 234.519 1542.27 Q236.348 1538.71 236.348 1531.6 Q236.348 1524.47 234.519 1520.93 Q232.714 1517.37 229.079 1517.37 M229.079 1513.66 Q234.89 1513.66 237.945 1518.27 Q241.024 1522.85 241.024 1531.6 Q241.024 1540.33 237.945 1544.94 Q234.89 1549.52 229.079 1549.52 Q223.269 1549.52 220.191 1544.94 Q217.135 1540.33 217.135 1531.6 Q217.135 1522.85 220.191 1518.27 Q223.269 1513.66 229.079 1513.66 Z" fill="#000000" fill-rule="nonzero" fill-opacity="1"></path><path clip-path="url(#clip040)" d="M259.241 1517.37 Q255.63 1517.37 253.802 1520.93 Q251.996 1524.47 251.996 1531.6 Q251.996 1538.71 253.802 1542.27 Q255.63 1545.82 259.241 1545.82 Q262.876 1545.82 264.681 1542.27 Q266.51 1538.71 266.51 1531.6 Q266.51 1524.47 264.681 1520.93 Q262.876 1517.37 259.241 1517.37 M259.241 1513.66 Q265.051 1513.66 268.107 1518.27 Q271.186 1522.85 271.186 1531.6 Q271.186 1540.33 268.107 1544.94 Q265.051 1549.52 259.241 1549.52 Q253.431 1549.52 250.352 1544.94 Q247.297 1540.33 247.297 1531.6 Q247.297 1522.85 250.352 1518.27 Q253.431 1513.66 259.241 1513.66 Z" fill="#000000" fill-rule="nonzero" fill-opacity="1"></path><path clip-path="url(#clip040)" d="M410.368 1517.37 Q406.757 1517.37 404.928 1520.93 Q403.123 1524.47 403.123 1531.6 Q403.123 1538.71 404.928 1542.27 Q406.757 1545.82 410.368 1545.82 Q414.002 1545.82 415.808 1542.27 Q417.636 1538.71 417.636 1531.6 Q417.636 1524.47 415.808 1520.93 Q414.002 1517.37 410.368 1517.37 M410.368 1513.66 Q416.178 1513.66 419.234 1518.27 Q422.312 1522.85 422.312 1531.6 Q422.312 1540.33 419.234 1544.94 Q416.178 1549.52 410.368 1549.52 Q404.558 1549.52 401.479 1544.94 Q398.424 1540.33 398.424 1531.6 Q398.424 1522.85 401.479 1518.27 Q404.558 1513.66 410.368 1513.66 Z" fill="#000000" fill-rule="nonzero" fill-opacity="1"></path><path clip-path="url(#clip040)" d="M430.53 1542.97 L435.414 1542.97 L435.414 1548.85 L430.53 1548.85 L430.53 1542.97 Z" fill="#000000" fill-rule="nonzero" fill-opacity="1"></path><path clip-path="url(#clip040)" d="M449.627 1544.91 L465.946 1544.91 L465.946 1548.85 L444.002 1548.85 L444.002 1544.91 Q446.664 1542.16 451.247 1537.53 Q455.854 1532.88 457.034 1531.53 Q459.28 1529.01 460.159 1527.27 Q461.062 1525.51 461.062 1523.82 Q461.062 1521.07 459.118 1519.33 Q457.196 1517.6 454.095 1517.6 Q451.896 1517.6 449.442 1518.36 Q447.011 1519.13 444.234 1520.68 L444.234 1515.95 Q447.058 1514.82 449.511 1514.24 Q451.965 1513.66 454.002 1513.66 Q459.372 1513.66 462.567 1516.35 Q465.761 1519.03 465.761 1523.52 Q465.761 1525.65 464.951 1527.57 Q464.164 1529.47 462.058 1532.07 Q461.479 1532.74 458.377 1535.95 Q455.275 1539.15 449.627 1544.91 Z" fill="#000000" fill-rule="nonzero" fill-opacity="1"></path><path clip-path="url(#clip040)" d="M475.807 1514.29 L494.164 1514.29 L494.164 1518.22 L480.09 1518.22 L480.09 1526.7 Q481.108 1526.35 482.127 1526.19 Q483.145 1526 484.164 1526 Q489.951 1526 493.331 1529.17 Q496.71 1532.34 496.71 1537.76 Q496.71 1543.34 493.238 1546.44 Q489.766 1549.52 483.446 1549.52 Q481.27 1549.52 479.002 1549.15 Q476.757 1548.78 474.349 1548.04 L474.349 1543.34 Q476.432 1544.47 478.655 1545.03 Q480.877 1545.58 483.354 1545.58 Q487.358 1545.58 489.696 1543.48 Q492.034 1541.37 492.034 1537.76 Q492.034 1534.15 489.696 1532.04 Q487.358 1529.94 483.354 1529.94 Q481.479 1529.94 479.604 1530.35 Q477.752 1530.77 475.807 1531.65 L475.807 1514.29 Z" fill="#000000" fill-rule="nonzero" fill-opacity="1"></path><path clip-path="url(#clip040)" d="M635.892 1517.37 Q632.281 1517.37 630.453 1520.93 Q628.647 1524.47 628.647 1531.6 Q628.647 1538.71 630.453 1542.27 Q632.281 1545.82 635.892 1545.82 Q639.527 1545.82 641.332 1542.27 Q643.161 1538.71 643.161 1531.6 Q643.161 1524.47 641.332 1520.93 Q639.527 1517.37 635.892 1517.37 M635.892 1513.66 Q641.703 1513.66 644.758 1518.27 Q647.837 1522.85 647.837 1531.6 Q647.837 1540.33 644.758 1544.94 Q641.703 1549.52 635.892 1549.52 Q630.082 1549.52 627.004 1544.94 Q623.948 1540.33 623.948 1531.6 Q623.948 1522.85 627.004 1518.27 Q630.082 1513.66 635.892 1513.66 Z" fill="#000000" fill-rule="nonzero" fill-opacity="1"></path><path clip-path="url(#clip040)" d="M656.054 1542.97 L660.939 1542.97 L660.939 1548.85 L656.054 1548.85 L656.054 1542.97 Z" fill="#000000" fill-rule="nonzero" fill-opacity="1"></path><path clip-path="url(#clip040)" d="M671.17 1514.29 L689.526 1514.29 L689.526 1518.22 L675.452 1518.22 L675.452 1526.7 Q676.471 1526.35 677.489 1526.19 Q678.508 1526 679.526 1526 Q685.313 1526 688.693 1529.17 Q692.073 1532.34 692.073 1537.76 Q692.073 1543.34 688.6 1546.44 Q685.128 1549.52 678.809 1549.52 Q676.633 1549.52 674.364 1549.15 Q672.119 1548.78 669.712 1548.04 L669.712 1543.34 Q671.795 1544.47 674.017 1545.03 Q676.239 1545.58 678.716 1545.58 Q682.721 1545.58 685.059 1543.48 Q687.397 1541.37 687.397 1537.76 Q687.397 1534.15 685.059 1532.04 Q682.721 1529.94 678.716 1529.94 Q676.841 1529.94 674.966 1530.35 Q673.114 1530.77 671.17 1531.65 L671.17 1514.29 Z" fill="#000000" fill-rule="nonzero" fill-opacity="1"></path><path clip-path="url(#clip040)" d="M711.286 1517.37 Q707.674 1517.37 705.846 1520.93 Q704.04 1524.47 704.04 1531.6 Q704.04 1538.71 705.846 1542.27 Q707.674 1545.82 711.286 1545.82 Q714.92 1545.82 716.725 1542.27 Q718.554 1538.71 718.554 1531.6 Q718.554 1524.47 716.725 1520.93 Q714.92 1517.37 711.286 1517.37 M711.286 1513.66 Q717.096 1513.66 720.151 1518.27 Q723.23 1522.85 723.23 1531.6 Q723.23 1540.33 720.151 1544.94 Q717.096 1549.52 711.286 1549.52 Q705.475 1549.52 702.397 1544.94 Q699.341 1540.33 699.341 1531.6 Q699.341 1522.85 702.397 1518.27 Q705.475 1513.66 711.286 1513.66 Z" fill="#000000" fill-rule="nonzero" fill-opacity="1"></path><path clip-path="url(#clip040)" d="M862.412 1517.37 Q858.801 1517.37 856.972 1520.93 Q855.167 1524.47 855.167 1531.6 Q855.167 1538.71 856.972 1542.27 Q858.801 1545.82 862.412 1545.82 Q866.046 1545.82 867.852 1542.27 Q869.681 1538.71 869.681 1531.6 Q869.681 1524.47 867.852 1520.93 Q866.046 1517.37 862.412 1517.37 M862.412 1513.66 Q868.222 1513.66 871.278 1518.27 Q874.357 1522.85 874.357 1531.6 Q874.357 1540.33 871.278 1544.94 Q868.222 1549.52 862.412 1549.52 Q856.602 1549.52 853.523 1544.94 Q850.468 1540.33 850.468 1531.6 Q850.468 1522.85 853.523 1518.27 Q856.602 1513.66 862.412 1513.66 Z" fill="#000000" fill-rule="nonzero" fill-opacity="1"></path><path clip-path="url(#clip040)" d="M882.574 1542.97 L887.458 1542.97 L887.458 1548.85 L882.574 1548.85 L882.574 1542.97 Z" fill="#000000" fill-rule="nonzero" fill-opacity="1"></path><path clip-path="url(#clip040)" d="M896.463 1514.29 L918.685 1514.29 L918.685 1516.28 L906.139 1548.85 L901.255 1548.85 L913.06 1518.22 L896.463 1518.22 L896.463 1514.29 Z" fill="#000000" fill-rule="nonzero" fill-opacity="1"></path><path clip-path="url(#clip040)" d="M927.852 1514.29 L946.208 1514.29 L946.208 1518.22 L932.134 1518.22 L932.134 1526.7 Q933.153 1526.35 934.171 1526.19 Q935.19 1526 936.208 1526 Q941.995 1526 945.375 1529.17 Q948.754 1532.34 948.754 1537.76 Q948.754 1543.34 945.282 1546.44 Q941.81 1549.52 935.491 1549.52 Q933.315 1549.52 931.046 1549.15 Q928.801 1548.78 926.393 1548.04 L926.393 1543.34 Q928.477 1544.47 930.699 1545.03 Q932.921 1545.58 935.398 1545.58 Q939.403 1545.58 941.741 1543.48 Q944.078 1541.37 944.078 1537.76 Q944.078 1534.15 941.741 1532.04 Q939.403 1529.94 935.398 1529.94 Q933.523 1529.94 931.648 1530.35 Q929.796 1530.77 927.852 1531.65 L927.852 1514.29 Z" fill="#000000" fill-rule="nonzero" fill-opacity="1"></path><path clip-path="url(#clip040)" d="M1077.71 1544.91 L1085.34 1544.91 L1085.34 1518.55 L1077.03 1520.21 L1077.03 1515.95 L1085.3 1514.29 L1089.97 1514.29 L1089.97 1544.91 L1097.61 1544.91 L1097.61 1548.85 L1077.71 1548.85 L1077.71 1544.91 Z" fill="#000000" fill-rule="nonzero" fill-opacity="1"></path><path clip-path="url(#clip040)" d="M1107.06 1542.97 L1111.94 1542.97 L1111.94 1548.85 L1107.06 1548.85 L1107.06 1542.97 Z" fill="#000000" fill-rule="nonzero" fill-opacity="1"></path><path clip-path="url(#clip040)" d="M1132.13 1517.37 Q1128.52 1517.37 1126.69 1520.93 Q1124.88 1524.47 1124.88 1531.6 Q1124.88 1538.71 1126.69 1542.27 Q1128.52 1545.82 1132.13 1545.82 Q1135.76 1545.82 1137.57 1542.27 Q1139.39 1538.71 1139.39 1531.6 Q1139.39 1524.47 1137.57 1520.93 Q1135.76 1517.37 1132.13 1517.37 M1132.13 1513.66 Q1137.94 1513.66 1140.99 1518.27 Q1144.07 1522.85 1144.07 1531.6 Q1144.07 1540.33 1140.99 1544.94 Q1137.94 1549.52 1132.13 1549.52 Q1126.32 1549.52 1123.24 1544.94 Q1120.18 1540.33 1120.18 1531.6 Q1120.18 1522.85 1123.24 1518.27 Q1126.32 1513.66 1132.13 1513.66 Z" fill="#000000" fill-rule="nonzero" fill-opacity="1"></path><path clip-path="url(#clip040)" d="M1162.29 1517.37 Q1158.68 1517.37 1156.85 1520.93 Q1155.04 1524.47 1155.04 1531.6 Q1155.04 1538.71 1156.85 1542.27 Q1158.68 1545.82 1162.29 1545.82 Q1165.92 1545.82 1167.73 1542.27 Q1169.56 1538.71 1169.56 1531.6 Q1169.56 1524.47 1167.73 1520.93 Q1165.92 1517.37 1162.29 1517.37 M1162.29 1513.66 Q1168.1 1513.66 1171.15 1518.27 Q1174.23 1522.85 1174.23 1531.6 Q1174.23 1540.33 1171.15 1544.94 Q1168.1 1549.52 1162.29 1549.52 Q1156.48 1549.52 1153.4 1544.94 Q1150.34 1540.33 1150.34 1531.6 Q1150.34 1522.85 1153.4 1518.27 Q1156.48 1513.66 1162.29 1513.66 Z" fill="#000000" fill-rule="nonzero" fill-opacity="1"></path><polyline clip-path="url(#clip044)" style="stroke:#000000; stroke-linecap:round; stroke-linejoin:round; stroke-width:2; stroke-opacity:0.1; fill:none" points="194.422,1437.51 1152.76,1437.51 "></polyline>
<polyline clip-path="url(#clip044)" style="stroke:#000000; stroke-linecap:round; stroke-linejoin:round; stroke-width:2; stroke-opacity:0.1; fill:none" points="194.422,1323.51 1152.76,1323.51 "></polyline>
<polyline clip-path="url(#clip044)" style="stroke:#000000; stroke-linecap:round; stroke-linejoin:round; stroke-width:2; stroke-opacity:0.1; fill:none" points="194.422,1209.5 1152.76,1209.5 "></polyline>
<polyline clip-path="url(#clip044)" style="stroke:#000000; stroke-linecap:round; stroke-linejoin:round; stroke-width:2; stroke-opacity:0.1; fill:none" points="194.422,1095.5 1152.76,1095.5 "></polyline>
<polyline clip-path="url(#clip044)" style="stroke:#000000; stroke-linecap:round; stroke-linejoin:round; stroke-width:2; stroke-opacity:0.1; fill:none" points="194.422,981.494 1152.76,981.494 "></polyline>
<polyline clip-path="url(#clip040)" style="stroke:#000000; stroke-linecap:round; stroke-linejoin:round; stroke-width:4; stroke-opacity:1; fill:none" points="194.422,1486.45 194.422,923.472 "></polyline>
<polyline clip-path="url(#clip040)" style="stroke:#000000; stroke-linecap:round; stroke-linejoin:round; stroke-width:4; stroke-opacity:1; fill:none" points="194.422,1437.51 213.32,1437.51 "></polyline>
<polyline clip-path="url(#clip040)" style="stroke:#000000; stroke-linecap:round; stroke-linejoin:round; stroke-width:4; stroke-opacity:1; fill:none" points="194.422,1323.51 213.32,1323.51 "></polyline>
<polyline clip-path="url(#clip040)" style="stroke:#000000; stroke-linecap:round; stroke-linejoin:round; stroke-width:4; stroke-opacity:1; fill:none" points="194.422,1209.5 213.32,1209.5 "></polyline>
<polyline clip-path="url(#clip040)" style="stroke:#000000; stroke-linecap:round; stroke-linejoin:round; stroke-width:4; stroke-opacity:1; fill:none" points="194.422,1095.5 213.32,1095.5 "></polyline>
<polyline clip-path="url(#clip040)" style="stroke:#000000; stroke-linecap:round; stroke-linejoin:round; stroke-width:4; stroke-opacity:1; fill:none" points="194.422,981.494 213.32,981.494 "></polyline>
<path clip-path="url(#clip040)" d="M51.3162 1437.96 L80.992 1437.96 L80.992 1441.9 L51.3162 1441.9 L51.3162 1437.96 Z" fill="#000000" fill-rule="nonzero" fill-opacity="1"></path><path clip-path="url(#clip040)" d="M101.084 1423.31 Q97.4734 1423.31 95.6447 1426.87 Q93.8391 1430.42 93.8391 1437.55 Q93.8391 1444.65 95.6447 1448.22 Q97.4734 1451.76 101.084 1451.76 Q104.719 1451.76 106.524 1448.22 Q108.353 1444.65 108.353 1437.55 Q108.353 1430.42 106.524 1426.87 Q104.719 1423.31 101.084 1423.31 M101.084 1419.61 Q106.895 1419.61 109.95 1424.21 Q113.029 1428.8 113.029 1437.55 Q113.029 1446.27 109.95 1450.88 Q106.895 1455.46 101.084 1455.46 Q95.2743 1455.46 92.1956 1450.88 Q89.1401 1446.27 89.1401 1437.55 Q89.1401 1428.8 92.1956 1424.21 Q95.2743 1419.61 101.084 1419.61 Z" fill="#000000" fill-rule="nonzero" fill-opacity="1"></path><path clip-path="url(#clip040)" d="M121.246 1448.91 L126.131 1448.91 L126.131 1454.79 L121.246 1454.79 L121.246 1448.91 Z" fill="#000000" fill-rule="nonzero" fill-opacity="1"></path><path clip-path="url(#clip040)" d="M146.894 1435.65 Q143.746 1435.65 141.894 1437.8 Q140.066 1439.95 140.066 1443.7 Q140.066 1447.43 141.894 1449.61 Q143.746 1451.76 146.894 1451.76 Q150.043 1451.76 151.871 1449.61 Q153.723 1447.43 153.723 1443.7 Q153.723 1439.95 151.871 1437.8 Q150.043 1435.65 146.894 1435.65 M156.177 1421 L156.177 1425.25 Q154.417 1424.42 152.612 1423.98 Q150.83 1423.54 149.07 1423.54 Q144.441 1423.54 141.987 1426.67 Q139.556 1429.79 139.209 1436.11 Q140.575 1434.1 142.635 1433.03 Q144.695 1431.94 147.172 1431.94 Q152.38 1431.94 155.39 1435.12 Q158.422 1438.26 158.422 1443.7 Q158.422 1449.03 155.274 1452.25 Q152.126 1455.46 146.894 1455.46 Q140.899 1455.46 137.728 1450.88 Q134.556 1446.27 134.556 1437.55 Q134.556 1429.35 138.445 1424.49 Q142.334 1419.61 148.885 1419.61 Q150.644 1419.61 152.427 1419.95 Q154.232 1420.3 156.177 1421 Z" fill="#000000" fill-rule="nonzero" fill-opacity="1"></path><path clip-path="url(#clip040)" d="M50.9921 1323.96 L80.6679 1323.96 L80.6679 1327.89 L50.9921 1327.89 L50.9921 1323.96 Z" fill="#000000" fill-rule="nonzero" fill-opacity="1"></path><path clip-path="url(#clip040)" d="M100.76 1309.31 Q97.1493 1309.31 95.3206 1312.87 Q93.515 1316.41 93.515 1323.54 Q93.515 1330.65 95.3206 1334.21 Q97.1493 1337.75 100.76 1337.75 Q104.395 1337.75 106.2 1334.21 Q108.029 1330.65 108.029 1323.54 Q108.029 1316.41 106.2 1312.87 Q104.395 1309.31 100.76 1309.31 M100.76 1305.6 Q106.571 1305.6 109.626 1310.21 Q112.705 1314.79 112.705 1323.54 Q112.705 1332.27 109.626 1336.87 Q106.571 1341.46 100.76 1341.46 Q94.9502 1341.46 91.8715 1336.87 Q88.816 1332.27 88.816 1323.54 Q88.816 1314.79 91.8715 1310.21 Q94.9502 1305.6 100.76 1305.6 Z" fill="#000000" fill-rule="nonzero" fill-opacity="1"></path><path clip-path="url(#clip040)" d="M120.922 1334.91 L125.807 1334.91 L125.807 1340.79 L120.922 1340.79 L120.922 1334.91 Z" fill="#000000" fill-rule="nonzero" fill-opacity="1"></path><path clip-path="url(#clip040)" d="M148.839 1310.3 L137.033 1328.75 L148.839 1328.75 L148.839 1310.3 M147.612 1306.23 L153.492 1306.23 L153.492 1328.75 L158.422 1328.75 L158.422 1332.64 L153.492 1332.64 L153.492 1340.79 L148.839 1340.79 L148.839 1332.64 L133.237 1332.64 L133.237 1328.13 L147.612 1306.23 Z" fill="#000000" fill-rule="nonzero" fill-opacity="1"></path><path clip-path="url(#clip040)" d="M53.0754 1209.95 L82.7512 1209.95 L82.7512 1213.89 L53.0754 1213.89 L53.0754 1209.95 Z" fill="#000000" fill-rule="nonzero" fill-opacity="1"></path><path clip-path="url(#clip040)" d="M102.844 1195.3 Q99.2326 1195.3 97.4039 1198.87 Q95.5984 1202.41 95.5984 1209.54 Q95.5984 1216.64 97.4039 1220.21 Q99.2326 1223.75 102.844 1223.75 Q106.478 1223.75 108.283 1220.21 Q110.112 1216.64 110.112 1209.54 Q110.112 1202.41 108.283 1198.87 Q106.478 1195.3 102.844 1195.3 M102.844 1191.6 Q108.654 1191.6 111.709 1196.2 Q114.788 1200.79 114.788 1209.54 Q114.788 1218.26 111.709 1222.87 Q108.654 1227.45 102.844 1227.45 Q97.0335 1227.45 93.9549 1222.87 Q90.8993 1218.26 90.8993 1209.54 Q90.8993 1200.79 93.9549 1196.2 Q97.0335 1191.6 102.844 1191.6 Z" fill="#000000" fill-rule="nonzero" fill-opacity="1"></path><path clip-path="url(#clip040)" d="M123.006 1220.9 L127.89 1220.9 L127.89 1226.78 L123.006 1226.78 L123.006 1220.9 Z" fill="#000000" fill-rule="nonzero" fill-opacity="1"></path><path clip-path="url(#clip040)" d="M142.103 1222.85 L158.422 1222.85 L158.422 1226.78 L136.478 1226.78 L136.478 1222.85 Q139.14 1220.09 143.723 1215.46 Q148.33 1210.81 149.51 1209.47 Q151.755 1206.94 152.635 1205.21 Q153.538 1203.45 153.538 1201.76 Q153.538 1199.01 151.593 1197.27 Q149.672 1195.53 146.57 1195.53 Q144.371 1195.53 141.918 1196.3 Q139.487 1197.06 136.709 1198.61 L136.709 1193.89 Q139.533 1192.76 141.987 1192.18 Q144.441 1191.6 146.478 1191.6 Q151.848 1191.6 155.042 1194.28 Q158.237 1196.97 158.237 1201.46 Q158.237 1203.59 157.427 1205.51 Q156.64 1207.41 154.533 1210 Q153.955 1210.67 150.853 1213.89 Q147.751 1217.08 142.103 1222.85 Z" fill="#000000" fill-rule="nonzero" fill-opacity="1"></path><path clip-path="url(#clip040)" d="M101.246 1081.3 Q97.6354 1081.3 95.8067 1084.86 Q94.0012 1088.4 94.0012 1095.53 Q94.0012 1102.64 95.8067 1106.2 Q97.6354 1109.75 101.246 1109.75 Q104.881 1109.75 106.686 1106.2 Q108.515 1102.64 108.515 1095.53 Q108.515 1088.4 106.686 1084.86 Q104.881 1081.3 101.246 1081.3 M101.246 1077.59 Q107.057 1077.59 110.112 1082.2 Q113.191 1086.78 113.191 1095.53 Q113.191 1104.26 110.112 1108.87 Q107.057 1113.45 101.246 1113.45 Q95.4363 1113.45 92.3576 1108.87 Q89.3021 1104.26 89.3021 1095.53 Q89.3021 1086.78 92.3576 1082.2 Q95.4363 1077.59 101.246 1077.59 Z" fill="#000000" fill-rule="nonzero" fill-opacity="1"></path><path clip-path="url(#clip040)" d="M121.408 1106.9 L126.293 1106.9 L126.293 1112.78 L121.408 1112.78 L121.408 1106.9 Z" fill="#000000" fill-rule="nonzero" fill-opacity="1"></path><path clip-path="url(#clip040)" d="M146.478 1081.3 Q142.867 1081.3 141.038 1084.86 Q139.232 1088.4 139.232 1095.53 Q139.232 1102.64 141.038 1106.2 Q142.867 1109.75 146.478 1109.75 Q150.112 1109.75 151.918 1106.2 Q153.746 1102.64 153.746 1095.53 Q153.746 1088.4 151.918 1084.86 Q150.112 1081.3 146.478 1081.3 M146.478 1077.59 Q152.288 1077.59 155.343 1082.2 Q158.422 1086.78 158.422 1095.53 Q158.422 1104.26 155.343 1108.87 Q152.288 1113.45 146.478 1113.45 Q140.668 1113.45 137.589 1108.87 Q134.533 1104.26 134.533 1095.53 Q134.533 1086.78 137.589 1082.2 Q140.668 1077.59 146.478 1077.59 Z" fill="#000000" fill-rule="nonzero" fill-opacity="1"></path><path clip-path="url(#clip040)" d="M102.844 967.293 Q99.2326 967.293 97.4039 970.857 Q95.5984 974.399 95.5984 981.529 Q95.5984 988.635 97.4039 992.2 Q99.2326 995.742 102.844 995.742 Q106.478 995.742 108.283 992.2 Q110.112 988.635 110.112 981.529 Q110.112 974.399 108.283 970.857 Q106.478 967.293 102.844 967.293 M102.844 963.589 Q108.654 963.589 111.709 968.195 Q114.788 972.779 114.788 981.529 Q114.788 990.255 111.709 994.862 Q108.654 999.445 102.844 999.445 Q97.0335 999.445 93.9549 994.862 Q90.8993 990.255 90.8993 981.529 Q90.8993 972.779 93.9549 968.195 Q97.0335 963.589 102.844 963.589 Z" fill="#000000" fill-rule="nonzero" fill-opacity="1"></path><path clip-path="url(#clip040)" d="M123.006 992.894 L127.89 992.894 L127.89 998.774 L123.006 998.774 L123.006 992.894 Z" fill="#000000" fill-rule="nonzero" fill-opacity="1"></path><path clip-path="url(#clip040)" d="M142.103 994.839 L158.422 994.839 L158.422 998.774 L136.478 998.774 L136.478 994.839 Q139.14 992.084 143.723 987.455 Q148.33 982.802 149.51 981.459 Q151.755 978.936 152.635 977.2 Q153.538 975.441 153.538 973.751 Q153.538 970.996 151.593 969.26 Q149.672 967.524 146.57 967.524 Q144.371 967.524 141.918 968.288 Q139.487 969.052 136.709 970.603 L136.709 965.881 Q139.533 964.746 141.987 964.168 Q144.441 963.589 146.478 963.589 Q151.848 963.589 155.042 966.274 Q158.237 968.959 158.237 973.45 Q158.237 975.58 157.427 977.501 Q156.64 979.399 154.533 981.992 Q153.955 982.663 150.853 985.88 Q147.751 989.075 142.103 994.839 Z" fill="#000000" fill-rule="nonzero" fill-opacity="1"></path><path clip-path="url(#clip040)" d="M437.806 814.081 L437.806 822.061 Q433.148 819.833 429.016 818.739 Q424.884 817.646 421.035 817.646 Q414.351 817.646 410.706 820.238 Q407.1 822.831 407.1 827.611 Q407.1 831.621 409.49 833.687 Q411.921 835.713 418.645 836.969 L423.587 837.981 Q432.742 839.723 437.077 844.139 Q441.452 848.514 441.452 855.886 Q441.452 864.677 435.538 869.214 Q429.664 873.751 418.281 873.751 Q413.987 873.751 409.126 872.779 Q404.305 871.806 399.12 869.902 L399.12 861.477 Q404.103 864.272 408.883 865.689 Q413.663 867.107 418.281 867.107 Q425.289 867.107 429.097 864.353 Q432.905 861.598 432.905 856.494 Q432.905 852.038 430.15 849.526 Q427.436 847.015 421.197 845.759 L416.215 844.787 Q407.06 842.964 402.968 839.075 Q398.877 835.186 398.877 828.259 Q398.877 820.238 404.508 815.62 Q410.179 811.002 420.104 811.002 Q424.357 811.002 428.773 811.772 Q433.188 812.542 437.806 814.081 Z" fill="#000000" fill-rule="nonzero" fill-opacity="1"></path><path clip-path="url(#clip040)" d="M471.469 832.432 Q465.474 832.432 461.99 837.131 Q458.506 841.789 458.506 849.931 Q458.506 858.074 461.95 862.773 Q465.433 867.431 471.469 867.431 Q477.424 867.431 480.908 862.732 Q484.392 858.033 484.392 849.931 Q484.392 841.87 480.908 837.171 Q477.424 832.432 471.469 832.432 M471.469 826.112 Q481.191 826.112 486.741 832.432 Q492.291 838.751 492.291 849.931 Q492.291 861.071 486.741 867.431 Q481.191 873.751 471.469 873.751 Q461.706 873.751 456.157 867.431 Q450.647 861.071 450.647 849.931 Q450.647 838.751 456.157 832.432 Q461.706 826.112 471.469 826.112 Z" fill="#000000" fill-rule="nonzero" fill-opacity="1"></path><path clip-path="url(#clip040)" d="M504.646 809.544 L512.1 809.544 L512.1 872.576 L504.646 872.576 L504.646 809.544 Z" fill="#000000" fill-rule="nonzero" fill-opacity="1"></path><path clip-path="url(#clip040)" d="M526.926 854.671 L526.926 827.206 L534.38 827.206 L534.38 854.387 Q534.38 860.828 536.891 864.069 Q539.403 867.269 544.426 867.269 Q550.462 867.269 553.946 863.421 Q557.47 859.573 557.47 852.929 L557.47 827.206 L564.924 827.206 L564.924 872.576 L557.47 872.576 L557.47 865.608 Q554.756 869.74 551.15 871.766 Q547.586 873.751 542.846 873.751 Q535.028 873.751 530.977 868.89 Q526.926 864.029 526.926 854.671 M545.682 826.112 L545.682 826.112 Z" fill="#000000" fill-rule="nonzero" fill-opacity="1"></path><path clip-path="url(#clip040)" d="M587.649 814.324 L587.649 827.206 L603.002 827.206 L603.002 832.999 L587.649 832.999 L587.649 857.628 Q587.649 863.178 589.148 864.758 Q590.687 866.338 595.346 866.338 L603.002 866.338 L603.002 872.576 L595.346 872.576 Q586.717 872.576 583.436 869.376 Q580.155 866.135 580.155 857.628 L580.155 832.999 L574.686 832.999 L574.686 827.206 L580.155 827.206 L580.155 814.324 L587.649 814.324 Z" fill="#000000" fill-rule="nonzero" fill-opacity="1"></path><path clip-path="url(#clip040)" d="M612.805 827.206 L620.259 827.206 L620.259 872.576 L612.805 872.576 L612.805 827.206 M612.805 809.544 L620.259 809.544 L620.259 818.983 L612.805 818.983 L612.805 809.544 Z" fill="#000000" fill-rule="nonzero" fill-opacity="1"></path><path clip-path="url(#clip040)" d="M653.436 832.432 Q647.44 832.432 643.957 837.131 Q640.473 841.789 640.473 849.931 Q640.473 858.074 643.916 862.773 Q647.4 867.431 653.436 867.431 Q659.391 867.431 662.874 862.732 Q666.358 858.033 666.358 849.931 Q666.358 841.87 662.874 837.171 Q659.391 832.432 653.436 832.432 M653.436 826.112 Q663.158 826.112 668.708 832.432 Q674.257 838.751 674.257 849.931 Q674.257 861.071 668.708 867.431 Q663.158 873.751 653.436 873.751 Q643.673 873.751 638.123 867.431 Q632.614 861.071 632.614 849.931 Q632.614 838.751 638.123 832.432 Q643.673 826.112 653.436 826.112 Z" fill="#000000" fill-rule="nonzero" fill-opacity="1"></path><path clip-path="url(#clip040)" d="M724.327 845.192 L724.327 872.576 L716.873 872.576 L716.873 845.435 Q716.873 838.994 714.361 835.794 Q711.85 832.594 706.827 832.594 Q700.791 832.594 697.307 836.442 Q693.823 840.29 693.823 846.934 L693.823 872.576 L686.329 872.576 L686.329 827.206 L693.823 827.206 L693.823 834.254 Q696.497 830.163 700.102 828.138 Q703.748 826.112 708.488 826.112 Q716.306 826.112 720.316 830.973 Q724.327 835.794 724.327 845.192 Z" fill="#000000" fill-rule="nonzero" fill-opacity="1"></path><path clip-path="url(#clip040)" d="M774.072 818.821 L774.072 865.851 L783.956 865.851 Q796.473 865.851 802.266 860.18 Q808.099 854.509 808.099 842.275 Q808.099 830.123 802.266 824.492 Q796.473 818.821 783.956 818.821 L774.072 818.821 M765.889 812.096 L782.7 812.096 Q800.281 812.096 808.504 819.428 Q816.728 826.72 816.728 842.275 Q816.728 857.912 808.464 865.244 Q800.2 872.576 782.7 872.576 L765.889 872.576 L765.889 812.096 Z" fill="#000000" fill-rule="nonzero" fill-opacity="1"></path><path clip-path="url(#clip040)" d="M850.067 849.769 Q841.033 849.769 837.549 851.835 Q834.066 853.901 834.066 858.884 Q834.066 862.854 836.658 865.203 Q839.291 867.512 843.788 867.512 Q849.986 867.512 853.712 863.137 Q857.48 858.722 857.48 851.43 L857.48 849.769 L850.067 849.769 M864.933 846.691 L864.933 872.576 L857.48 872.576 L857.48 865.689 Q854.928 869.821 851.12 871.806 Q847.312 873.751 841.803 873.751 Q834.835 873.751 830.703 869.862 Q826.612 865.933 826.612 859.37 Q826.612 851.714 831.716 847.825 Q836.861 843.936 847.028 843.936 L857.48 843.936 L857.48 843.207 Q857.48 838.062 854.077 835.267 Q850.715 832.432 844.598 832.432 Q840.709 832.432 837.023 833.363 Q833.336 834.295 829.934 836.158 L829.934 829.272 Q834.025 827.692 837.873 826.922 Q841.722 826.112 845.368 826.112 Q855.211 826.112 860.072 831.216 Q864.933 836.32 864.933 846.691 Z" fill="#000000" fill-rule="nonzero" fill-opacity="1"></path><path clip-path="url(#clip040)" d="M887.659 814.324 L887.659 827.206 L903.012 827.206 L903.012 832.999 L887.659 832.999 L887.659 857.628 Q887.659 863.178 889.158 864.758 Q890.697 866.338 895.356 866.338 L903.012 866.338 L903.012 872.576 L895.356 872.576 Q886.727 872.576 883.446 869.376 Q880.165 866.135 880.165 857.628 L880.165 832.999 L874.696 832.999 L874.696 827.206 L880.165 827.206 L880.165 814.324 L887.659 814.324 Z" fill="#000000" fill-rule="nonzero" fill-opacity="1"></path><path clip-path="url(#clip040)" d="M933.434 849.769 Q924.401 849.769 920.917 851.835 Q917.433 853.901 917.433 858.884 Q917.433 862.854 920.026 865.203 Q922.659 867.512 927.155 867.512 Q933.353 867.512 937.08 863.137 Q940.847 858.722 940.847 851.43 L940.847 849.769 L933.434 849.769 M948.301 846.691 L948.301 872.576 L940.847 872.576 L940.847 865.689 Q938.295 869.821 934.487 871.806 Q930.68 873.751 925.17 873.751 Q918.203 873.751 914.071 869.862 Q909.98 865.933 909.98 859.37 Q909.98 851.714 915.084 847.825 Q920.228 843.936 930.396 843.936 L940.847 843.936 L940.847 843.207 Q940.847 838.062 937.445 835.267 Q934.082 832.432 927.966 832.432 Q924.077 832.432 920.39 833.363 Q916.704 834.295 913.301 836.158 L913.301 829.272 Q917.393 827.692 921.241 826.922 Q925.089 826.112 928.735 826.112 Q938.579 826.112 943.44 831.216 Q948.301 836.32 948.301 846.691 Z" fill="#000000" fill-rule="nonzero" fill-opacity="1"></path><polyline clip-path="url(#clip044)" style="stroke:#009af9; stroke-linecap:round; stroke-linejoin:round; stroke-width:4; stroke-opacity:1; fill:none" points="221.545,1080.98 250.709,1063.52 279.873,1036.74 309.037,1055.1 338.201,1024.59 367.365,1009.63 396.53,997.707 425.694,990.861 454.858,976.15 484.022,984.644 513.186,985.148 542.35,939.405 571.514,996.053 600.679,1008.41 629.843,1004.96 659.007,1040.36 688.171,1062.13 717.335,1051.44 746.499,1126.47 775.664,1120.96 804.828,1159.72 833.992,1205.66 863.156,1222.67 892.32,1263.6 921.484,1293.87 950.648,1317.3 979.813,1362.61 1008.98,1375.01 1038.14,1384.93 1067.3,1419.35 1096.47,1440.69 1125.63,1470.51 "></polyline>
<path clip-path="url(#clip040)" d="M972.548 1045.92 L1120.81 1045.92 L1120.81 942.238 L972.548 942.238  Z" fill="#ffffff" fill-rule="evenodd" fill-opacity="1"></path>
<polyline clip-path="url(#clip040)" style="stroke:#000000; stroke-linecap:round; stroke-linejoin:round; stroke-width:4; stroke-opacity:1; fill:none" points="972.548,1045.92 1120.81,1045.92 1120.81,942.238 972.548,942.238 972.548,1045.92 "></polyline>
<polyline clip-path="url(#clip040)" style="stroke:#009af9; stroke-linecap:round; stroke-linejoin:round; stroke-width:4; stroke-opacity:1; fill:none" points="983.196,994.078 1047.08,994.078 "></polyline>
<path clip-path="url(#clip040)" d="M1071.58 1013.77 Q1069.77 1018.39 1068.06 1019.81 Q1066.34 1021.22 1063.47 1021.22 L1060.07 1021.22 L1060.07 1017.65 L1062.57 1017.65 Q1064.33 1017.65 1065.3 1016.82 Q1066.27 1015.99 1067.46 1012.89 L1068.22 1010.94 L1057.73 985.432 L1062.25 985.432 L1070.35 1005.71 L1078.45 985.432 L1082.96 985.432 L1071.58 1013.77 Z" fill="#000000" fill-rule="nonzero" fill-opacity="1"></path><path clip-path="url(#clip040)" d="M1090.26 1007.42 L1097.89 1007.42 L1097.89 981.057 L1089.58 982.724 L1089.58 978.465 L1097.85 976.798 L1102.52 976.798 L1102.52 1007.42 L1110.16 1007.42 L1110.16 1011.36 L1090.26 1011.36 L1090.26 1007.42 Z" fill="#000000" fill-rule="nonzero" fill-opacity="1"></path></svg>