<svg xmlns="http://www.w3.org/2000/svg" xmlns:xlink="http://www.w3.org/1999/xlink" width="600" height="400" viewBox="0 0 2400 1600">
<defs>
  <clipPath id="clip280">
    <rect x="0" y="0" width="2400" height="1600"></rect>
  </clipPath>
</defs>
<path clip-path="url(#clip280)" d="M0 1600 L2400 1600 L2400 0 L0 0  Z" fill="#ffffff" fill-rule="evenodd" fill-opacity="1"></path>
<defs>
  <clipPath id="clip281">
    <rect x="480" y="0" width="1681" height="1600"></rect>
  </clipPath>
</defs>
<path clip-path="url(#clip280)" d="M193.936 686.448 L1137.67 686.448 L1137.67 123.472 L193.936 123.472  Z" fill="#ffffff" fill-rule="evenodd" fill-opacity="1"></path>
<defs>
  <clipPath id="clip282">
    <rect x="193" y="123" width="945" height="564"></rect>
  </clipPath>
</defs>
<polyline clip-path="url(#clip282)" style="stroke:#000000; stroke-linecap:round; stroke-linejoin:round; stroke-width:2; stroke-opacity:0.1; fill:none" points="220.646,686.448 220.646,123.472 "></polyline>
<polyline clip-path="url(#clip282)" style="stroke:#000000; stroke-linecap:round; stroke-linejoin:round; stroke-width:2; stroke-opacity:0.1; fill:none" points="443.226,686.448 443.226,123.472 "></polyline>
<polyline clip-path="url(#clip282)" style="stroke:#000000; stroke-linecap:round; stroke-linejoin:round; stroke-width:2; stroke-opacity:0.1; fill:none" points="665.805,686.448 665.805,123.472 "></polyline>
<polyline clip-path="url(#clip282)" style="stroke:#000000; stroke-linecap:round; stroke-linejoin:round; stroke-width:2; stroke-opacity:0.1; fill:none" points="888.385,686.448 888.385,123.472 "></polyline>
<polyline clip-path="url(#clip282)" style="stroke:#000000; stroke-linecap:round; stroke-linejoin:round; stroke-width:2; stroke-opacity:0.1; fill:none" points="1110.97,686.448 1110.97,123.472 "></polyline>
<polyline clip-path="url(#clip280)" style="stroke:#000000; stroke-linecap:round; stroke-linejoin:round; stroke-width:4; stroke-opacity:1; fill:none" points="193.936,686.448 1137.67,686.448 "></polyline>
<polyline clip-path="url(#clip280)" style="stroke:#000000; stroke-linecap:round; stroke-linejoin:round; stroke-width:4; stroke-opacity:1; fill:none" points="220.646,686.448 220.646,667.55 "></polyline>
<polyline clip-path="url(#clip280)" style="stroke:#000000; stroke-linecap:round; stroke-linejoin:round; stroke-width:4; stroke-opacity:1; fill:none" points="443.226,686.448 443.226,667.55 "></polyline>
<polyline clip-path="url(#clip280)" style="stroke:#000000; stroke-linecap:round; stroke-linejoin:round; stroke-width:4; stroke-opacity:1; fill:none" points="665.805,686.448 665.805,667.55 "></polyline>
<polyline clip-path="url(#clip280)" style="stroke:#000000; stroke-linecap:round; stroke-linejoin:round; stroke-width:4; stroke-opacity:1; fill:none" points="888.385,686.448 888.385,667.55 "></polyline>
<polyline clip-path="url(#clip280)" style="stroke:#000000; stroke-linecap:round; stroke-linejoin:round; stroke-width:4; stroke-opacity:1; fill:none" points="1110.97,686.448 1110.97,667.55 "></polyline>
<path clip-path="url(#clip280)" d="M182.949 717.367 Q179.338 717.367 177.509 720.931 Q175.704 724.473 175.704 731.603 Q175.704 738.709 177.509 742.274 Q179.338 745.815 182.949 745.815 Q186.583 745.815 188.389 742.274 Q190.218 738.709 190.218 731.603 Q190.218 724.473 188.389 720.931 Q186.583 717.367 182.949 717.367 M182.949 713.663 Q188.759 713.663 191.815 718.269 Q194.893 722.853 194.893 731.603 Q194.893 740.329 191.815 744.936 Q188.759 749.519 182.949 749.519 Q177.139 749.519 174.06 744.936 Q171.005 740.329 171.005 731.603 Q171.005 722.853 174.06 718.269 Q177.139 713.663 182.949 713.663 Z" fill="#000000" fill-rule="nonzero" fill-opacity="1"></path><path clip-path="url(#clip280)" d="M203.111 742.968 L207.995 742.968 L207.995 748.848 L203.111 748.848 L203.111 742.968 Z" fill="#000000" fill-rule="nonzero" fill-opacity="1"></path><path clip-path="url(#clip280)" d="M228.18 717.367 Q224.569 717.367 222.74 720.931 Q220.935 724.473 220.935 731.603 Q220.935 738.709 222.74 742.274 Q224.569 745.815 228.18 745.815 Q231.815 745.815 233.62 742.274 Q235.449 738.709 235.449 731.603 Q235.449 724.473 233.62 720.931 Q231.815 717.367 228.18 717.367 M228.18 713.663 Q233.99 713.663 237.046 718.269 Q240.125 722.853 240.125 731.603 Q240.125 740.329 237.046 744.936 Q233.99 749.519 228.18 749.519 Q222.37 749.519 219.291 744.936 Q216.236 740.329 216.236 731.603 Q216.236 722.853 219.291 718.269 Q222.37 713.663 228.18 713.663 Z" fill="#000000" fill-rule="nonzero" fill-opacity="1"></path><path clip-path="url(#clip280)" d="M258.342 717.367 Q254.731 717.367 252.902 720.931 Q251.097 724.473 251.097 731.603 Q251.097 738.709 252.902 742.274 Q254.731 745.815 258.342 745.815 Q261.976 745.815 263.782 742.274 Q265.611 738.709 265.611 731.603 Q265.611 724.473 263.782 720.931 Q261.976 717.367 258.342 717.367 M258.342 713.663 Q264.152 713.663 267.208 718.269 Q270.287 722.853 270.287 731.603 Q270.287 740.329 267.208 744.936 Q264.152 749.519 258.342 749.519 Q252.532 749.519 249.453 744.936 Q246.398 740.329 246.398 731.603 Q246.398 722.853 249.453 718.269 Q252.532 713.663 258.342 713.663 Z" fill="#000000" fill-rule="nonzero" fill-opacity="1"></path><path clip-path="url(#clip280)" d="M406.027 717.367 Q402.416 717.367 400.587 720.931 Q398.781 724.473 398.781 731.603 Q398.781 738.709 400.587 742.274 Q402.416 745.815 406.027 745.815 Q409.661 745.815 411.466 742.274 Q413.295 738.709 413.295 731.603 Q413.295 724.473 411.466 720.931 Q409.661 717.367 406.027 717.367 M406.027 713.663 Q411.837 713.663 414.892 718.269 Q417.971 722.853 417.971 731.603 Q417.971 740.329 414.892 744.936 Q411.837 749.519 406.027 749.519 Q400.217 749.519 397.138 744.936 Q394.082 740.329 394.082 731.603 Q394.082 722.853 397.138 718.269 Q400.217 713.663 406.027 713.663 Z" fill="#000000" fill-rule="nonzero" fill-opacity="1"></path><path clip-path="url(#clip280)" d="M426.189 742.968 L431.073 742.968 L431.073 748.848 L426.189 748.848 L426.189 742.968 Z" fill="#000000" fill-rule="nonzero" fill-opacity="1"></path><path clip-path="url(#clip280)" d="M445.286 744.913 L461.605 744.913 L461.605 748.848 L439.661 748.848 L439.661 744.913 Q442.323 742.158 446.906 737.528 Q451.513 732.876 452.693 731.533 Q454.938 729.01 455.818 727.274 Q456.721 725.515 456.721 723.825 Q456.721 721.07 454.776 719.334 Q452.855 717.598 449.753 717.598 Q447.554 717.598 445.101 718.362 Q442.67 719.126 439.892 720.677 L439.892 715.955 Q442.716 714.82 445.17 714.242 Q447.624 713.663 449.661 713.663 Q455.031 713.663 458.225 716.348 Q461.42 719.033 461.42 723.524 Q461.42 725.654 460.61 727.575 Q459.823 729.473 457.716 732.066 Q457.137 732.737 454.036 735.954 Q450.934 739.149 445.286 744.913 Z" fill="#000000" fill-rule="nonzero" fill-opacity="1"></path><path clip-path="url(#clip280)" d="M471.466 714.288 L489.823 714.288 L489.823 718.223 L475.749 718.223 L475.749 726.695 Q476.767 726.348 477.786 726.186 Q478.804 726.001 479.823 726.001 Q485.61 726.001 488.989 729.172 Q492.369 732.343 492.369 737.76 Q492.369 743.339 488.897 746.44 Q485.424 749.519 479.105 749.519 Q476.929 749.519 474.661 749.149 Q472.415 748.778 470.008 748.038 L470.008 743.339 Q472.091 744.473 474.313 745.028 Q476.536 745.584 479.012 745.584 Q483.017 745.584 485.355 743.478 Q487.693 741.371 487.693 737.76 Q487.693 734.149 485.355 732.042 Q483.017 729.936 479.012 729.936 Q477.137 729.936 475.262 730.353 Q473.411 730.769 471.466 731.649 L471.466 714.288 Z" fill="#000000" fill-rule="nonzero" fill-opacity="1"></path><path clip-path="url(#clip280)" d="M628.109 717.367 Q624.498 717.367 622.669 720.931 Q620.864 724.473 620.864 731.603 Q620.864 738.709 622.669 742.274 Q624.498 745.815 628.109 745.815 Q631.743 745.815 633.549 742.274 Q635.377 738.709 635.377 731.603 Q635.377 724.473 633.549 720.931 Q631.743 717.367 628.109 717.367 M628.109 713.663 Q633.919 713.663 636.975 718.269 Q640.053 722.853 640.053 731.603 Q640.053 740.329 636.975 744.936 Q633.919 749.519 628.109 749.519 Q622.299 749.519 619.22 744.936 Q616.165 740.329 616.165 731.603 Q616.165 722.853 619.22 718.269 Q622.299 713.663 628.109 713.663 Z" fill="#000000" fill-rule="nonzero" fill-opacity="1"></path><path clip-path="url(#clip280)" d="M648.271 742.968 L653.155 742.968 L653.155 748.848 L648.271 748.848 L648.271 742.968 Z" fill="#000000" fill-rule="nonzero" fill-opacity="1"></path><path clip-path="url(#clip280)" d="M663.387 714.288 L681.743 714.288 L681.743 718.223 L667.669 718.223 L667.669 726.695 Q668.687 726.348 669.706 726.186 Q670.724 726.001 671.743 726.001 Q677.53 726.001 680.91 729.172 Q684.289 732.343 684.289 737.76 Q684.289 743.339 680.817 746.44 Q677.345 749.519 671.025 749.519 Q668.849 749.519 666.581 749.149 Q664.336 748.778 661.928 748.038 L661.928 743.339 Q664.012 744.473 666.234 745.028 Q668.456 745.584 670.933 745.584 Q674.937 745.584 677.275 743.478 Q679.613 741.371 679.613 737.76 Q679.613 734.149 677.275 732.042 Q674.937 729.936 670.933 729.936 Q669.058 729.936 667.183 730.353 Q665.331 730.769 663.387 731.649 L663.387 714.288 Z" fill="#000000" fill-rule="nonzero" fill-opacity="1"></path><path clip-path="url(#clip280)" d="M703.502 717.367 Q699.891 717.367 698.062 720.931 Q696.257 724.473 696.257 731.603 Q696.257 738.709 698.062 742.274 Q699.891 745.815 703.502 745.815 Q707.136 745.815 708.942 742.274 Q710.771 738.709 710.771 731.603 Q710.771 724.473 708.942 720.931 Q707.136 717.367 703.502 717.367 M703.502 713.663 Q709.312 713.663 712.368 718.269 Q715.446 722.853 715.446 731.603 Q715.446 740.329 712.368 744.936 Q709.312 749.519 703.502 749.519 Q697.692 749.519 694.613 744.936 Q691.558 740.329 691.558 731.603 Q691.558 722.853 694.613 718.269 Q697.692 713.663 703.502 713.663 Z" fill="#000000" fill-rule="nonzero" fill-opacity="1"></path><path clip-path="url(#clip280)" d="M851.187 717.367 Q847.575 717.367 845.747 720.931 Q843.941 724.473 843.941 731.603 Q843.941 738.709 845.747 742.274 Q847.575 745.815 851.187 745.815 Q854.821 745.815 856.626 742.274 Q858.455 738.709 858.455 731.603 Q858.455 724.473 856.626 720.931 Q854.821 717.367 851.187 717.367 M851.187 713.663 Q856.997 713.663 860.052 718.269 Q863.131 722.853 863.131 731.603 Q863.131 740.329 860.052 744.936 Q856.997 749.519 851.187 749.519 Q845.376 749.519 842.298 744.936 Q839.242 740.329 839.242 731.603 Q839.242 722.853 842.298 718.269 Q845.376 713.663 851.187 713.663 Z" fill="#000000" fill-rule="nonzero" fill-opacity="1"></path><path clip-path="url(#clip280)" d="M871.348 742.968 L876.233 742.968 L876.233 748.848 L871.348 748.848 L871.348 742.968 Z" fill="#000000" fill-rule="nonzero" fill-opacity="1"></path><path clip-path="url(#clip280)" d="M885.237 714.288 L907.459 714.288 L907.459 716.279 L894.913 748.848 L890.029 748.848 L901.834 718.223 L885.237 718.223 L885.237 714.288 Z" fill="#000000" fill-rule="nonzero" fill-opacity="1"></path><path clip-path="url(#clip280)" d="M916.626 714.288 L934.982 714.288 L934.982 718.223 L920.908 718.223 L920.908 726.695 Q921.927 726.348 922.945 726.186 Q923.964 726.001 924.982 726.001 Q930.769 726.001 934.149 729.172 Q937.529 732.343 937.529 737.76 Q937.529 743.339 934.056 746.44 Q930.584 749.519 924.265 749.519 Q922.089 749.519 919.82 749.149 Q917.575 748.778 915.168 748.038 L915.168 743.339 Q917.251 744.473 919.473 745.028 Q921.695 745.584 924.172 745.584 Q928.177 745.584 930.515 743.478 Q932.853 741.371 932.853 737.76 Q932.853 734.149 930.515 732.042 Q928.177 729.936 924.172 729.936 Q922.297 729.936 920.422 730.353 Q918.57 730.769 916.626 731.649 L916.626 714.288 Z" fill="#000000" fill-rule="nonzero" fill-opacity="1"></path><path clip-path="url(#clip280)" d="M1063.04 744.913 L1070.68 744.913 L1070.68 718.547 L1062.37 720.214 L1062.37 715.955 L1070.63 714.288 L1075.31 714.288 L1075.31 744.913 L1082.94 744.913 L1082.94 748.848 L1063.04 748.848 L1063.04 744.913 Z" fill="#000000" fill-rule="nonzero" fill-opacity="1"></path><path clip-path="url(#clip280)" d="M1092.39 742.968 L1097.27 742.968 L1097.27 748.848 L1092.39 748.848 L1092.39 742.968 Z" fill="#000000" fill-rule="nonzero" fill-opacity="1"></path><path clip-path="url(#clip280)" d="M1117.46 717.367 Q1113.85 717.367 1112.02 720.931 Q1110.21 724.473 1110.21 731.603 Q1110.21 738.709 1112.02 742.274 Q1113.85 745.815 1117.46 745.815 Q1121.09 745.815 1122.9 742.274 Q1124.73 738.709 1124.73 731.603 Q1124.73 724.473 1122.9 720.931 Q1121.09 717.367 1117.46 717.367 M1117.46 713.663 Q1123.27 713.663 1126.32 718.269 Q1129.4 722.853 1129.4 731.603 Q1129.4 740.329 1126.32 744.936 Q1123.27 749.519 1117.46 749.519 Q1111.65 749.519 1108.57 744.936 Q1105.51 740.329 1105.51 731.603 Q1105.51 722.853 1108.57 718.269 Q1111.65 713.663 1117.46 713.663 Z" fill="#000000" fill-rule="nonzero" fill-opacity="1"></path><path clip-path="url(#clip280)" d="M1147.62 717.367 Q1144.01 717.367 1142.18 720.931 Q1140.37 724.473 1140.37 731.603 Q1140.37 738.709 1142.18 742.274 Q1144.01 745.815 1147.62 745.815 Q1151.25 745.815 1153.06 742.274 Q1154.89 738.709 1154.89 731.603 Q1154.89 724.473 1153.06 720.931 Q1151.25 717.367 1147.62 717.367 M1147.62 713.663 Q1153.43 713.663 1156.49 718.269 Q1159.56 722.853 1159.56 731.603 Q1159.56 740.329 1156.49 744.936 Q1153.43 749.519 1147.62 749.519 Q1141.81 749.519 1138.73 744.936 Q1135.68 740.329 1135.68 731.603 Q1135.68 722.853 1138.73 718.269 Q1141.81 713.663 1147.62 713.663 Z" fill="#000000" fill-rule="nonzero" fill-opacity="1"></path><polyline clip-path="url(#clip282)" style="stroke:#000000; stroke-linecap:round; stroke-linejoin:round; stroke-width:2; stroke-opacity:0.1; fill:none" points="193.936,588.622 1137.67,588.622 "></polyline>
<polyline clip-path="url(#clip282)" style="stroke:#000000; stroke-linecap:round; stroke-linejoin:round; stroke-width:2; stroke-opacity:0.1; fill:none" points="193.936,468.416 1137.67,468.416 "></polyline>
<polyline clip-path="url(#clip282)" style="stroke:#000000; stroke-linecap:round; stroke-linejoin:round; stroke-width:2; stroke-opacity:0.1; fill:none" points="193.936,348.21 1137.67,348.21 "></polyline>
<polyline clip-path="url(#clip282)" style="stroke:#000000; stroke-linecap:round; stroke-linejoin:round; stroke-width:2; stroke-opacity:0.1; fill:none" points="193.936,228.003 1137.67,228.003 "></polyline>
<polyline clip-path="url(#clip280)" style="stroke:#000000; stroke-linecap:round; stroke-linejoin:round; stroke-width:4; stroke-opacity:1; fill:none" points="193.936,686.448 193.936,123.472 "></polyline>
<polyline clip-path="url(#clip280)" style="stroke:#000000; stroke-linecap:round; stroke-linejoin:round; stroke-width:4; stroke-opacity:1; fill:none" points="193.936,588.622 212.834,588.622 "></polyline>
<polyline clip-path="url(#clip280)" style="stroke:#000000; stroke-linecap:round; stroke-linejoin:round; stroke-width:4; stroke-opacity:1; fill:none" points="193.936,468.416 212.834,468.416 "></polyline>
<polyline clip-path="url(#clip280)" style="stroke:#000000; stroke-linecap:round; stroke-linejoin:round; stroke-width:4; stroke-opacity:1; fill:none" points="193.936,348.21 212.834,348.21 "></polyline>
<polyline clip-path="url(#clip280)" style="stroke:#000000; stroke-linecap:round; stroke-linejoin:round; stroke-width:4; stroke-opacity:1; fill:none" points="193.936,228.003 212.834,228.003 "></polyline>
<path clip-path="url(#clip280)" d="M97.8206 589.074 L127.496 589.074 L127.496 593.009 L97.8206 593.009 L97.8206 589.074 Z" fill="#000000" fill-rule="nonzero" fill-opacity="1"></path><path clip-path="url(#clip280)" d="M141.617 601.967 L157.936 601.967 L157.936 605.902 L135.992 605.902 L135.992 601.967 Q138.654 599.213 143.237 594.583 Q147.843 589.93 149.024 588.588 Q151.269 586.064 152.149 584.328 Q153.052 582.569 153.052 580.879 Q153.052 578.125 151.107 576.389 Q149.186 574.652 146.084 574.652 Q143.885 574.652 141.431 575.416 Q139.001 576.18 136.223 577.731 L136.223 573.009 Q139.047 571.875 141.501 571.296 Q143.955 570.717 145.992 570.717 Q151.362 570.717 154.556 573.402 Q157.751 576.088 157.751 580.578 Q157.751 582.708 156.941 584.629 Q156.154 586.527 154.047 589.12 Q153.468 589.791 150.367 593.009 Q147.265 596.203 141.617 601.967 Z" fill="#000000" fill-rule="nonzero" fill-opacity="1"></path><path clip-path="url(#clip280)" d="M97.4502 468.867 L127.126 468.867 L127.126 472.803 L97.4502 472.803 L97.4502 468.867 Z" fill="#000000" fill-rule="nonzero" fill-opacity="1"></path><path clip-path="url(#clip280)" d="M138.029 481.761 L145.668 481.761 L145.668 455.395 L137.357 457.062 L137.357 452.803 L145.621 451.136 L150.297 451.136 L150.297 481.761 L157.936 481.761 L157.936 485.696 L138.029 485.696 L138.029 481.761 Z" fill="#000000" fill-rule="nonzero" fill-opacity="1"></path><path clip-path="url(#clip280)" d="M145.992 334.008 Q142.381 334.008 140.552 337.573 Q138.746 341.115 138.746 348.244 Q138.746 355.351 140.552 358.916 Q142.381 362.457 145.992 362.457 Q149.626 362.457 151.431 358.916 Q153.26 355.351 153.26 348.244 Q153.26 341.115 151.431 337.573 Q149.626 334.008 145.992 334.008 M145.992 330.305 Q151.802 330.305 154.857 334.911 Q157.936 339.494 157.936 348.244 Q157.936 356.971 154.857 361.578 Q151.802 366.161 145.992 366.161 Q140.181 366.161 137.103 361.578 Q134.047 356.971 134.047 348.244 Q134.047 339.494 137.103 334.911 Q140.181 330.305 145.992 330.305 Z" fill="#000000" fill-rule="nonzero" fill-opacity="1"></path><path clip-path="url(#clip280)" d="M138.029 241.348 L145.668 241.348 L145.668 214.982 L137.357 216.649 L137.357 212.39 L145.621 210.723 L150.297 210.723 L150.297 241.348 L157.936 241.348 L157.936 245.283 L138.029 245.283 L138.029 241.348 Z" fill="#000000" fill-rule="nonzero" fill-opacity="1"></path><path clip-path="url(#clip280)" d="M470.754 63.9476 L470.754 47.7034 L457.386 47.7034 L457.386 40.9789 L478.856 40.9789 L478.856 66.9452 Q474.117 70.3075 468.405 72.0494 Q462.693 73.7508 456.212 73.7508 Q442.034 73.7508 434.013 65.4869 Q426.032 57.1826 426.032 42.3968 Q426.032 27.5705 434.013 19.3066 Q442.034 11.0023 456.212 11.0023 Q462.126 11.0023 467.433 12.4606 Q472.78 13.9189 477.276 16.7545 L477.276 25.464 Q472.739 21.6156 467.635 19.6712 Q462.531 17.7268 456.9 17.7268 Q445.801 17.7268 440.211 23.9246 Q434.661 30.1225 434.661 42.3968 Q434.661 54.6305 440.211 60.8284 Q445.801 67.0263 456.9 67.0263 Q461.235 67.0263 464.638 66.2971 Q468.04 65.5274 470.754 63.9476 Z" fill="#000000" fill-rule="nonzero" fill-opacity="1"></path><path clip-path="url(#clip280)" d="M482.462 12.096 L533.624 12.096 L533.624 18.9825 L512.155 18.9825 L512.155 72.576 L503.931 72.576 L503.931 18.9825 L482.462 18.9825 L482.462 12.096 Z" fill="#000000" fill-rule="nonzero" fill-opacity="1"></path><path clip-path="url(#clip280)" d="M567.895 12.096 L602.652 12.096 L602.652 18.9825 L576.078 18.9825 L576.078 36.8065 L600.059 36.8065 L600.059 43.6931 L576.078 43.6931 L576.078 72.576 L567.895 72.576 L567.895 12.096 Z" fill="#000000" fill-rule="nonzero" fill-opacity="1"></path><path clip-path="url(#clip280)" d="M609.984 54.671 L609.984 27.2059 L617.438 27.2059 L617.438 54.3874 Q617.438 60.8284 619.949 64.0691 Q622.461 67.2693 627.484 67.2693 Q633.52 67.2693 637.004 63.421 Q640.528 59.5726 640.528 52.9291 L640.528 27.2059 L647.982 27.2059 L647.982 72.576 L640.528 72.576 L640.528 65.6084 Q637.814 69.7404 634.208 71.7658 Q630.644 73.7508 625.904 73.7508 Q618.086 73.7508 614.035 68.8897 Q609.984 64.0286 609.984 54.671 M628.74 26.1121 L628.74 26.1121 Z" fill="#000000" fill-rule="nonzero" fill-opacity="1"></path><path clip-path="url(#clip280)" d="M701.048 45.1919 L701.048 72.576 L693.595 72.576 L693.595 45.4349 Q693.595 38.994 691.083 35.7938 Q688.572 32.5936 683.548 32.5936 Q677.513 32.5936 674.029 36.4419 Q670.545 40.2903 670.545 46.9338 L670.545 72.576 L663.051 72.576 L663.051 27.2059 L670.545 27.2059 L670.545 34.2544 Q673.219 30.163 676.824 28.1376 Q680.47 26.1121 685.209 26.1121 Q693.028 26.1121 697.038 30.9732 Q701.048 35.7938 701.048 45.1919 Z" fill="#000000" fill-rule="nonzero" fill-opacity="1"></path><path clip-path="url(#clip280)" d="M748.565 28.9478 L748.565 35.9153 Q745.406 34.1734 742.206 33.3227 Q739.046 32.4315 735.805 32.4315 Q728.554 32.4315 724.544 37.0496 Q720.533 41.6271 720.533 49.9314 Q720.533 58.2358 724.544 62.8538 Q728.554 67.4314 735.805 67.4314 Q739.046 67.4314 742.206 66.5807 Q745.406 65.6895 748.565 63.9476 L748.565 70.8341 Q745.446 72.2924 742.084 73.0216 Q738.762 73.7508 734.995 73.7508 Q724.746 73.7508 718.71 67.3098 Q712.674 60.8689 712.674 49.9314 Q712.674 38.832 718.751 32.472 Q724.868 26.1121 735.481 26.1121 Q738.924 26.1121 742.206 26.8413 Q745.487 27.5299 748.565 28.9478 Z" fill="#000000" fill-rule="nonzero" fill-opacity="1"></path><path clip-path="url(#clip280)" d="M768.901 14.324 L768.901 27.2059 L784.254 27.2059 L784.254 32.9987 L768.901 32.9987 L768.901 57.6282 Q768.901 63.1779 770.4 64.7578 Q771.939 66.3376 776.598 66.3376 L784.254 66.3376 L784.254 72.576 L776.598 72.576 Q767.969 72.576 764.688 69.3758 Q761.407 66.1351 761.407 57.6282 L761.407 32.9987 L755.938 32.9987 L755.938 27.2059 L761.407 27.2059 L761.407 14.324 L768.901 14.324 Z" fill="#000000" fill-rule="nonzero" fill-opacity="1"></path><path clip-path="url(#clip280)" d="M794.057 27.2059 L801.511 27.2059 L801.511 72.576 L794.057 72.576 L794.057 27.2059 M794.057 9.54393 L801.511 9.54393 L801.511 18.9825 L794.057 18.9825 L794.057 9.54393 Z" fill="#000000" fill-rule="nonzero" fill-opacity="1"></path><path clip-path="url(#clip280)" d="M834.688 32.4315 Q828.692 32.4315 825.209 37.1306 Q821.725 41.7891 821.725 49.9314 Q821.725 58.0738 825.168 62.7728 Q828.652 67.4314 834.688 67.4314 Q840.643 67.4314 844.126 62.7323 Q847.61 58.0333 847.61 49.9314 Q847.61 41.8701 844.126 37.1711 Q840.643 32.4315 834.688 32.4315 M834.688 26.1121 Q844.41 26.1121 849.96 32.4315 Q855.509 38.7509 855.509 49.9314 Q855.509 61.0714 849.96 67.4314 Q844.41 73.7508 834.688 73.7508 Q824.925 73.7508 819.375 67.4314 Q813.866 61.0714 813.866 49.9314 Q813.866 38.7509 819.375 32.4315 Q824.925 26.1121 834.688 26.1121 Z" fill="#000000" fill-rule="nonzero" fill-opacity="1"></path><path clip-path="url(#clip280)" d="M905.579 45.1919 L905.579 72.576 L898.125 72.576 L898.125 45.4349 Q898.125 38.994 895.613 35.7938 Q893.102 32.5936 888.079 32.5936 Q882.043 32.5936 878.559 36.4419 Q875.075 40.2903 875.075 46.9338 L875.075 72.576 L867.581 72.576 L867.581 27.2059 L875.075 27.2059 L875.075 34.2544 Q877.749 30.163 881.354 28.1376 Q885 26.1121 889.739 26.1121 Q897.558 26.1121 901.568 30.9732 Q905.579 35.7938 905.579 45.1919 Z" fill="#000000" fill-rule="nonzero" fill-opacity="1"></path><polyline clip-path="url(#clip282)" style="stroke:#009af9; stroke-linecap:round; stroke-linejoin:round; stroke-width:4; stroke-opacity:1; fill:none" points="220.646,139.405 249.366,153.126 278.086,168.402 306.806,185.277 335.526,203.769 364.246,223.869 392.966,245.54 421.686,268.711 450.406,293.278 479.126,319.099 507.846,345.997 536.566,373.76 565.286,402.137 594.006,430.846 622.725,459.573 651.445,487.975 680.165,515.688 708.885,542.329 737.605,567.503 766.325,590.81 795.045,611.854 823.765,630.244 852.485,645.612 881.205,657.612 909.925,665.934 938.645,670.309 967.365,670.515 996.085,666.388 1024.81,657.826 1053.53,644.792 1082.25,627.322 1110.97,605.524 "></polyline>
<path clip-path="url(#clip280)" d="M959.413 245.918 L1106.22 245.918 L1106.22 142.238 L959.413 142.238  Z" fill="#ffffff" fill-rule="evenodd" fill-opacity="1"></path>
<polyline clip-path="url(#clip280)" style="stroke:#000000; stroke-linecap:round; stroke-linejoin:round; stroke-width:4; stroke-opacity:1; fill:none" points="959.413,245.918 1106.22,245.918 1106.22,142.238 959.413,142.238 959.413,245.918 "></polyline>
<polyline clip-path="url(#clip280)" style="stroke:#009af9; stroke-linecap:round; stroke-linejoin:round; stroke-width:4; stroke-opacity:1; fill:none" points="969.899,194.078 1032.81,194.078 "></polyline>
<path clip-path="url(#clip280)" d="M1057.14 213.765 Q1055.34 218.395 1053.62 219.807 Q1051.91 221.219 1049.04 221.219 L1045.64 221.219 L1045.64 217.654 L1048.14 217.654 Q1049.9 217.654 1050.87 216.821 Q1051.84 215.988 1053.02 212.886 L1053.79 210.941 L1043.3 185.432 L1047.81 185.432 L1055.92 205.71 L1064.02 185.432 L1068.53 185.432 L1057.14 213.765 Z" fill="#000000" fill-rule="nonzero" fill-opacity="1"></path><path clip-path="url(#clip280)" d="M1075.82 207.423 L1083.46 207.423 L1083.46 181.057 L1075.15 182.724 L1075.15 178.465 L1083.42 176.798 L1088.09 176.798 L1088.09 207.423 L1095.73 207.423 L1095.73 211.358 L1075.82 211.358 L1075.82 207.423 Z" fill="#000000" fill-rule="nonzero" fill-opacity="1"></path><path clip-path="url(#clip280)" d="M1409.02 686.448 L2352.76 686.448 L2352.76 123.472 L1409.02 123.472  Z" fill="#ffffff" fill-rule="evenodd" fill-opacity="1"></path>
<defs>
  <clipPath id="clip283">
    <rect x="1409" y="123" width="945" height="564"></rect>
  </clipPath>
</defs>
<polyline clip-path="url(#clip283)" style="stroke:#000000; stroke-linecap:round; stroke-linejoin:round; stroke-width:2; stroke-opacity:0.1; fill:none" points="1435.73,686.448 1435.73,123.472 "></polyline>
<polyline clip-path="url(#clip283)" style="stroke:#000000; stroke-linecap:round; stroke-linejoin:round; stroke-width:2; stroke-opacity:0.1; fill:none" points="1658.31,686.448 1658.31,123.472 "></polyline>
<polyline clip-path="url(#clip283)" style="stroke:#000000; stroke-linecap:round; stroke-linejoin:round; stroke-width:2; stroke-opacity:0.1; fill:none" points="1880.89,686.448 1880.89,123.472 "></polyline>
<polyline clip-path="url(#clip283)" style="stroke:#000000; stroke-linecap:round; stroke-linejoin:round; stroke-width:2; stroke-opacity:0.1; fill:none" points="2103.47,686.448 2103.47,123.472 "></polyline>
<polyline clip-path="url(#clip283)" style="stroke:#000000; stroke-linecap:round; stroke-linejoin:round; stroke-width:2; stroke-opacity:0.1; fill:none" points="2326.05,686.448 2326.05,123.472 "></polyline>
<polyline clip-path="url(#clip280)" style="stroke:#000000; stroke-linecap:round; stroke-linejoin:round; stroke-width:4; stroke-opacity:1; fill:none" points="1409.02,686.448 2352.76,686.448 "></polyline>
<polyline clip-path="url(#clip280)" style="stroke:#000000; stroke-linecap:round; stroke-linejoin:round; stroke-width:4; stroke-opacity:1; fill:none" points="1435.73,686.448 1435.73,667.55 "></polyline>
<polyline clip-path="url(#clip280)" style="stroke:#000000; stroke-linecap:round; stroke-linejoin:round; stroke-width:4; stroke-opacity:1; fill:none" points="1658.31,686.448 1658.31,667.55 "></polyline>
<polyline clip-path="url(#clip280)" style="stroke:#000000; stroke-linecap:round; stroke-linejoin:round; stroke-width:4; stroke-opacity:1; fill:none" points="1880.89,686.448 1880.89,667.55 "></polyline>
<polyline clip-path="url(#clip280)" style="stroke:#000000; stroke-linecap:round; stroke-linejoin:round; stroke-width:4; stroke-opacity:1; fill:none" points="2103.47,686.448 2103.47,667.55 "></polyline>
<polyline clip-path="url(#clip280)" style="stroke:#000000; stroke-linecap:round; stroke-linejoin:round; stroke-width:4; stroke-opacity:1; fill:none" points="2326.05,686.448 2326.05,667.55 "></polyline>
<path clip-path="url(#clip280)" d="M1398.03 717.367 Q1394.42 717.367 1392.59 720.931 Q1390.78 724.473 1390.78 731.603 Q1390.78 738.709 1392.59 742.274 Q1394.42 745.815 1398.03 745.815 Q1401.66 745.815 1403.47 742.274 Q1405.3 738.709 1405.3 731.603 Q1405.3 724.473 1403.47 720.931 Q1401.66 717.367 1398.03 717.367 M1398.03 713.663 Q1403.84 713.663 1406.9 718.269 Q1409.97 722.853 1409.97 731.603 Q1409.97 740.329 1406.9 744.936 Q1403.84 749.519 1398.03 749.519 Q1392.22 749.519 1389.14 744.936 Q1386.09 740.329 1386.09 731.603 Q1386.09 722.853 1389.14 718.269 Q1392.22 713.663 1398.03 713.663 Z" fill="#000000" fill-rule="nonzero" fill-opacity="1"></path><path clip-path="url(#clip280)" d="M1418.19 742.968 L1423.08 742.968 L1423.08 748.848 L1418.19 748.848 L1418.19 742.968 Z" fill="#000000" fill-rule="nonzero" fill-opacity="1"></path><path clip-path="url(#clip280)" d="M1443.26 717.367 Q1439.65 717.367 1437.82 720.931 Q1436.02 724.473 1436.02 731.603 Q1436.02 738.709 1437.82 742.274 Q1439.65 745.815 1443.26 745.815 Q1446.9 745.815 1448.7 742.274 Q1450.53 738.709 1450.53 731.603 Q1450.53 724.473 1448.7 720.931 Q1446.9 717.367 1443.26 717.367 M1443.26 713.663 Q1449.07 713.663 1452.13 718.269 Q1455.21 722.853 1455.21 731.603 Q1455.21 740.329 1452.13 744.936 Q1449.07 749.519 1443.26 749.519 Q1437.45 749.519 1434.37 744.936 Q1431.32 740.329 1431.32 731.603 Q1431.32 722.853 1434.37 718.269 Q1437.45 713.663 1443.26 713.663 Z" fill="#000000" fill-rule="nonzero" fill-opacity="1"></path><path clip-path="url(#clip280)" d="M1473.42 717.367 Q1469.81 717.367 1467.98 720.931 Q1466.18 724.473 1466.18 731.603 Q1466.18 738.709 1467.98 742.274 Q1469.81 745.815 1473.42 745.815 Q1477.06 745.815 1478.86 742.274 Q1480.69 738.709 1480.69 731.603 Q1480.69 724.473 1478.86 720.931 Q1477.06 717.367 1473.42 717.367 M1473.42 713.663 Q1479.23 713.663 1482.29 718.269 Q1485.37 722.853 1485.37 731.603 Q1485.37 740.329 1482.29 744.936 Q1479.23 749.519 1473.42 749.519 Q1467.61 749.519 1464.53 744.936 Q1461.48 740.329 1461.48 731.603 Q1461.48 722.853 1464.53 718.269 Q1467.61 713.663 1473.42 713.663 Z" fill="#000000" fill-rule="nonzero" fill-opacity="1"></path><path clip-path="url(#clip280)" d="M1621.11 717.367 Q1617.5 717.367 1615.67 720.931 Q1613.86 724.473 1613.86 731.603 Q1613.86 738.709 1615.67 742.274 Q1617.5 745.815 1621.11 745.815 Q1624.74 745.815 1626.55 742.274 Q1628.38 738.709 1628.38 731.603 Q1628.38 724.473 1626.55 720.931 Q1624.74 717.367 1621.11 717.367 M1621.11 713.663 Q1626.92 713.663 1629.97 718.269 Q1633.05 722.853 1633.05 731.603 Q1633.05 740.329 1629.97 744.936 Q1626.92 749.519 1621.11 749.519 Q1615.3 749.519 1612.22 744.936 Q1609.16 740.329 1609.16 731.603 Q1609.16 722.853 1612.22 718.269 Q1615.3 713.663 1621.11 713.663 Z" fill="#000000" fill-rule="nonzero" fill-opacity="1"></path><path clip-path="url(#clip280)" d="M1641.27 742.968 L1646.15 742.968 L1646.15 748.848 L1641.27 748.848 L1641.27 742.968 Z" fill="#000000" fill-rule="nonzero" fill-opacity="1"></path><path clip-path="url(#clip280)" d="M1660.37 744.913 L1676.69 744.913 L1676.69 748.848 L1654.74 748.848 L1654.74 744.913 Q1657.4 742.158 1661.99 737.528 Q1666.59 732.876 1667.77 731.533 Q1670.02 729.01 1670.9 727.274 Q1671.8 725.515 1671.8 723.825 Q1671.8 721.07 1669.86 719.334 Q1667.94 717.598 1664.83 717.598 Q1662.64 717.598 1660.18 718.362 Q1657.75 719.126 1654.97 720.677 L1654.97 715.955 Q1657.8 714.82 1660.25 714.242 Q1662.7 713.663 1664.74 713.663 Q1670.11 713.663 1673.31 716.348 Q1676.5 719.033 1676.5 723.524 Q1676.5 725.654 1675.69 727.575 Q1674.9 729.473 1672.8 732.066 Q1672.22 732.737 1669.12 735.954 Q1666.01 739.149 1660.37 744.913 Z" fill="#000000" fill-rule="nonzero" fill-opacity="1"></path><path clip-path="url(#clip280)" d="M1686.55 714.288 L1704.9 714.288 L1704.9 718.223 L1690.83 718.223 L1690.83 726.695 Q1691.85 726.348 1692.87 726.186 Q1693.88 726.001 1694.9 726.001 Q1700.69 726.001 1704.07 729.172 Q1707.45 732.343 1707.45 737.76 Q1707.45 743.339 1703.98 746.44 Q1700.51 749.519 1694.19 749.519 Q1692.01 749.519 1689.74 749.149 Q1687.5 748.778 1685.09 748.038 L1685.09 743.339 Q1687.17 744.473 1689.39 745.028 Q1691.62 745.584 1694.09 745.584 Q1698.1 745.584 1700.44 743.478 Q1702.77 741.371 1702.77 737.76 Q1702.77 734.149 1700.44 732.042 Q1698.1 729.936 1694.09 729.936 Q1692.22 729.936 1690.34 730.353 Q1688.49 730.769 1686.55 731.649 L1686.55 714.288 Z" fill="#000000" fill-rule="nonzero" fill-opacity="1"></path><path clip-path="url(#clip280)" d="M1843.19 717.367 Q1839.58 717.367 1837.75 720.931 Q1835.94 724.473 1835.94 731.603 Q1835.94 738.709 1837.75 742.274 Q1839.58 745.815 1843.19 745.815 Q1846.82 745.815 1848.63 742.274 Q1850.46 738.709 1850.46 731.603 Q1850.46 724.473 1848.63 720.931 Q1846.82 717.367 1843.19 717.367 M1843.19 713.663 Q1849 713.663 1852.06 718.269 Q1855.13 722.853 1855.13 731.603 Q1855.13 740.329 1852.06 744.936 Q1849 749.519 1843.19 749.519 Q1837.38 749.519 1834.3 744.936 Q1831.25 740.329 1831.25 731.603 Q1831.25 722.853 1834.3 718.269 Q1837.38 713.663 1843.19 713.663 Z" fill="#000000" fill-rule="nonzero" fill-opacity="1"></path><path clip-path="url(#clip280)" d="M1863.35 742.968 L1868.24 742.968 L1868.24 748.848 L1863.35 748.848 L1863.35 742.968 Z" fill="#000000" fill-rule="nonzero" fill-opacity="1"></path><path clip-path="url(#clip280)" d="M1878.47 714.288 L1896.82 714.288 L1896.82 718.223 L1882.75 718.223 L1882.75 726.695 Q1883.77 726.348 1884.79 726.186 Q1885.81 726.001 1886.82 726.001 Q1892.61 726.001 1895.99 729.172 Q1899.37 732.343 1899.37 737.76 Q1899.37 743.339 1895.9 746.44 Q1892.43 749.519 1886.11 749.519 Q1883.93 749.519 1881.66 749.149 Q1879.42 748.778 1877.01 748.038 L1877.01 743.339 Q1879.09 744.473 1881.31 745.028 Q1883.54 745.584 1886.01 745.584 Q1890.02 745.584 1892.36 743.478 Q1894.69 741.371 1894.69 737.76 Q1894.69 734.149 1892.36 732.042 Q1890.02 729.936 1886.01 729.936 Q1884.14 729.936 1882.26 730.353 Q1880.41 730.769 1878.47 731.649 L1878.47 714.288 Z" fill="#000000" fill-rule="nonzero" fill-opacity="1"></path><path clip-path="url(#clip280)" d="M1918.58 717.367 Q1914.97 717.367 1913.14 720.931 Q1911.34 724.473 1911.34 731.603 Q1911.34 738.709 1913.14 742.274 Q1914.97 745.815 1918.58 745.815 Q1922.22 745.815 1924.02 742.274 Q1925.85 738.709 1925.85 731.603 Q1925.85 724.473 1924.02 720.931 Q1922.22 717.367 1918.58 717.367 M1918.58 713.663 Q1924.39 713.663 1927.45 718.269 Q1930.53 722.853 1930.53 731.603 Q1930.53 740.329 1927.45 744.936 Q1924.39 749.519 1918.58 749.519 Q1912.77 749.519 1909.69 744.936 Q1906.64 740.329 1906.64 731.603 Q1906.64 722.853 1909.69 718.269 Q1912.77 713.663 1918.58 713.663 Z" fill="#000000" fill-rule="nonzero" fill-opacity="1"></path><path clip-path="url(#clip280)" d="M2066.27 717.367 Q2062.66 717.367 2060.83 720.931 Q2059.02 724.473 2059.02 731.603 Q2059.02 738.709 2060.83 742.274 Q2062.66 745.815 2066.27 745.815 Q2069.9 745.815 2071.71 742.274 Q2073.54 738.709 2073.54 731.603 Q2073.54 724.473 2071.71 720.931 Q2069.9 717.367 2066.27 717.367 M2066.27 713.663 Q2072.08 713.663 2075.13 718.269 Q2078.21 722.853 2078.21 731.603 Q2078.21 740.329 2075.13 744.936 Q2072.08 749.519 2066.27 749.519 Q2060.46 749.519 2057.38 744.936 Q2054.32 740.329 2054.32 731.603 Q2054.32 722.853 2057.38 718.269 Q2060.46 713.663 2066.27 713.663 Z" fill="#000000" fill-rule="nonzero" fill-opacity="1"></path><path clip-path="url(#clip280)" d="M2086.43 742.968 L2091.31 742.968 L2091.31 748.848 L2086.43 748.848 L2086.43 742.968 Z" fill="#000000" fill-rule="nonzero" fill-opacity="1"></path><path clip-path="url(#clip280)" d="M2100.32 714.288 L2122.54 714.288 L2122.54 716.279 L2109.99 748.848 L2105.11 748.848 L2116.92 718.223 L2100.32 718.223 L2100.32 714.288 Z" fill="#000000" fill-rule="nonzero" fill-opacity="1"></path><path clip-path="url(#clip280)" d="M2131.71 714.288 L2150.06 714.288 L2150.06 718.223 L2135.99 718.223 L2135.99 726.695 Q2137.01 726.348 2138.03 726.186 Q2139.04 726.001 2140.06 726.001 Q2145.85 726.001 2149.23 729.172 Q2152.61 732.343 2152.61 737.76 Q2152.61 743.339 2149.14 746.44 Q2145.67 749.519 2139.35 749.519 Q2137.17 749.519 2134.9 749.149 Q2132.66 748.778 2130.25 748.038 L2130.25 743.339 Q2132.33 744.473 2134.55 745.028 Q2136.78 745.584 2139.25 745.584 Q2143.26 745.584 2145.6 743.478 Q2147.93 741.371 2147.93 737.76 Q2147.93 734.149 2145.6 732.042 Q2143.26 729.936 2139.25 729.936 Q2137.38 729.936 2135.5 730.353 Q2133.65 730.769 2131.71 731.649 L2131.71 714.288 Z" fill="#000000" fill-rule="nonzero" fill-opacity="1"></path><path clip-path="url(#clip280)" d="M2278.12 744.913 L2285.76 744.913 L2285.76 718.547 L2277.45 720.214 L2277.45 715.955 L2285.71 714.288 L2290.39 714.288 L2290.39 744.913 L2298.03 744.913 L2298.03 748.848 L2278.12 748.848 L2278.12 744.913 Z" fill="#000000" fill-rule="nonzero" fill-opacity="1"></path><path clip-path="url(#clip280)" d="M2307.47 742.968 L2312.35 742.968 L2312.35 748.848 L2307.47 748.848 L2307.47 742.968 Z" fill="#000000" fill-rule="nonzero" fill-opacity="1"></path><path clip-path="url(#clip280)" d="M2332.54 717.367 Q2328.93 717.367 2327.1 720.931 Q2325.29 724.473 2325.29 731.603 Q2325.29 738.709 2327.1 742.274 Q2328.93 745.815 2332.54 745.815 Q2336.17 745.815 2337.98 742.274 Q2339.81 738.709 2339.81 731.603 Q2339.81 724.473 2337.98 720.931 Q2336.17 717.367 2332.54 717.367 M2332.54 713.663 Q2338.35 713.663 2341.41 718.269 Q2344.48 722.853 2344.48 731.603 Q2344.48 740.329 2341.41 744.936 Q2338.35 749.519 2332.54 749.519 Q2326.73 749.519 2323.65 744.936 Q2320.59 740.329 2320.59 731.603 Q2320.59 722.853 2323.65 718.269 Q2326.73 713.663 2332.54 713.663 Z" fill="#000000" fill-rule="nonzero" fill-opacity="1"></path><path clip-path="url(#clip280)" d="M2362.7 717.367 Q2359.09 717.367 2357.26 720.931 Q2355.46 724.473 2355.46 731.603 Q2355.46 738.709 2357.26 742.274 Q2359.09 745.815 2362.7 745.815 Q2366.34 745.815 2368.14 742.274 Q2369.97 738.709 2369.97 731.603 Q2369.97 724.473 2368.14 720.931 Q2366.34 717.367 2362.7 717.367 M2362.7 713.663 Q2368.51 713.663 2371.57 718.269 Q2374.65 722.853 2374.65 731.603 Q2374.65 740.329 2371.57 744.936 Q2368.51 749.519 2362.7 749.519 Q2356.89 749.519 2353.81 744.936 Q2350.76 740.329 2350.76 731.603 Q2350.76 722.853 2353.81 718.269 Q2356.89 713.663 2362.7 713.663 Z" fill="#000000" fill-rule="nonzero" fill-opacity="1"></path><polyline clip-path="url(#clip283)" style="stroke:#000000; stroke-linecap:round; stroke-linejoin:round; stroke-width:2; stroke-opacity:0.1; fill:none" points="1409.02,594.276 2352.76,594.276 "></polyline>
<polyline clip-path="url(#clip283)" style="stroke:#000000; stroke-linecap:round; stroke-linejoin:round; stroke-width:2; stroke-opacity:0.1; fill:none" points="1409.02,479.586 2352.76,479.586 "></polyline>
<polyline clip-path="url(#clip283)" style="stroke:#000000; stroke-linecap:round; stroke-linejoin:round; stroke-width:2; stroke-opacity:0.1; fill:none" points="1409.02,364.896 2352.76,364.896 "></polyline>
<polyline clip-path="url(#clip283)" style="stroke:#000000; stroke-linecap:round; stroke-linejoin:round; stroke-width:2; stroke-opacity:0.1; fill:none" points="1409.02,250.206 2352.76,250.206 "></polyline>
<polyline clip-path="url(#clip283)" style="stroke:#000000; stroke-linecap:round; stroke-linejoin:round; stroke-width:2; stroke-opacity:0.1; fill:none" points="1409.02,135.516 2352.76,135.516 "></polyline>
<polyline clip-path="url(#clip280)" style="stroke:#000000; stroke-linecap:round; stroke-linejoin:round; stroke-width:4; stroke-opacity:1; fill:none" points="1409.02,686.448 1409.02,123.472 "></polyline>
<polyline clip-path="url(#clip280)" style="stroke:#000000; stroke-linecap:round; stroke-linejoin:round; stroke-width:4; stroke-opacity:1; fill:none" points="1409.02,594.276 1427.91,594.276 "></polyline>
<polyline clip-path="url(#clip280)" style="stroke:#000000; stroke-linecap:round; stroke-linejoin:round; stroke-width:4; stroke-opacity:1; fill:none" points="1409.02,479.586 1427.91,479.586 "></polyline>
<polyline clip-path="url(#clip280)" style="stroke:#000000; stroke-linecap:round; stroke-linejoin:round; stroke-width:4; stroke-opacity:1; fill:none" points="1409.02,364.896 1427.91,364.896 "></polyline>
<polyline clip-path="url(#clip280)" style="stroke:#000000; stroke-linecap:round; stroke-linejoin:round; stroke-width:4; stroke-opacity:1; fill:none" points="1409.02,250.206 1427.91,250.206 "></polyline>
<polyline clip-path="url(#clip280)" style="stroke:#000000; stroke-linecap:round; stroke-linejoin:round; stroke-width:4; stroke-opacity:1; fill:none" points="1409.02,135.516 1427.91,135.516 "></polyline>
<path clip-path="url(#clip280)" d="M1236.91 594.727 L1266.58 594.727 L1266.58 598.662 L1236.91 598.662 L1236.91 594.727 Z" fill="#000000" fill-rule="nonzero" fill-opacity="1"></path><path clip-path="url(#clip280)" d="M1286.67 580.074 Q1283.06 580.074 1281.24 583.639 Q1279.43 587.181 1279.43 594.31 Q1279.43 601.417 1281.24 604.982 Q1283.06 608.523 1286.67 608.523 Q1290.31 608.523 1292.11 604.982 Q1293.94 601.417 1293.94 594.31 Q1293.94 587.181 1292.11 583.639 Q1290.31 580.074 1286.67 580.074 M1286.67 576.371 Q1292.48 576.371 1295.54 580.977 Q1298.62 585.56 1298.62 594.31 Q1298.62 603.037 1295.54 607.644 Q1292.48 612.227 1286.67 612.227 Q1280.86 612.227 1277.79 607.644 Q1274.73 603.037 1274.73 594.31 Q1274.73 585.56 1277.79 580.977 Q1280.86 576.371 1286.67 576.371 Z" fill="#000000" fill-rule="nonzero" fill-opacity="1"></path><path clip-path="url(#clip280)" d="M1306.84 605.676 L1311.72 605.676 L1311.72 611.556 L1306.84 611.556 L1306.84 605.676 Z" fill="#000000" fill-rule="nonzero" fill-opacity="1"></path><path clip-path="url(#clip280)" d="M1320.73 576.996 L1342.95 576.996 L1342.95 578.986 L1330.4 611.556 L1325.52 611.556 L1337.32 580.931 L1320.73 580.931 L1320.73 576.996 Z" fill="#000000" fill-rule="nonzero" fill-opacity="1"></path><path clip-path="url(#clip280)" d="M1352.11 576.996 L1370.47 576.996 L1370.47 580.931 L1356.4 580.931 L1356.4 589.403 Q1357.42 589.056 1358.43 588.894 Q1359.45 588.708 1360.47 588.708 Q1366.26 588.708 1369.64 591.88 Q1373.02 595.051 1373.02 600.468 Q1373.02 606.046 1369.54 609.148 Q1366.07 612.227 1359.75 612.227 Q1357.58 612.227 1355.31 611.857 Q1353.06 611.486 1350.66 610.745 L1350.66 606.046 Q1352.74 607.181 1354.96 607.736 Q1357.18 608.292 1359.66 608.292 Q1363.67 608.292 1366 606.185 Q1368.34 604.079 1368.34 600.468 Q1368.34 596.857 1366 594.75 Q1363.67 592.644 1359.66 592.644 Q1357.79 592.644 1355.91 593.06 Q1354.06 593.477 1352.11 594.357 L1352.11 576.996 Z" fill="#000000" fill-rule="nonzero" fill-opacity="1"></path><path clip-path="url(#clip280)" d="M1235.91 480.037 L1265.59 480.037 L1265.59 483.972 L1235.91 483.972 L1235.91 480.037 Z" fill="#000000" fill-rule="nonzero" fill-opacity="1"></path><path clip-path="url(#clip280)" d="M1285.68 465.384 Q1282.07 465.384 1280.24 468.949 Q1278.43 472.491 1278.43 479.62 Q1278.43 486.727 1280.24 490.292 Q1282.07 493.833 1285.68 493.833 Q1289.31 493.833 1291.12 490.292 Q1292.95 486.727 1292.95 479.62 Q1292.95 472.491 1291.12 468.949 Q1289.31 465.384 1285.68 465.384 M1285.68 461.681 Q1291.49 461.681 1294.55 466.287 Q1297.62 470.87 1297.62 479.62 Q1297.62 488.347 1294.55 492.954 Q1291.49 497.537 1285.68 497.537 Q1279.87 497.537 1276.79 492.954 Q1273.74 488.347 1273.74 479.62 Q1273.74 470.87 1276.79 466.287 Q1279.87 461.681 1285.68 461.681 Z" fill="#000000" fill-rule="nonzero" fill-opacity="1"></path><path clip-path="url(#clip280)" d="M1305.84 490.986 L1310.73 490.986 L1310.73 496.866 L1305.84 496.866 L1305.84 490.986 Z" fill="#000000" fill-rule="nonzero" fill-opacity="1"></path><path clip-path="url(#clip280)" d="M1320.96 462.306 L1339.31 462.306 L1339.31 466.241 L1325.24 466.241 L1325.24 474.713 Q1326.26 474.366 1327.28 474.204 Q1328.29 474.019 1329.31 474.019 Q1335.1 474.019 1338.48 477.19 Q1341.86 480.361 1341.86 485.778 Q1341.86 491.356 1338.39 494.458 Q1334.92 497.537 1328.6 497.537 Q1326.42 497.537 1324.15 497.167 Q1321.91 496.796 1319.5 496.056 L1319.5 491.356 Q1321.58 492.491 1323.8 493.046 Q1326.03 493.602 1328.5 493.602 Q1332.51 493.602 1334.85 491.495 Q1337.18 489.389 1337.18 485.778 Q1337.18 482.167 1334.85 480.06 Q1332.51 477.954 1328.5 477.954 Q1326.63 477.954 1324.75 478.37 Q1322.9 478.787 1320.96 479.667 L1320.96 462.306 Z" fill="#000000" fill-rule="nonzero" fill-opacity="1"></path><path clip-path="url(#clip280)" d="M1361.07 465.384 Q1357.46 465.384 1355.63 468.949 Q1353.83 472.491 1353.83 479.62 Q1353.83 486.727 1355.63 490.292 Q1357.46 493.833 1361.07 493.833 Q1364.71 493.833 1366.51 490.292 Q1368.34 486.727 1368.34 479.62 Q1368.34 472.491 1366.51 468.949 Q1364.71 465.384 1361.07 465.384 M1361.07 461.681 Q1366.88 461.681 1369.94 466.287 Q1373.02 470.87 1373.02 479.62 Q1373.02 488.347 1369.94 492.954 Q1366.88 497.537 1361.07 497.537 Q1355.26 497.537 1352.18 492.954 Q1349.13 488.347 1349.13 479.62 Q1349.13 470.87 1352.18 466.287 Q1355.26 461.681 1361.07 461.681 Z" fill="#000000" fill-rule="nonzero" fill-opacity="1"></path><path clip-path="url(#clip280)" d="M1236.91 365.347 L1266.58 365.347 L1266.58 369.282 L1236.91 369.282 L1236.91 365.347 Z" fill="#000000" fill-rule="nonzero" fill-opacity="1"></path><path clip-path="url(#clip280)" d="M1286.67 350.694 Q1283.06 350.694 1281.24 354.259 Q1279.43 357.801 1279.43 364.931 Q1279.43 372.037 1281.24 375.602 Q1283.06 379.143 1286.67 379.143 Q1290.31 379.143 1292.11 375.602 Q1293.94 372.037 1293.94 364.931 Q1293.94 357.801 1292.11 354.259 Q1290.31 350.694 1286.67 350.694 M1286.67 346.991 Q1292.48 346.991 1295.54 351.597 Q1298.62 356.181 1298.62 364.931 Q1298.62 373.657 1295.54 378.264 Q1292.48 382.847 1286.67 382.847 Q1280.86 382.847 1277.79 378.264 Q1274.73 373.657 1274.73 364.931 Q1274.73 356.181 1277.79 351.597 Q1280.86 346.991 1286.67 346.991 Z" fill="#000000" fill-rule="nonzero" fill-opacity="1"></path><path clip-path="url(#clip280)" d="M1306.84 376.296 L1311.72 376.296 L1311.72 382.176 L1306.84 382.176 L1306.84 376.296 Z" fill="#000000" fill-rule="nonzero" fill-opacity="1"></path><path clip-path="url(#clip280)" d="M1325.93 378.241 L1342.25 378.241 L1342.25 382.176 L1320.31 382.176 L1320.31 378.241 Q1322.97 375.486 1327.55 370.856 Q1332.16 366.204 1333.34 364.861 Q1335.59 362.338 1336.47 360.602 Q1337.37 358.843 1337.37 357.153 Q1337.37 354.398 1335.42 352.662 Q1333.5 350.926 1330.4 350.926 Q1328.2 350.926 1325.75 351.69 Q1323.32 352.454 1320.54 354.005 L1320.54 349.282 Q1323.36 348.148 1325.82 347.569 Q1328.27 346.991 1330.31 346.991 Q1335.68 346.991 1338.87 349.676 Q1342.07 352.361 1342.07 356.852 Q1342.07 358.981 1341.26 360.903 Q1340.47 362.801 1338.36 365.393 Q1337.79 366.065 1334.68 369.282 Q1331.58 372.477 1325.93 378.241 Z" fill="#000000" fill-rule="nonzero" fill-opacity="1"></path><path clip-path="url(#clip280)" d="M1352.11 347.616 L1370.47 347.616 L1370.47 351.551 L1356.4 351.551 L1356.4 360.023 Q1357.42 359.676 1358.43 359.514 Q1359.45 359.329 1360.47 359.329 Q1366.26 359.329 1369.64 362.5 Q1373.02 365.671 1373.02 371.088 Q1373.02 376.667 1369.54 379.768 Q1366.07 382.847 1359.75 382.847 Q1357.58 382.847 1355.31 382.477 Q1353.06 382.106 1350.66 381.366 L1350.66 376.667 Q1352.74 377.801 1354.96 378.356 Q1357.18 378.912 1359.66 378.912 Q1363.67 378.912 1366 376.805 Q1368.34 374.699 1368.34 371.088 Q1368.34 367.477 1366 365.37 Q1363.67 363.264 1359.66 363.264 Q1357.79 363.264 1355.91 363.681 Q1354.06 364.097 1352.11 364.977 L1352.11 347.616 Z" fill="#000000" fill-rule="nonzero" fill-opacity="1"></path><path clip-path="url(#clip280)" d="M1285.68 236.005 Q1282.07 236.005 1280.24 239.569 Q1278.43 243.111 1278.43 250.241 Q1278.43 257.347 1280.24 260.912 Q1282.07 264.453 1285.68 264.453 Q1289.31 264.453 1291.12 260.912 Q1292.95 257.347 1292.95 250.241 Q1292.95 243.111 1291.12 239.569 Q1289.31 236.005 1285.68 236.005 M1285.68 232.301 Q1291.49 232.301 1294.55 236.907 Q1297.62 241.491 1297.62 250.241 Q1297.62 258.967 1294.55 263.574 Q1291.49 268.157 1285.68 268.157 Q1279.87 268.157 1276.79 263.574 Q1273.74 258.967 1273.74 250.241 Q1273.74 241.491 1276.79 236.907 Q1279.87 232.301 1285.68 232.301 Z" fill="#000000" fill-rule="nonzero" fill-opacity="1"></path><path clip-path="url(#clip280)" d="M1305.84 261.606 L1310.73 261.606 L1310.73 267.486 L1305.84 267.486 L1305.84 261.606 Z" fill="#000000" fill-rule="nonzero" fill-opacity="1"></path><path clip-path="url(#clip280)" d="M1330.91 236.005 Q1327.3 236.005 1325.47 239.569 Q1323.67 243.111 1323.67 250.241 Q1323.67 257.347 1325.47 260.912 Q1327.3 264.453 1330.91 264.453 Q1334.54 264.453 1336.35 260.912 Q1338.18 257.347 1338.18 250.241 Q1338.18 243.111 1336.35 239.569 Q1334.54 236.005 1330.91 236.005 M1330.91 232.301 Q1336.72 232.301 1339.78 236.907 Q1342.86 241.491 1342.86 250.241 Q1342.86 258.967 1339.78 263.574 Q1336.72 268.157 1330.91 268.157 Q1325.1 268.157 1322.02 263.574 Q1318.97 258.967 1318.97 250.241 Q1318.97 241.491 1322.02 236.907 Q1325.1 232.301 1330.91 232.301 Z" fill="#000000" fill-rule="nonzero" fill-opacity="1"></path><path clip-path="url(#clip280)" d="M1361.07 236.005 Q1357.46 236.005 1355.63 239.569 Q1353.83 243.111 1353.83 250.241 Q1353.83 257.347 1355.63 260.912 Q1357.46 264.453 1361.07 264.453 Q1364.71 264.453 1366.51 260.912 Q1368.34 257.347 1368.34 250.241 Q1368.34 243.111 1366.51 239.569 Q1364.71 236.005 1361.07 236.005 M1361.07 232.301 Q1366.88 232.301 1369.94 236.907 Q1373.02 241.491 1373.02 250.241 Q1373.02 258.967 1369.94 263.574 Q1366.88 268.157 1361.07 268.157 Q1355.26 268.157 1352.18 263.574 Q1349.13 258.967 1349.13 250.241 Q1349.13 241.491 1352.18 236.907 Q1355.26 232.301 1361.07 232.301 Z" fill="#000000" fill-rule="nonzero" fill-opacity="1"></path><path clip-path="url(#clip280)" d="M1286.67 121.315 Q1283.06 121.315 1281.24 124.879 Q1279.43 128.421 1279.43 135.551 Q1279.43 142.657 1281.24 146.222 Q1283.06 149.764 1286.67 149.764 Q1290.31 149.764 1292.11 146.222 Q1293.94 142.657 1293.94 135.551 Q1293.94 128.421 1292.11 124.879 Q1290.31 121.315 1286.67 121.315 M1286.67 117.611 Q1292.48 117.611 1295.54 122.217 Q1298.62 126.801 1298.62 135.551 Q1298.62 144.277 1295.54 148.884 Q1292.48 153.467 1286.67 153.467 Q1280.86 153.467 1277.79 148.884 Q1274.73 144.277 1274.73 135.551 Q1274.73 126.801 1277.79 122.217 Q1280.86 117.611 1286.67 117.611 Z" fill="#000000" fill-rule="nonzero" fill-opacity="1"></path><path clip-path="url(#clip280)" d="M1306.84 146.916 L1311.72 146.916 L1311.72 152.796 L1306.84 152.796 L1306.84 146.916 Z" fill="#000000" fill-rule="nonzero" fill-opacity="1"></path><path clip-path="url(#clip280)" d="M1325.93 148.861 L1342.25 148.861 L1342.25 152.796 L1320.31 152.796 L1320.31 148.861 Q1322.97 146.106 1327.55 141.477 Q1332.16 136.824 1333.34 135.481 Q1335.59 132.958 1336.47 131.222 Q1337.37 129.463 1337.37 127.773 Q1337.37 125.018 1335.42 123.282 Q1333.5 121.546 1330.4 121.546 Q1328.2 121.546 1325.75 122.31 Q1323.32 123.074 1320.54 124.625 L1320.54 119.903 Q1323.36 118.768 1325.82 118.19 Q1328.27 117.611 1330.31 117.611 Q1335.68 117.611 1338.87 120.296 Q1342.07 122.981 1342.07 127.472 Q1342.07 129.602 1341.26 131.523 Q1340.47 133.421 1338.36 136.014 Q1337.79 136.685 1334.68 139.903 Q1331.58 143.097 1325.93 148.861 Z" fill="#000000" fill-rule="nonzero" fill-opacity="1"></path><path clip-path="url(#clip280)" d="M1352.11 118.236 L1370.47 118.236 L1370.47 122.171 L1356.4 122.171 L1356.4 130.643 Q1357.42 130.296 1358.43 130.134 Q1359.45 129.949 1360.47 129.949 Q1366.26 129.949 1369.64 133.12 Q1373.02 136.291 1373.02 141.708 Q1373.02 147.287 1369.54 150.389 Q1366.07 153.467 1359.75 153.467 Q1357.58 153.467 1355.31 153.097 Q1353.06 152.727 1350.66 151.986 L1350.66 147.287 Q1352.74 148.421 1354.96 148.977 Q1357.18 149.532 1359.66 149.532 Q1363.67 149.532 1366 147.426 Q1368.34 145.319 1368.34 141.708 Q1368.34 138.097 1366 135.991 Q1363.67 133.884 1359.66 133.884 Q1357.79 133.884 1355.91 134.301 Q1354.06 134.717 1352.11 135.597 L1352.11 118.236 Z" fill="#000000" fill-rule="nonzero" fill-opacity="1"></path><path clip-path="url(#clip280)" d="M1693.29 63.9476 L1693.29 47.7034 L1679.92 47.7034 L1679.92 40.9789 L1701.39 40.9789 L1701.39 66.9452 Q1696.65 70.3075 1690.94 72.0494 Q1685.23 73.7508 1678.75 73.7508 Q1664.57 73.7508 1656.55 65.4869 Q1648.57 57.1826 1648.57 42.3968 Q1648.57 27.5705 1656.55 19.3066 Q1664.57 11.0023 1678.75 11.0023 Q1684.66 11.0023 1689.97 12.4606 Q1695.31 13.9189 1699.81 16.7545 L1699.81 25.464 Q1695.27 21.6156 1690.17 19.6712 Q1685.07 17.7268 1679.43 17.7268 Q1668.34 17.7268 1662.75 23.9246 Q1657.2 30.1225 1657.2 42.3968 Q1657.2 54.6305 1662.75 60.8284 Q1668.34 67.0263 1679.43 67.0263 Q1683.77 67.0263 1687.17 66.2971 Q1690.57 65.5274 1693.29 63.9476 Z" fill="#000000" fill-rule="nonzero" fill-opacity="1"></path><path clip-path="url(#clip280)" d="M1705 12.096 L1756.16 12.096 L1756.16 18.9825 L1734.69 18.9825 L1734.69 72.576 L1726.47 72.576 L1726.47 18.9825 L1705 18.9825 L1705 12.096 Z" fill="#000000" fill-rule="nonzero" fill-opacity="1"></path><path clip-path="url(#clip280)" d="M1826.69 14.0809 L1826.69 22.0612 Q1822.03 19.8332 1817.89 18.7395 Q1813.76 17.6457 1809.91 17.6457 Q1803.23 17.6457 1799.58 20.2383 Q1795.98 22.8309 1795.98 27.611 Q1795.98 31.6214 1798.37 33.6873 Q1800.8 35.7128 1807.52 36.9686 L1812.47 37.9813 Q1821.62 39.7232 1825.96 44.1387 Q1830.33 48.5136 1830.33 55.8863 Q1830.33 64.6767 1824.42 69.2137 Q1818.54 73.7508 1807.16 73.7508 Q1802.87 73.7508 1798 72.7785 Q1793.18 71.8063 1788 69.9024 L1788 61.4765 Q1792.98 64.2716 1797.76 65.6895 Q1802.54 67.1073 1807.16 67.1073 Q1814.17 67.1073 1817.98 64.3527 Q1821.78 61.598 1821.78 56.4939 Q1821.78 52.0379 1819.03 49.5264 Q1816.32 47.0148 1810.08 45.759 L1805.09 44.7868 Q1795.94 42.9639 1791.85 39.075 Q1787.76 35.1862 1787.76 28.2591 Q1787.76 20.2383 1793.39 15.6203 Q1799.06 11.0023 1808.98 11.0023 Q1813.24 11.0023 1817.65 11.7719 Q1822.07 12.5416 1826.69 14.0809 Z" fill="#000000" fill-rule="nonzero" fill-opacity="1"></path><path clip-path="url(#clip280)" d="M1860.35 32.4315 Q1854.35 32.4315 1850.87 37.1306 Q1847.39 41.7891 1847.39 49.9314 Q1847.39 58.0738 1850.83 62.7728 Q1854.31 67.4314 1860.35 67.4314 Q1866.3 67.4314 1869.79 62.7323 Q1873.27 58.0333 1873.27 49.9314 Q1873.27 41.8701 1869.79 37.1711 Q1866.3 32.4315 1860.35 32.4315 M1860.35 26.1121 Q1870.07 26.1121 1875.62 32.4315 Q1881.17 38.7509 1881.17 49.9314 Q1881.17 61.0714 1875.62 67.4314 Q1870.07 73.7508 1860.35 73.7508 Q1850.59 73.7508 1845.04 67.4314 Q1839.53 61.0714 1839.53 49.9314 Q1839.53 38.7509 1845.04 32.4315 Q1850.59 26.1121 1860.35 26.1121 Z" fill="#000000" fill-rule="nonzero" fill-opacity="1"></path><path clip-path="url(#clip280)" d="M1893.53 9.54393 L1900.98 9.54393 L1900.98 72.576 L1893.53 72.576 L1893.53 9.54393 Z" fill="#000000" fill-rule="nonzero" fill-opacity="1"></path><path clip-path="url(#clip280)" d="M1915.81 54.671 L1915.81 27.2059 L1923.26 27.2059 L1923.26 54.3874 Q1923.26 60.8284 1925.77 64.0691 Q1928.28 67.2693 1933.31 67.2693 Q1939.34 67.2693 1942.82 63.421 Q1946.35 59.5726 1946.35 52.9291 L1946.35 27.2059 L1953.8 27.2059 L1953.8 72.576 L1946.35 72.576 L1946.35 65.6084 Q1943.63 69.7404 1940.03 71.7658 Q1936.46 73.7508 1931.73 73.7508 Q1923.91 73.7508 1919.86 68.8897 Q1915.81 64.0286 1915.81 54.671 M1934.56 26.1121 L1934.56 26.1121 Z" fill="#000000" fill-rule="nonzero" fill-opacity="1"></path><path clip-path="url(#clip280)" d="M1976.53 14.324 L1976.53 27.2059 L1991.88 27.2059 L1991.88 32.9987 L1976.53 32.9987 L1976.53 57.6282 Q1976.53 63.1779 1978.03 64.7578 Q1979.57 66.3376 1984.22 66.3376 L1991.88 66.3376 L1991.88 72.576 L1984.22 72.576 Q1975.6 72.576 1972.32 69.3758 Q1969.03 66.1351 1969.03 57.6282 L1969.03 32.9987 L1963.57 32.9987 L1963.57 27.2059 L1969.03 27.2059 L1969.03 14.324 L1976.53 14.324 Z" fill="#000000" fill-rule="nonzero" fill-opacity="1"></path><path clip-path="url(#clip280)" d="M2001.68 27.2059 L2009.14 27.2059 L2009.14 72.576 L2001.68 72.576 L2001.68 27.2059 M2001.68 9.54393 L2009.14 9.54393 L2009.14 18.9825 L2001.68 18.9825 L2001.68 9.54393 Z" fill="#000000" fill-rule="nonzero" fill-opacity="1"></path><path clip-path="url(#clip280)" d="M2042.31 32.4315 Q2036.32 32.4315 2032.84 37.1306 Q2029.35 41.7891 2029.35 49.9314 Q2029.35 58.0738 2032.8 62.7728 Q2036.28 67.4314 2042.31 67.4314 Q2048.27 67.4314 2051.75 62.7323 Q2055.24 58.0333 2055.24 49.9314 Q2055.24 41.8701 2051.75 37.1711 Q2048.27 32.4315 2042.31 32.4315 M2042.31 26.1121 Q2052.04 26.1121 2057.59 32.4315 Q2063.14 38.7509 2063.14 49.9314 Q2063.14 61.0714 2057.59 67.4314 Q2052.04 73.7508 2042.31 73.7508 Q2032.55 73.7508 2027 67.4314 Q2021.49 61.0714 2021.49 49.9314 Q2021.49 38.7509 2027 32.4315 Q2032.55 26.1121 2042.31 26.1121 Z" fill="#000000" fill-rule="nonzero" fill-opacity="1"></path><path clip-path="url(#clip280)" d="M2113.21 45.1919 L2113.21 72.576 L2105.75 72.576 L2105.75 45.4349 Q2105.75 38.994 2103.24 35.7938 Q2100.73 32.5936 2095.71 32.5936 Q2089.67 32.5936 2086.19 36.4419 Q2082.7 40.2903 2082.7 46.9338 L2082.7 72.576 L2075.21 72.576 L2075.21 27.2059 L2082.7 27.2059 L2082.7 34.2544 Q2085.38 30.163 2088.98 28.1376 Q2092.63 26.1121 2097.37 26.1121 Q2105.18 26.1121 2109.2 30.9732 Q2113.21 35.7938 2113.21 45.1919 Z" fill="#000000" fill-rule="nonzero" fill-opacity="1"></path><polyline clip-path="url(#clip283)" style="stroke:#009af9; stroke-linecap:round; stroke-linejoin:round; stroke-width:4; stroke-opacity:1; fill:none" points="1435.73,250.206 1464.45,225.573 1493.17,203.352 1521.89,183.922 1550.61,167.631 1579.33,154.789 1608.05,145.667 1636.77,140.484 1665.49,139.405 1694.21,142.54 1722.93,149.929 1751.65,161.549 1780.37,177.306 1809.09,197.032 1837.81,220.486 1866.53,247.352 1895.25,277.245 1923.97,309.708 1952.69,344.217 1981.41,380.185 2010.13,416.977 2038.85,453.907 2067.57,490.254 2096.29,525.262 2125.01,558.169 2153.73,588.217 2182.45,614.655 2211.17,636.758 2239.89,653.84 2268.61,665.274 2297.33,670.515 2326.05,669.096 "></polyline>
<path clip-path="url(#clip280)" d="M2174.49 245.918 L2321.3 245.918 L2321.3 142.238 L2174.49 142.238  Z" fill="#ffffff" fill-rule="evenodd" fill-opacity="1"></path>
<polyline clip-path="url(#clip280)" style="stroke:#000000; stroke-linecap:round; stroke-linejoin:round; stroke-width:4; stroke-opacity:1; fill:none" points="2174.49,245.918 2321.3,245.918 2321.3,142.238 2174.49,142.238 2174.49,245.918 "></polyline>
<polyline clip-path="url(#clip280)" style="stroke:#009af9; stroke-linecap:round; stroke-linejoin:round; stroke-width:4; stroke-opacity:1; fill:none" points="2184.98,194.078 2247.9,194.078 "></polyline>
<path clip-path="url(#clip280)" d="M2272.22 213.765 Q2270.42 218.395 2268.71 219.807 Q2266.99 221.219 2264.12 221.219 L2260.72 221.219 L2260.72 217.654 L2263.22 217.654 Q2264.98 217.654 2265.95 216.821 Q2266.92 215.988 2268.1 212.886 L2268.87 210.941 L2258.38 185.432 L2262.9 185.432 L2271 205.71 L2279.1 185.432 L2283.61 185.432 L2272.22 213.765 Z" fill="#000000" fill-rule="nonzero" fill-opacity="1"></path><path clip-path="url(#clip280)" d="M2290.9 207.423 L2298.54 207.423 L2298.54 181.057 L2290.23 182.724 L2290.23 178.465 L2298.5 176.798 L2303.17 176.798 L2303.17 207.423 L2310.81 207.423 L2310.81 211.358 L2290.9 211.358 L2290.9 207.423 Z" fill="#000000" fill-rule="nonzero" fill-opacity="1"></path><path clip-path="url(#clip280)" d="M193.936 1486.45 L1137.67 1486.45 L1137.67 923.472 L193.936 923.472  Z" fill="#ffffff" fill-rule="evenodd" fill-opacity="1"></path>
<defs>
  <clipPath id="clip284">
    <rect x="193" y="923" width="945" height="564"></rect>
  </clipPath>
</defs>
<polyline clip-path="url(#clip284)" style="stroke:#000000; stroke-linecap:round; stroke-linejoin:round; stroke-width:2; stroke-opacity:0.1; fill:none" points="220.646,1486.45 220.646,923.472 "></polyline>
<polyline clip-path="url(#clip284)" style="stroke:#000000; stroke-linecap:round; stroke-linejoin:round; stroke-width:2; stroke-opacity:0.1; fill:none" points="443.226,1486.45 443.226,923.472 "></polyline>
<polyline clip-path="url(#clip284)" style="stroke:#000000; stroke-linecap:round; stroke-linejoin:round; stroke-width:2; stroke-opacity:0.1; fill:none" points="665.805,1486.45 665.805,923.472 "></polyline>
<polyline clip-path="url(#clip284)" style="stroke:#000000; stroke-linecap:round; stroke-linejoin:round; stroke-width:2; stroke-opacity:0.1; fill:none" points="888.385,1486.45 888.385,923.472 "></polyline>
<polyline clip-path="url(#clip284)" style="stroke:#000000; stroke-linecap:round; stroke-linejoin:round; stroke-width:2; stroke-opacity:0.1; fill:none" points="1110.97,1486.45 1110.97,923.472 "></polyline>
<polyline clip-path="url(#clip280)" style="stroke:#000000; stroke-linecap:round; stroke-linejoin:round; stroke-width:4; stroke-opacity:1; fill:none" points="193.936,1486.45 1137.67,1486.45 "></polyline>
<polyline clip-path="url(#clip280)" style="stroke:#000000; stroke-linecap:round; stroke-linejoin:round; stroke-width:4; stroke-opacity:1; fill:none" points="220.646,1486.45 220.646,1467.55 "></polyline>
<polyline clip-path="url(#clip280)" style="stroke:#000000; stroke-linecap:round; stroke-linejoin:round; stroke-width:4; stroke-opacity:1; fill:none" points="443.226,1486.45 443.226,1467.55 "></polyline>
<polyline clip-path="url(#clip280)" style="stroke:#000000; stroke-linecap:round; stroke-linejoin:round; stroke-width:4; stroke-opacity:1; fill:none" points="665.805,1486.45 665.805,1467.55 "></polyline>
<polyline clip-path="url(#clip280)" style="stroke:#000000; stroke-linecap:round; stroke-linejoin:round; stroke-width:4; stroke-opacity:1; fill:none" points="888.385,1486.45 888.385,1467.55 "></polyline>
<polyline clip-path="url(#clip280)" style="stroke:#000000; stroke-linecap:round; stroke-linejoin:round; stroke-width:4; stroke-opacity:1; fill:none" points="1110.97,1486.45 1110.97,1467.55 "></polyline>
<path clip-path="url(#clip280)" d="M182.949 1517.37 Q179.338 1517.37 177.509 1520.93 Q175.704 1524.47 175.704 1531.6 Q175.704 1538.71 177.509 1542.27 Q179.338 1545.82 182.949 1545.82 Q186.583 1545.82 188.389 1542.27 Q190.218 1538.71 190.218 1531.6 Q190.218 1524.47 188.389 1520.93 Q186.583 1517.37 182.949 1517.37 M182.949 1513.66 Q188.759 1513.66 191.815 1518.27 Q194.893 1522.85 194.893 1531.6 Q194.893 1540.33 191.815 1544.94 Q188.759 1549.52 182.949 1549.52 Q177.139 1549.52 174.06 1544.94 Q171.005 1540.33 171.005 1531.6 Q171.005 1522.85 174.06 1518.27 Q177.139 1513.66 182.949 1513.66 Z" fill="#000000" fill-rule="nonzero" fill-opacity="1"></path><path clip-path="url(#clip280)" d="M203.111 1542.97 L207.995 1542.97 L207.995 1548.85 L203.111 1548.85 L203.111 1542.97 Z" fill="#000000" fill-rule="nonzero" fill-opacity="1"></path><path clip-path="url(#clip280)" d="M228.18 1517.37 Q224.569 1517.37 222.74 1520.93 Q220.935 1524.47 220.935 1531.6 Q220.935 1538.71 222.74 1542.27 Q224.569 1545.82 228.18 1545.82 Q231.815 1545.82 233.62 1542.27 Q235.449 1538.71 235.449 1531.6 Q235.449 1524.47 233.62 1520.93 Q231.815 1517.37 228.18 1517.37 M228.18 1513.66 Q233.99 1513.66 237.046 1518.27 Q240.125 1522.85 240.125 1531.6 Q240.125 1540.33 237.046 1544.94 Q233.99 1549.52 228.18 1549.52 Q222.37 1549.52 219.291 1544.94 Q216.236 1540.33 216.236 1531.6 Q216.236 1522.85 219.291 1518.27 Q222.37 1513.66 228.18 1513.66 Z" fill="#000000" fill-rule="nonzero" fill-opacity="1"></path><path clip-path="url(#clip280)" d="M258.342 1517.37 Q254.731 1517.37 252.902 1520.93 Q251.097 1524.47 251.097 1531.6 Q251.097 1538.71 252.902 1542.27 Q254.731 1545.82 258.342 1545.82 Q261.976 1545.82 263.782 1542.27 Q265.611 1538.71 265.611 1531.6 Q265.611 1524.47 263.782 1520.93 Q261.976 1517.37 258.342 1517.37 M258.342 1513.66 Q264.152 1513.66 267.208 1518.27 Q270.287 1522.85 270.287 1531.6 Q270.287 1540.33 267.208 1544.94 Q264.152 1549.52 258.342 1549.52 Q252.532 1549.52 249.453 1544.94 Q246.398 1540.33 246.398 1531.6 Q246.398 1522.85 249.453 1518.27 Q252.532 1513.66 258.342 1513.66 Z" fill="#000000" fill-rule="nonzero" fill-opacity="1"></path><path clip-path="url(#clip280)" d="M406.027 1517.37 Q402.416 1517.37 400.587 1520.93 Q398.781 1524.47 398.781 1531.6 Q398.781 1538.71 400.587 1542.27 Q402.416 1545.82 406.027 1545.82 Q409.661 1545.82 411.466 1542.27 Q413.295 1538.71 413.295 1531.6 Q413.295 1524.47 411.466 1520.93 Q409.661 1517.37 406.027 1517.37 M406.027 1513.66 Q411.837 1513.66 414.892 1518.27 Q417.971 1522.85 417.971 1531.6 Q417.971 1540.33 414.892 1544.94 Q411.837 1549.52 406.027 1549.52 Q400.217 1549.52 397.138 1544.94 Q394.082 1540.33 394.082 1531.6 Q394.082 1522.85 397.138 1518.27 Q400.217 1513.66 406.027 1513.66 Z" fill="#000000" fill-rule="nonzero" fill-opacity="1"></path><path clip-path="url(#clip280)" d="M426.189 1542.97 L431.073 1542.97 L431.073 1548.85 L426.189 1548.85 L426.189 1542.97 Z" fill="#000000" fill-rule="nonzero" fill-opacity="1"></path><path clip-path="url(#clip280)" d="M445.286 1544.91 L461.605 1544.91 L461.605 1548.85 L439.661 1548.85 L439.661 1544.91 Q442.323 1542.16 446.906 1537.53 Q451.513 1532.88 452.693 1531.53 Q454.938 1529.01 455.818 1527.27 Q456.721 1525.51 456.721 1523.82 Q456.721 1521.07 454.776 1519.33 Q452.855 1517.6 449.753 1517.6 Q447.554 1517.6 445.101 1518.36 Q442.67 1519.13 439.892 1520.68 L439.892 1515.95 Q442.716 1514.82 445.17 1514.24 Q447.624 1513.66 449.661 1513.66 Q455.031 1513.66 458.225 1516.35 Q461.42 1519.03 461.42 1523.52 Q461.42 1525.65 460.61 1527.57 Q459.823 1529.47 457.716 1532.07 Q457.137 1532.74 454.036 1535.95 Q450.934 1539.15 445.286 1544.91 Z" fill="#000000" fill-rule="nonzero" fill-opacity="1"></path><path clip-path="url(#clip280)" d="M471.466 1514.29 L489.823 1514.29 L489.823 1518.22 L475.749 1518.22 L475.749 1526.7 Q476.767 1526.35 477.786 1526.19 Q478.804 1526 479.823 1526 Q485.61 1526 488.989 1529.17 Q492.369 1532.34 492.369 1537.76 Q492.369 1543.34 488.897 1546.44 Q485.424 1549.52 479.105 1549.52 Q476.929 1549.52 474.661 1549.15 Q472.415 1548.78 470.008 1548.04 L470.008 1543.34 Q472.091 1544.47 474.313 1545.03 Q476.536 1545.58 479.012 1545.58 Q483.017 1545.58 485.355 1543.48 Q487.693 1541.37 487.693 1537.76 Q487.693 1534.15 485.355 1532.04 Q483.017 1529.94 479.012 1529.94 Q477.137 1529.94 475.262 1530.35 Q473.411 1530.77 471.466 1531.65 L471.466 1514.29 Z" fill="#000000" fill-rule="nonzero" fill-opacity="1"></path><path clip-path="url(#clip280)" d="M628.109 1517.37 Q624.498 1517.37 622.669 1520.93 Q620.864 1524.47 620.864 1531.6 Q620.864 1538.71 622.669 1542.27 Q624.498 1545.82 628.109 1545.82 Q631.743 1545.82 633.549 1542.27 Q635.377 1538.71 635.377 1531.6 Q635.377 1524.47 633.549 1520.93 Q631.743 1517.37 628.109 1517.37 M628.109 1513.66 Q633.919 1513.66 636.975 1518.27 Q640.053 1522.85 640.053 1531.6 Q640.053 1540.33 636.975 1544.94 Q633.919 1549.52 628.109 1549.52 Q622.299 1549.52 619.22 1544.94 Q616.165 1540.33 616.165 1531.6 Q616.165 1522.85 619.22 1518.27 Q622.299 1513.66 628.109 1513.66 Z" fill="#000000" fill-rule="nonzero" fill-opacity="1"></path><path clip-path="url(#clip280)" d="M648.271 1542.97 L653.155 1542.97 L653.155 1548.85 L648.271 1548.85 L648.271 1542.97 Z" fill="#000000" fill-rule="nonzero" fill-opacity="1"></path><path clip-path="url(#clip280)" d="M663.387 1514.29 L681.743 1514.29 L681.743 1518.22 L667.669 1518.22 L667.669 1526.7 Q668.687 1526.35 669.706 1526.19 Q670.724 1526 671.743 1526 Q677.53 1526 680.91 1529.17 Q684.289 1532.34 684.289 1537.76 Q684.289 1543.34 680.817 1546.44 Q677.345 1549.52 671.025 1549.52 Q668.849 1549.52 666.581 1549.15 Q664.336 1548.78 661.928 1548.04 L661.928 1543.34 Q664.012 1544.47 666.234 1545.03 Q668.456 1545.58 670.933 1545.58 Q674.937 1545.58 677.275 1543.48 Q679.613 1541.37 679.613 1537.76 Q679.613 1534.15 677.275 1532.04 Q674.937 1529.94 670.933 1529.94 Q669.058 1529.94 667.183 1530.35 Q665.331 1530.77 663.387 1531.65 L663.387 1514.29 Z" fill="#000000" fill-rule="nonzero" fill-opacity="1"></path><path clip-path="url(#clip280)" d="M703.502 1517.37 Q699.891 1517.37 698.062 1520.93 Q696.257 1524.47 696.257 1531.6 Q696.257 1538.71 698.062 1542.27 Q699.891 1545.82 703.502 1545.82 Q707.136 1545.82 708.942 1542.27 Q710.771 1538.71 710.771 1531.6 Q710.771 1524.47 708.942 1520.93 Q707.136 1517.37 703.502 1517.37 M703.502 1513.66 Q709.312 1513.66 712.368 1518.27 Q715.446 1522.85 715.446 1531.6 Q715.446 1540.33 712.368 1544.94 Q709.312 1549.52 703.502 1549.52 Q697.692 1549.52 694.613 1544.94 Q691.558 1540.33 691.558 1531.6 Q691.558 1522.85 694.613 1518.27 Q697.692 1513.66 703.502 1513.66 Z" fill="#000000" fill-rule="nonzero" fill-opacity="1"></path><path clip-path="url(#clip280)" d="M851.187 1517.37 Q847.575 1517.37 845.747 1520.93 Q843.941 1524.47 843.941 1531.6 Q843.941 1538.71 845.747 1542.27 Q847.575 1545.82 851.187 1545.82 Q854.821 1545.82 856.626 1542.27 Q858.455 1538.71 858.455 1531.6 Q858.455 1524.47 856.626 1520.93 Q854.821 1517.37 851.187 1517.37 M851.187 1513.66 Q856.997 1513.66 860.052 1518.27 Q863.131 1522.85 863.131 1531.6 Q863.131 1540.33 860.052 1544.94 Q856.997 1549.52 851.187 1549.52 Q845.376 1549.52 842.298 1544.94 Q839.242 1540.33 839.242 1531.6 Q839.242 1522.85 842.298 1518.27 Q845.376 1513.66 851.187 1513.66 Z" fill="#000000" fill-rule="nonzero" fill-opacity="1"></path><path clip-path="url(#clip280)" d="M871.348 1542.97 L876.233 1542.97 L876.233 1548.85 L871.348 1548.85 L871.348 1542.97 Z" fill="#000000" fill-rule="nonzero" fill-opacity="1"></path><path clip-path="url(#clip280)" d="M885.237 1514.29 L907.459 1514.29 L907.459 1516.28 L894.913 1548.85 L890.029 1548.85 L901.834 1518.22 L885.237 1518.22 L885.237 1514.29 Z" fill="#000000" fill-rule="nonzero" fill-opacity="1"></path><path clip-path="url(#clip280)" d="M916.626 1514.29 L934.982 1514.29 L934.982 1518.22 L920.908 1518.22 L920.908 1526.7 Q921.927 1526.35 922.945 1526.19 Q923.964 1526 924.982 1526 Q930.769 1526 934.149 1529.17 Q937.529 1532.34 937.529 1537.76 Q937.529 1543.34 934.056 1546.44 Q930.584 1549.52 924.265 1549.52 Q922.089 1549.52 919.82 1549.15 Q917.575 1548.78 915.168 1548.04 L915.168 1543.34 Q917.251 1544.47 919.473 1545.03 Q921.695 1545.58 924.172 1545.58 Q928.177 1545.58 930.515 1543.48 Q932.853 1541.37 932.853 1537.76 Q932.853 1534.15 930.515 1532.04 Q928.177 1529.94 924.172 1529.94 Q922.297 1529.94 920.422 1530.35 Q918.57 1530.77 916.626 1531.65 L916.626 1514.29 Z" fill="#000000" fill-rule="nonzero" fill-opacity="1"></path><path clip-path="url(#clip280)" d="M1063.04 1544.91 L1070.68 1544.91 L1070.68 1518.55 L1062.37 1520.21 L1062.37 1515.95 L1070.63 1514.29 L1075.31 1514.29 L1075.31 1544.91 L1082.94 1544.91 L1082.94 1548.85 L1063.04 1548.85 L1063.04 1544.91 Z" fill="#000000" fill-rule="nonzero" fill-opacity="1"></path><path clip-path="url(#clip280)" d="M1092.39 1542.97 L1097.27 1542.97 L1097.27 1548.85 L1092.39 1548.85 L1092.39 1542.97 Z" fill="#000000" fill-rule="nonzero" fill-opacity="1"></path><path clip-path="url(#clip280)" d="M1117.46 1517.37 Q1113.85 1517.37 1112.02 1520.93 Q1110.21 1524.47 1110.21 1531.6 Q1110.21 1538.71 1112.02 1542.27 Q1113.85 1545.82 1117.46 1545.82 Q1121.09 1545.82 1122.9 1542.27 Q1124.73 1538.71 1124.73 1531.6 Q1124.73 1524.47 1122.9 1520.93 Q1121.09 1517.37 1117.46 1517.37 M1117.46 1513.66 Q1123.27 1513.66 1126.32 1518.27 Q1129.4 1522.85 1129.4 1531.6 Q1129.4 1540.33 1126.32 1544.94 Q1123.27 1549.52 1117.46 1549.52 Q1111.65 1549.52 1108.57 1544.94 Q1105.51 1540.33 1105.51 1531.6 Q1105.51 1522.85 1108.57 1518.27 Q1111.65 1513.66 1117.46 1513.66 Z" fill="#000000" fill-rule="nonzero" fill-opacity="1"></path><path clip-path="url(#clip280)" d="M1147.62 1517.37 Q1144.01 1517.37 1142.18 1520.93 Q1140.37 1524.47 1140.37 1531.6 Q1140.37 1538.71 1142.18 1542.27 Q1144.01 1545.82 1147.62 1545.82 Q1151.25 1545.82 1153.06 1542.27 Q1154.89 1538.71 1154.89 1531.6 Q1154.89 1524.47 1153.06 1520.93 Q1151.25 1517.37 1147.62 1517.37 M1147.62 1513.66 Q1153.43 1513.66 1156.49 1518.27 Q1159.56 1522.85 1159.56 1531.6 Q1159.56 1540.33 1156.49 1544.94 Q1153.43 1549.52 1147.62 1549.52 Q1141.81 1549.52 1138.73 1544.94 Q1135.68 1540.33 1135.68 1531.6 Q1135.68 1522.85 1138.73 1518.27 Q1141.81 1513.66 1147.62 1513.66 Z" fill="#000000" fill-rule="nonzero" fill-opacity="1"></path><polyline clip-path="url(#clip284)" style="stroke:#000000; stroke-linecap:round; stroke-linejoin:round; stroke-width:2; stroke-opacity:0.1; fill:none" points="193.936,1417.69 1137.67,1417.69 "></polyline>
<polyline clip-path="url(#clip284)" style="stroke:#000000; stroke-linecap:round; stroke-linejoin:round; stroke-width:2; stroke-opacity:0.1; fill:none" points="193.936,1276.25 1137.67,1276.25 "></polyline>
<polyline clip-path="url(#clip284)" style="stroke:#000000; stroke-linecap:round; stroke-linejoin:round; stroke-width:2; stroke-opacity:0.1; fill:none" points="193.936,1134.81 1137.67,1134.81 "></polyline>
<polyline clip-path="url(#clip284)" style="stroke:#000000; stroke-linecap:round; stroke-linejoin:round; stroke-width:2; stroke-opacity:0.1; fill:none" points="193.936,993.377 1137.67,993.377 "></polyline>
<polyline clip-path="url(#clip280)" style="stroke:#000000; stroke-linecap:round; stroke-linejoin:round; stroke-width:4; stroke-opacity:1; fill:none" points="193.936,1486.45 193.936,923.472 "></polyline>
<polyline clip-path="url(#clip280)" style="stroke:#000000; stroke-linecap:round; stroke-linejoin:round; stroke-width:4; stroke-opacity:1; fill:none" points="193.936,1417.69 212.834,1417.69 "></polyline>
<polyline clip-path="url(#clip280)" style="stroke:#000000; stroke-linecap:round; stroke-linejoin:round; stroke-width:4; stroke-opacity:1; fill:none" points="193.936,1276.25 212.834,1276.25 "></polyline>
<polyline clip-path="url(#clip280)" style="stroke:#000000; stroke-linecap:round; stroke-linejoin:round; stroke-width:4; stroke-opacity:1; fill:none" points="193.936,1134.81 212.834,1134.81 "></polyline>
<polyline clip-path="url(#clip280)" style="stroke:#000000; stroke-linecap:round; stroke-linejoin:round; stroke-width:4; stroke-opacity:1; fill:none" points="193.936,993.377 212.834,993.377 "></polyline>
<path clip-path="url(#clip280)" d="M50.9921 1418.14 L80.6679 1418.14 L80.6679 1422.07 L50.9921 1422.07 L50.9921 1418.14 Z" fill="#000000" fill-rule="nonzero" fill-opacity="1"></path><path clip-path="url(#clip280)" d="M91.5706 1431.03 L99.2095 1431.03 L99.2095 1404.67 L90.8993 1406.33 L90.8993 1402.07 L99.1632 1400.41 L103.839 1400.41 L103.839 1431.03 L111.478 1431.03 L111.478 1434.97 L91.5706 1434.97 L91.5706 1431.03 Z" fill="#000000" fill-rule="nonzero" fill-opacity="1"></path><path clip-path="url(#clip280)" d="M120.922 1429.09 L125.807 1429.09 L125.807 1434.97 L120.922 1434.97 L120.922 1429.09 Z" fill="#000000" fill-rule="nonzero" fill-opacity="1"></path><path clip-path="url(#clip280)" d="M145.992 1403.49 Q142.381 1403.49 140.552 1407.05 Q138.746 1410.59 138.746 1417.72 Q138.746 1424.83 140.552 1428.39 Q142.381 1431.93 145.992 1431.93 Q149.626 1431.93 151.431 1428.39 Q153.26 1424.83 153.26 1417.72 Q153.26 1410.59 151.431 1407.05 Q149.626 1403.49 145.992 1403.49 M145.992 1399.78 Q151.802 1399.78 154.857 1404.39 Q157.936 1408.97 157.936 1417.72 Q157.936 1426.45 154.857 1431.06 Q151.802 1435.64 145.992 1435.64 Q140.181 1435.64 137.103 1431.06 Q134.047 1426.45 134.047 1417.72 Q134.047 1408.97 137.103 1404.39 Q140.181 1399.78 145.992 1399.78 Z" fill="#000000" fill-rule="nonzero" fill-opacity="1"></path><path clip-path="url(#clip280)" d="M51.9875 1276.7 L81.6633 1276.7 L81.6633 1280.64 L51.9875 1280.64 L51.9875 1276.7 Z" fill="#000000" fill-rule="nonzero" fill-opacity="1"></path><path clip-path="url(#clip280)" d="M101.756 1262.05 Q98.1447 1262.05 96.316 1265.61 Q94.5104 1269.16 94.5104 1276.29 Q94.5104 1283.39 96.316 1286.96 Q98.1447 1290.5 101.756 1290.5 Q105.39 1290.5 107.196 1286.96 Q109.024 1283.39 109.024 1276.29 Q109.024 1269.16 107.196 1265.61 Q105.39 1262.05 101.756 1262.05 M101.756 1258.35 Q107.566 1258.35 110.621 1262.95 Q113.7 1267.54 113.7 1276.29 Q113.7 1285.01 110.621 1289.62 Q107.566 1294.2 101.756 1294.2 Q95.9456 1294.2 92.8669 1289.62 Q89.8114 1285.01 89.8114 1276.29 Q89.8114 1267.54 92.8669 1262.95 Q95.9456 1258.35 101.756 1258.35 Z" fill="#000000" fill-rule="nonzero" fill-opacity="1"></path><path clip-path="url(#clip280)" d="M121.918 1287.65 L126.802 1287.65 L126.802 1293.53 L121.918 1293.53 L121.918 1287.65 Z" fill="#000000" fill-rule="nonzero" fill-opacity="1"></path><path clip-path="url(#clip280)" d="M137.033 1258.97 L155.39 1258.97 L155.39 1262.91 L141.316 1262.91 L141.316 1271.38 Q142.334 1271.03 143.353 1270.87 Q144.371 1270.68 145.39 1270.68 Q151.177 1270.68 154.556 1273.85 Q157.936 1277.03 157.936 1282.44 Q157.936 1288.02 154.464 1291.12 Q150.992 1294.2 144.672 1294.2 Q142.496 1294.2 140.228 1293.83 Q137.982 1293.46 135.575 1292.72 L135.575 1288.02 Q137.658 1289.16 139.881 1289.71 Q142.103 1290.27 144.58 1290.27 Q148.584 1290.27 150.922 1288.16 Q153.26 1286.05 153.26 1282.44 Q153.26 1278.83 150.922 1276.73 Q148.584 1274.62 144.58 1274.62 Q142.705 1274.62 140.83 1275.04 Q138.978 1275.45 137.033 1276.33 L137.033 1258.97 Z" fill="#000000" fill-rule="nonzero" fill-opacity="1"></path><path clip-path="url(#clip280)" d="M100.76 1120.61 Q97.1493 1120.61 95.3206 1124.18 Q93.515 1127.72 93.515 1134.85 Q93.515 1141.96 95.3206 1145.52 Q97.1493 1149.06 100.76 1149.06 Q104.395 1149.06 106.2 1145.52 Q108.029 1141.96 108.029 1134.85 Q108.029 1127.72 106.2 1124.18 Q104.395 1120.61 100.76 1120.61 M100.76 1116.91 Q106.571 1116.91 109.626 1121.52 Q112.705 1126.1 112.705 1134.85 Q112.705 1143.58 109.626 1148.18 Q106.571 1152.77 100.76 1152.77 Q94.9502 1152.77 91.8715 1148.18 Q88.816 1143.58 88.816 1134.85 Q88.816 1126.1 91.8715 1121.52 Q94.9502 1116.91 100.76 1116.91 Z" fill="#000000" fill-rule="nonzero" fill-opacity="1"></path><path clip-path="url(#clip280)" d="M120.922 1146.21 L125.807 1146.21 L125.807 1152.09 L120.922 1152.09 L120.922 1146.21 Z" fill="#000000" fill-rule="nonzero" fill-opacity="1"></path><path clip-path="url(#clip280)" d="M145.992 1120.61 Q142.381 1120.61 140.552 1124.18 Q138.746 1127.72 138.746 1134.85 Q138.746 1141.96 140.552 1145.52 Q142.381 1149.06 145.992 1149.06 Q149.626 1149.06 151.431 1145.52 Q153.26 1141.96 153.26 1134.85 Q153.26 1127.72 151.431 1124.18 Q149.626 1120.61 145.992 1120.61 M145.992 1116.91 Q151.802 1116.91 154.857 1121.52 Q157.936 1126.1 157.936 1134.85 Q157.936 1143.58 154.857 1148.18 Q151.802 1152.77 145.992 1152.77 Q140.181 1152.77 137.103 1148.18 Q134.047 1143.58 134.047 1134.85 Q134.047 1126.1 137.103 1121.52 Q140.181 1116.91 145.992 1116.91 Z" fill="#000000" fill-rule="nonzero" fill-opacity="1"></path><path clip-path="url(#clip280)" d="M101.756 979.176 Q98.1447 979.176 96.316 982.741 Q94.5104 986.282 94.5104 993.412 Q94.5104 1000.52 96.316 1004.08 Q98.1447 1007.62 101.756 1007.62 Q105.39 1007.62 107.196 1004.08 Q109.024 1000.52 109.024 993.412 Q109.024 986.282 107.196 982.741 Q105.39 979.176 101.756 979.176 M101.756 975.472 Q107.566 975.472 110.621 980.079 Q113.7 984.662 113.7 993.412 Q113.7 1002.14 110.621 1006.75 Q107.566 1011.33 101.756 1011.33 Q95.9456 1011.33 92.8669 1006.75 Q89.8114 1002.14 89.8114 993.412 Q89.8114 984.662 92.8669 980.079 Q95.9456 975.472 101.756 975.472 Z" fill="#000000" fill-rule="nonzero" fill-opacity="1"></path><path clip-path="url(#clip280)" d="M121.918 1004.78 L126.802 1004.78 L126.802 1010.66 L121.918 1010.66 L121.918 1004.78 Z" fill="#000000" fill-rule="nonzero" fill-opacity="1"></path><path clip-path="url(#clip280)" d="M137.033 976.097 L155.39 976.097 L155.39 980.032 L141.316 980.032 L141.316 988.505 Q142.334 988.157 143.353 987.995 Q144.371 987.81 145.39 987.81 Q151.177 987.81 154.556 990.981 Q157.936 994.153 157.936 999.569 Q157.936 1005.15 154.464 1008.25 Q150.992 1011.33 144.672 1011.33 Q142.496 1011.33 140.228 1010.96 Q137.982 1010.59 135.575 1009.85 L135.575 1005.15 Q137.658 1006.28 139.881 1006.84 Q142.103 1007.39 144.58 1007.39 Q148.584 1007.39 150.922 1005.29 Q153.26 1003.18 153.26 999.569 Q153.26 995.958 150.922 993.852 Q148.584 991.745 144.58 991.745 Q142.705 991.745 140.83 992.162 Q138.978 992.579 137.033 993.458 L137.033 976.097 Z" fill="#000000" fill-rule="nonzero" fill-opacity="1"></path><path clip-path="url(#clip280)" d="M430.023 814.081 L430.023 822.061 Q425.364 819.833 421.232 818.739 Q417.1 817.646 413.252 817.646 Q406.568 817.646 402.922 820.238 Q399.317 822.831 399.317 827.611 Q399.317 831.621 401.707 833.687 Q404.137 835.713 410.862 836.969 L415.804 837.981 Q424.959 839.723 429.293 844.139 Q433.668 848.514 433.668 855.886 Q433.668 864.677 427.754 869.214 Q421.88 873.751 410.497 873.751 Q406.203 873.751 401.342 872.779 Q396.522 871.806 391.336 869.902 L391.336 861.477 Q396.319 864.272 401.099 865.689 Q405.879 867.107 410.497 867.107 Q417.505 867.107 421.313 864.353 Q425.121 861.598 425.121 856.494 Q425.121 852.038 422.366 849.526 Q419.652 847.015 413.414 845.759 L408.431 844.787 Q399.276 842.964 395.185 839.075 Q391.093 835.186 391.093 828.259 Q391.093 820.238 396.724 815.62 Q402.395 811.002 412.32 811.002 Q416.574 811.002 420.989 811.772 Q425.405 812.542 430.023 814.081 Z" fill="#000000" fill-rule="nonzero" fill-opacity="1"></path><path clip-path="url(#clip280)" d="M463.686 832.432 Q457.69 832.432 454.207 837.131 Q450.723 841.789 450.723 849.931 Q450.723 858.074 454.166 862.773 Q457.65 867.431 463.686 867.431 Q469.64 867.431 473.124 862.732 Q476.608 858.033 476.608 849.931 Q476.608 841.87 473.124 837.171 Q469.64 832.432 463.686 832.432 M463.686 826.112 Q473.408 826.112 478.958 832.432 Q484.507 838.751 484.507 849.931 Q484.507 861.071 478.958 867.431 Q473.408 873.751 463.686 873.751 Q453.923 873.751 448.373 867.431 Q442.864 861.071 442.864 849.931 Q442.864 838.751 448.373 832.432 Q453.923 826.112 463.686 826.112 Z" fill="#000000" fill-rule="nonzero" fill-opacity="1"></path><path clip-path="url(#clip280)" d="M496.863 809.544 L504.316 809.544 L504.316 872.576 L496.863 872.576 L496.863 809.544 Z" fill="#000000" fill-rule="nonzero" fill-opacity="1"></path><path clip-path="url(#clip280)" d="M519.142 854.671 L519.142 827.206 L526.596 827.206 L526.596 854.387 Q526.596 860.828 529.108 864.069 Q531.619 867.269 536.642 867.269 Q542.678 867.269 546.162 863.421 Q549.686 859.573 549.686 852.929 L549.686 827.206 L557.14 827.206 L557.14 872.576 L549.686 872.576 L549.686 865.608 Q546.972 869.74 543.367 871.766 Q539.802 873.751 535.063 873.751 Q527.244 873.751 523.193 868.89 Q519.142 864.029 519.142 854.671 M537.898 826.112 L537.898 826.112 Z" fill="#000000" fill-rule="nonzero" fill-opacity="1"></path><path clip-path="url(#clip280)" d="M579.866 814.324 L579.866 827.206 L595.218 827.206 L595.218 832.999 L579.866 832.999 L579.866 857.628 Q579.866 863.178 581.364 864.758 Q582.904 866.338 587.562 866.338 L595.218 866.338 L595.218 872.576 L587.562 872.576 Q578.934 872.576 575.653 869.376 Q572.371 866.135 572.371 857.628 L572.371 832.999 L566.903 832.999 L566.903 827.206 L572.371 827.206 L572.371 814.324 L579.866 814.324 Z" fill="#000000" fill-rule="nonzero" fill-opacity="1"></path><path clip-path="url(#clip280)" d="M605.022 827.206 L612.475 827.206 L612.475 872.576 L605.022 872.576 L605.022 827.206 M605.022 809.544 L612.475 809.544 L612.475 818.983 L605.022 818.983 L605.022 809.544 Z" fill="#000000" fill-rule="nonzero" fill-opacity="1"></path><path clip-path="url(#clip280)" d="M645.652 832.432 Q639.657 832.432 636.173 837.131 Q632.689 841.789 632.689 849.931 Q632.689 858.074 636.133 862.773 Q639.616 867.431 645.652 867.431 Q651.607 867.431 655.091 862.732 Q658.575 858.033 658.575 849.931 Q658.575 841.87 655.091 837.171 Q651.607 832.432 645.652 832.432 M645.652 826.112 Q655.374 826.112 660.924 832.432 Q666.474 838.751 666.474 849.931 Q666.474 861.071 660.924 867.431 Q655.374 873.751 645.652 873.751 Q635.89 873.751 630.34 867.431 Q624.831 861.071 624.831 849.931 Q624.831 838.751 630.34 832.432 Q635.89 826.112 645.652 826.112 Z" fill="#000000" fill-rule="nonzero" fill-opacity="1"></path><path clip-path="url(#clip280)" d="M716.543 845.192 L716.543 872.576 L709.089 872.576 L709.089 845.435 Q709.089 838.994 706.578 835.794 Q704.066 832.594 699.043 832.594 Q693.007 832.594 689.524 836.442 Q686.04 840.29 686.04 846.934 L686.04 872.576 L678.546 872.576 L678.546 827.206 L686.04 827.206 L686.04 834.254 Q688.713 830.163 692.319 828.138 Q695.964 826.112 700.704 826.112 Q708.522 826.112 712.533 830.973 Q716.543 835.794 716.543 845.192 Z" fill="#000000" fill-rule="nonzero" fill-opacity="1"></path><path clip-path="url(#clip280)" d="M766.288 818.821 L766.288 865.851 L776.172 865.851 Q788.69 865.851 794.482 860.18 Q800.316 854.509 800.316 842.275 Q800.316 830.123 794.482 824.492 Q788.69 818.821 776.172 818.821 L766.288 818.821 M758.105 812.096 L774.917 812.096 Q792.498 812.096 800.721 819.428 Q808.944 826.72 808.944 842.275 Q808.944 857.912 800.68 865.244 Q792.416 872.576 774.917 872.576 L758.105 872.576 L758.105 812.096 Z" fill="#000000" fill-rule="nonzero" fill-opacity="1"></path><path clip-path="url(#clip280)" d="M842.283 849.769 Q833.25 849.769 829.766 851.835 Q826.282 853.901 826.282 858.884 Q826.282 862.854 828.875 865.203 Q831.508 867.512 836.004 867.512 Q842.202 867.512 845.929 863.137 Q849.696 858.722 849.696 851.43 L849.696 849.769 L842.283 849.769 M857.15 846.691 L857.15 872.576 L849.696 872.576 L849.696 865.689 Q847.144 869.821 843.336 871.806 Q839.529 873.751 834.019 873.751 Q827.052 873.751 822.92 869.862 Q818.828 865.933 818.828 859.37 Q818.828 851.714 823.933 847.825 Q829.077 843.936 839.245 843.936 L849.696 843.936 L849.696 843.207 Q849.696 838.062 846.294 835.267 Q842.931 832.432 836.814 832.432 Q832.926 832.432 829.239 833.363 Q825.553 834.295 822.15 836.158 L822.15 829.272 Q826.242 827.692 830.09 826.922 Q833.938 826.112 837.584 826.112 Q847.428 826.112 852.289 831.216 Q857.15 836.32 857.15 846.691 Z" fill="#000000" fill-rule="nonzero" fill-opacity="1"></path><path clip-path="url(#clip280)" d="M879.876 814.324 L879.876 827.206 L895.228 827.206 L895.228 832.999 L879.876 832.999 L879.876 857.628 Q879.876 863.178 881.374 864.758 Q882.914 866.338 887.572 866.338 L895.228 866.338 L895.228 872.576 L887.572 872.576 Q878.944 872.576 875.663 869.376 Q872.381 866.135 872.381 857.628 L872.381 832.999 L866.913 832.999 L866.913 827.206 L872.381 827.206 L872.381 814.324 L879.876 814.324 Z" fill="#000000" fill-rule="nonzero" fill-opacity="1"></path><path clip-path="url(#clip280)" d="M925.651 849.769 Q916.617 849.769 913.133 851.835 Q909.65 853.901 909.65 858.884 Q909.65 862.854 912.242 865.203 Q914.875 867.512 919.372 867.512 Q925.57 867.512 929.297 863.137 Q933.064 858.722 933.064 851.43 L933.064 849.769 L925.651 849.769 M940.518 846.691 L940.518 872.576 L933.064 872.576 L933.064 865.689 Q930.512 869.821 926.704 871.806 Q922.896 873.751 917.387 873.751 Q910.419 873.751 906.287 869.862 Q902.196 865.933 902.196 859.37 Q902.196 851.714 907.3 847.825 Q912.445 843.936 922.613 843.936 L933.064 843.936 L933.064 843.207 Q933.064 838.062 929.661 835.267 Q926.299 832.432 920.182 832.432 Q916.293 832.432 912.607 833.363 Q908.92 834.295 905.518 836.158 L905.518 829.272 Q909.609 827.692 913.458 826.922 Q917.306 826.112 920.952 826.112 Q930.795 826.112 935.656 831.216 Q940.518 836.32 940.518 846.691 Z" fill="#000000" fill-rule="nonzero" fill-opacity="1"></path><circle clip-path="url(#clip284)" cx="220.646" cy="1148.64" r="14.4" fill="#009af9" fill-rule="evenodd" fill-opacity="1" stroke="#000000" stroke-opacity="1" stroke-width="3.2"></circle>
<circle clip-path="url(#clip284)" cx="249.366" cy="1111.56" r="14.4" fill="#009af9" fill-rule="evenodd" fill-opacity="1" stroke="#000000" stroke-opacity="1" stroke-width="3.2"></circle>
<circle clip-path="url(#clip284)" cx="278.086" cy="1068.69" r="14.4" fill="#009af9" fill-rule="evenodd" fill-opacity="1" stroke="#000000" stroke-opacity="1" stroke-width="3.2"></circle>
<circle clip-path="url(#clip284)" cx="306.806" cy="1124.32" r="14.4" fill="#009af9" fill-rule="evenodd" fill-opacity="1" stroke="#000000" stroke-opacity="1" stroke-width="3.2"></circle>
<circle clip-path="url(#clip284)" cx="335.526" cy="1139.38" r="14.4" fill="#009af9" fill-rule="evenodd" fill-opacity="1" stroke="#000000" stroke-opacity="1" stroke-width="3.2"></circle>
<circle clip-path="url(#clip284)" cx="364.246" cy="1101.87" r="14.4" fill="#009af9" fill-rule="evenodd" fill-opacity="1" stroke="#000000" stroke-opacity="1" stroke-width="3.2"></circle>
<circle clip-path="url(#clip284)" cx="392.966" cy="1082.69" r="14.4" fill="#009af9" fill-rule="evenodd" fill-opacity="1" stroke="#000000" stroke-opacity="1" stroke-width="3.2"></circle>
<circle clip-path="url(#clip284)" cx="421.686" cy="1064.45" r="14.4" fill="#009af9" fill-rule="evenodd" fill-opacity="1" stroke="#000000" stroke-opacity="1" stroke-width="3.2"></circle>
<circle clip-path="url(#clip284)" cx="450.406" cy="939.405" r="14.4" fill="#009af9" fill-rule="evenodd" fill-opacity="1" stroke="#000000" stroke-opacity="1" stroke-width="3.2"></circle>
<circle clip-path="url(#clip284)" cx="479.126" cy="1101.66" r="14.4" fill="#009af9" fill-rule="evenodd" fill-opacity="1" stroke="#000000" stroke-opacity="1" stroke-width="3.2"></circle>
<circle clip-path="url(#clip284)" cx="507.846" cy="1090.03" r="14.4" fill="#009af9" fill-rule="evenodd" fill-opacity="1" stroke="#000000" stroke-opacity="1" stroke-width="3.2"></circle>
<circle clip-path="url(#clip284)" cx="536.566" cy="1100.58" r="14.4" fill="#009af9" fill-rule="evenodd" fill-opacity="1" stroke="#000000" stroke-opacity="1" stroke-width="3.2"></circle>
<circle clip-path="url(#clip284)" cx="565.286" cy="1148.13" r="14.4" fill="#009af9" fill-rule="evenodd" fill-opacity="1" stroke="#000000" stroke-opacity="1" stroke-width="3.2"></circle>
<circle clip-path="url(#clip284)" cx="594.006" cy="1096.98" r="14.4" fill="#009af9" fill-rule="evenodd" fill-opacity="1" stroke="#000000" stroke-opacity="1" stroke-width="3.2"></circle>
<circle clip-path="url(#clip284)" cx="622.725" cy="1064.27" r="14.4" fill="#009af9" fill-rule="evenodd" fill-opacity="1" stroke="#000000" stroke-opacity="1" stroke-width="3.2"></circle>
<circle clip-path="url(#clip284)" cx="651.445" cy="1138.36" r="14.4" fill="#009af9" fill-rule="evenodd" fill-opacity="1" stroke="#000000" stroke-opacity="1" stroke-width="3.2"></circle>
<circle clip-path="url(#clip284)" cx="680.165" cy="1186.4" r="14.4" fill="#009af9" fill-rule="evenodd" fill-opacity="1" stroke="#000000" stroke-opacity="1" stroke-width="3.2"></circle>
<circle clip-path="url(#clip284)" cx="708.885" cy="1198.14" r="14.4" fill="#009af9" fill-rule="evenodd" fill-opacity="1" stroke="#000000" stroke-opacity="1" stroke-width="3.2"></circle>
<circle clip-path="url(#clip284)" cx="737.605" cy="1187.69" r="14.4" fill="#009af9" fill-rule="evenodd" fill-opacity="1" stroke="#000000" stroke-opacity="1" stroke-width="3.2"></circle>
<circle clip-path="url(#clip284)" cx="766.325" cy="1118.77" r="14.4" fill="#009af9" fill-rule="evenodd" fill-opacity="1" stroke="#000000" stroke-opacity="1" stroke-width="3.2"></circle>
<circle clip-path="url(#clip284)" cx="795.045" cy="1166.83" r="14.4" fill="#009af9" fill-rule="evenodd" fill-opacity="1" stroke="#000000" stroke-opacity="1" stroke-width="3.2"></circle>
<circle clip-path="url(#clip284)" cx="823.765" cy="1250.15" r="14.4" fill="#009af9" fill-rule="evenodd" fill-opacity="1" stroke="#000000" stroke-opacity="1" stroke-width="3.2"></circle>
<circle clip-path="url(#clip284)" cx="852.485" cy="1345.97" r="14.4" fill="#009af9" fill-rule="evenodd" fill-opacity="1" stroke="#000000" stroke-opacity="1" stroke-width="3.2"></circle>
<circle clip-path="url(#clip284)" cx="881.205" cy="1348.7" r="14.4" fill="#009af9" fill-rule="evenodd" fill-opacity="1" stroke="#000000" stroke-opacity="1" stroke-width="3.2"></circle>
<circle clip-path="url(#clip284)" cx="909.925" cy="1351.03" r="14.4" fill="#009af9" fill-rule="evenodd" fill-opacity="1" stroke="#000000" stroke-opacity="1" stroke-width="3.2"></circle>
<circle clip-path="url(#clip284)" cx="938.645" cy="1309.4" r="14.4" fill="#009af9" fill-rule="evenodd" fill-opacity="1" stroke="#000000" stroke-opacity="1" stroke-width="3.2"></circle>
<circle clip-path="url(#clip284)" cx="967.365" cy="1353.67" r="14.4" fill="#009af9" fill-rule="evenodd" fill-opacity="1" stroke="#000000" stroke-opacity="1" stroke-width="3.2"></circle>
<circle clip-path="url(#clip284)" cx="996.085" cy="1363.12" r="14.4" fill="#009af9" fill-rule="evenodd" fill-opacity="1" stroke="#000000" stroke-opacity="1" stroke-width="3.2"></circle>
<circle clip-path="url(#clip284)" cx="1024.81" cy="1317.65" r="14.4" fill="#009af9" fill-rule="evenodd" fill-opacity="1" stroke="#000000" stroke-opacity="1" stroke-width="3.2"></circle>
<circle clip-path="url(#clip284)" cx="1053.53" cy="1415.14" r="14.4" fill="#009af9" fill-rule="evenodd" fill-opacity="1" stroke="#000000" stroke-opacity="1" stroke-width="3.2"></circle>
<circle clip-path="url(#clip284)" cx="1082.25" cy="1458.63" r="14.4" fill="#009af9" fill-rule="evenodd" fill-opacity="1" stroke="#000000" stroke-opacity="1" stroke-width="3.2"></circle>
<circle clip-path="url(#clip284)" cx="1110.97" cy="1470.51" r="14.4" fill="#009af9" fill-rule="evenodd" fill-opacity="1" stroke="#000000" stroke-opacity="1" stroke-width="3.2"></circle>
<path clip-path="url(#clip280)" d="M959.413 1045.92 L1106.22 1045.92 L1106.22 942.238 L959.413 942.238  Z" fill="#ffffff" fill-rule="evenodd" fill-opacity="1"></path>
<polyline clip-path="url(#clip280)" style="stroke:#000000; stroke-linecap:round; stroke-linejoin:round; stroke-width:4; stroke-opacity:1; fill:none" points="959.413,1045.92 1106.22,1045.92 1106.22,942.238 959.413,942.238 959.413,1045.92 "></polyline>
<circle clip-path="url(#clip280)" cx="1001.36" cy="994.078" r="20.48" fill="#009af9" fill-rule="evenodd" fill-opacity="1" stroke="#000000" stroke-opacity="1" stroke-width="4.55111"></circle>
<path clip-path="url(#clip280)" d="M1057.14 1013.77 Q1055.34 1018.39 1053.62 1019.81 Q1051.91 1021.22 1049.04 1021.22 L1045.64 1021.22 L1045.64 1017.65 L1048.14 1017.65 Q1049.9 1017.65 1050.87 1016.82 Q1051.84 1015.99 1053.02 1012.89 L1053.79 1010.94 L1043.3 985.432 L1047.81 985.432 L1055.92 1005.71 L1064.02 985.432 L1068.53 985.432 L1057.14 1013.77 Z" fill="#000000" fill-rule="nonzero" fill-opacity="1"></path><path clip-path="url(#clip280)" d="M1075.82 1007.42 L1083.46 1007.42 L1083.46 981.057 L1075.15 982.724 L1075.15 978.465 L1083.42 976.798 L1088.09 976.798 L1088.09 1007.42 L1095.73 1007.42 L1095.73 1011.36 L1075.82 1011.36 L1075.82 1007.42 Z" fill="#000000" fill-rule="nonzero" fill-opacity="1"></path></svg>