<svg xmlns="http://www.w3.org/2000/svg" xmlns:xlink="http://www.w3.org/1999/xlink" width="600" height="400" viewBox="0 0 2400 1600">
<defs>
  <clipPath id="clip000">
    <rect x="0" y="0" width="2400" height="1600"></rect>
  </clipPath>
</defs>
<path clip-path="url(#clip000)" d="M0 1600 L2400 1600 L2400 0 L0 0  Z" fill="#ffffff" fill-rule="evenodd" fill-opacity="1"></path>
<defs>
  <clipPath id="clip001">
    <rect x="480" y="0" width="1681" height="1600"></rect>
  </clipPath>
</defs>
<path clip-path="url(#clip000)" d="M223.103 686.448 L1152.76 686.448 L1152.76 123.472 L223.103 123.472  Z" fill="#ffffff" fill-rule="evenodd" fill-opacity="1"></path>
<defs>
  <clipPath id="clip002">
    <rect x="223" y="123" width="931" height="564"></rect>
  </clipPath>
</defs>
<polyline clip-path="url(#clip002)" style="stroke:#000000; stroke-linecap:round; stroke-linejoin:round; stroke-width:2; stroke-opacity:0.1; fill:none" points="249.413,686.448 249.413,123.472 "></polyline>
<polyline clip-path="url(#clip002)" style="stroke:#000000; stroke-linecap:round; stroke-linejoin:round; stroke-width:2; stroke-opacity:0.1; fill:none" points="468.671,686.448 468.671,123.472 "></polyline>
<polyline clip-path="url(#clip002)" style="stroke:#000000; stroke-linecap:round; stroke-linejoin:round; stroke-width:2; stroke-opacity:0.1; fill:none" points="687.929,686.448 687.929,123.472 "></polyline>
<polyline clip-path="url(#clip002)" style="stroke:#000000; stroke-linecap:round; stroke-linejoin:round; stroke-width:2; stroke-opacity:0.1; fill:none" points="907.187,686.448 907.187,123.472 "></polyline>
<polyline clip-path="url(#clip002)" style="stroke:#000000; stroke-linecap:round; stroke-linejoin:round; stroke-width:2; stroke-opacity:0.1; fill:none" points="1126.44,686.448 1126.44,123.472 "></polyline>
<polyline clip-path="url(#clip000)" style="stroke:#000000; stroke-linecap:round; stroke-linejoin:round; stroke-width:4; stroke-opacity:1; fill:none" points="223.103,686.448 1152.76,686.448 "></polyline>
<polyline clip-path="url(#clip000)" style="stroke:#000000; stroke-linecap:round; stroke-linejoin:round; stroke-width:4; stroke-opacity:1; fill:none" points="249.413,686.448 249.413,667.55 "></polyline>
<polyline clip-path="url(#clip000)" style="stroke:#000000; stroke-linecap:round; stroke-linejoin:round; stroke-width:4; stroke-opacity:1; fill:none" points="468.671,686.448 468.671,667.55 "></polyline>
<polyline clip-path="url(#clip000)" style="stroke:#000000; stroke-linecap:round; stroke-linejoin:round; stroke-width:4; stroke-opacity:1; fill:none" points="687.929,686.448 687.929,667.55 "></polyline>
<polyline clip-path="url(#clip000)" style="stroke:#000000; stroke-linecap:round; stroke-linejoin:round; stroke-width:4; stroke-opacity:1; fill:none" points="907.187,686.448 907.187,667.55 "></polyline>
<polyline clip-path="url(#clip000)" style="stroke:#000000; stroke-linecap:round; stroke-linejoin:round; stroke-width:4; stroke-opacity:1; fill:none" points="1126.44,686.448 1126.44,667.55 "></polyline>
<path clip-path="url(#clip000)" d="M211.717 717.367 Q208.106 717.367 206.277 720.931 Q204.472 724.473 204.472 731.603 Q204.472 738.709 206.277 742.274 Q208.106 745.815 211.717 745.815 Q215.351 745.815 217.157 742.274 Q218.985 738.709 218.985 731.603 Q218.985 724.473 217.157 720.931 Q215.351 717.367 211.717 717.367 M211.717 713.663 Q217.527 713.663 220.583 718.269 Q223.661 722.853 223.661 731.603 Q223.661 740.329 220.583 744.936 Q217.527 749.519 211.717 749.519 Q205.907 749.519 202.828 744.936 Q199.773 740.329 199.773 731.603 Q199.773 722.853 202.828 718.269 Q205.907 713.663 211.717 713.663 Z" fill="#000000" fill-rule="nonzero" fill-opacity="1"></path><path clip-path="url(#clip000)" d="M231.879 742.968 L236.763 742.968 L236.763 748.848 L231.879 748.848 L231.879 742.968 Z" fill="#000000" fill-rule="nonzero" fill-opacity="1"></path><path clip-path="url(#clip000)" d="M256.948 717.367 Q253.337 717.367 251.508 720.931 Q249.703 724.473 249.703 731.603 Q249.703 738.709 251.508 742.274 Q253.337 745.815 256.948 745.815 Q260.582 745.815 262.388 742.274 Q264.217 738.709 264.217 731.603 Q264.217 724.473 262.388 720.931 Q260.582 717.367 256.948 717.367 M256.948 713.663 Q262.758 713.663 265.814 718.269 Q268.893 722.853 268.893 731.603 Q268.893 740.329 265.814 744.936 Q262.758 749.519 256.948 749.519 Q251.138 749.519 248.059 744.936 Q245.004 740.329 245.004 731.603 Q245.004 722.853 248.059 718.269 Q251.138 713.663 256.948 713.663 Z" fill="#000000" fill-rule="nonzero" fill-opacity="1"></path><path clip-path="url(#clip000)" d="M287.11 717.367 Q283.499 717.367 281.67 720.931 Q279.865 724.473 279.865 731.603 Q279.865 738.709 281.67 742.274 Q283.499 745.815 287.11 745.815 Q290.744 745.815 292.55 742.274 Q294.378 738.709 294.378 731.603 Q294.378 724.473 292.55 720.931 Q290.744 717.367 287.11 717.367 M287.11 713.663 Q292.92 713.663 295.976 718.269 Q299.054 722.853 299.054 731.603 Q299.054 740.329 295.976 744.936 Q292.92 749.519 287.11 749.519 Q281.3 749.519 278.221 744.936 Q275.166 740.329 275.166 731.603 Q275.166 722.853 278.221 718.269 Q281.3 713.663 287.11 713.663 Z" fill="#000000" fill-rule="nonzero" fill-opacity="1"></path><path clip-path="url(#clip000)" d="M431.472 717.367 Q427.861 717.367 426.033 720.931 Q424.227 724.473 424.227 731.603 Q424.227 738.709 426.033 742.274 Q427.861 745.815 431.472 745.815 Q435.107 745.815 436.912 742.274 Q438.741 738.709 438.741 731.603 Q438.741 724.473 436.912 720.931 Q435.107 717.367 431.472 717.367 M431.472 713.663 Q437.283 713.663 440.338 718.269 Q443.417 722.853 443.417 731.603 Q443.417 740.329 440.338 744.936 Q437.283 749.519 431.472 749.519 Q425.662 749.519 422.584 744.936 Q419.528 740.329 419.528 731.603 Q419.528 722.853 422.584 718.269 Q425.662 713.663 431.472 713.663 Z" fill="#000000" fill-rule="nonzero" fill-opacity="1"></path><path clip-path="url(#clip000)" d="M451.634 742.968 L456.519 742.968 L456.519 748.848 L451.634 748.848 L451.634 742.968 Z" fill="#000000" fill-rule="nonzero" fill-opacity="1"></path><path clip-path="url(#clip000)" d="M470.732 744.913 L487.051 744.913 L487.051 748.848 L465.107 748.848 L465.107 744.913 Q467.769 742.158 472.352 737.528 Q476.958 732.876 478.139 731.533 Q480.384 729.01 481.264 727.274 Q482.167 725.515 482.167 723.825 Q482.167 721.07 480.222 719.334 Q478.301 717.598 475.199 717.598 Q473 717.598 470.546 718.362 Q468.116 719.126 465.338 720.677 L465.338 715.955 Q468.162 714.82 470.616 714.242 Q473.069 713.663 475.106 713.663 Q480.477 713.663 483.671 716.348 Q486.866 719.033 486.866 723.524 Q486.866 725.654 486.055 727.575 Q485.268 729.473 483.162 732.066 Q482.583 732.737 479.481 735.954 Q476.38 739.149 470.732 744.913 Z" fill="#000000" fill-rule="nonzero" fill-opacity="1"></path><path clip-path="url(#clip000)" d="M496.912 714.288 L515.268 714.288 L515.268 718.223 L501.194 718.223 L501.194 726.695 Q502.213 726.348 503.231 726.186 Q504.25 726.001 505.268 726.001 Q511.055 726.001 514.435 729.172 Q517.815 732.343 517.815 737.76 Q517.815 743.339 514.342 746.44 Q510.87 749.519 504.551 749.519 Q502.375 749.519 500.106 749.149 Q497.861 748.778 495.454 748.038 L495.454 743.339 Q497.537 744.473 499.759 745.028 Q501.981 745.584 504.458 745.584 Q508.463 745.584 510.801 743.478 Q513.139 741.371 513.139 737.76 Q513.139 734.149 510.801 732.042 Q508.463 729.936 504.458 729.936 Q502.583 729.936 500.708 730.353 Q498.856 730.769 496.912 731.649 L496.912 714.288 Z" fill="#000000" fill-rule="nonzero" fill-opacity="1"></path><path clip-path="url(#clip000)" d="M650.233 717.367 Q646.622 717.367 644.793 720.931 Q642.987 724.473 642.987 731.603 Q642.987 738.709 644.793 742.274 Q646.622 745.815 650.233 745.815 Q653.867 745.815 655.672 742.274 Q657.501 738.709 657.501 731.603 Q657.501 724.473 655.672 720.931 Q653.867 717.367 650.233 717.367 M650.233 713.663 Q656.043 713.663 659.098 718.269 Q662.177 722.853 662.177 731.603 Q662.177 740.329 659.098 744.936 Q656.043 749.519 650.233 749.519 Q644.422 749.519 641.344 744.936 Q638.288 740.329 638.288 731.603 Q638.288 722.853 641.344 718.269 Q644.422 713.663 650.233 713.663 Z" fill="#000000" fill-rule="nonzero" fill-opacity="1"></path><path clip-path="url(#clip000)" d="M670.395 742.968 L675.279 742.968 L675.279 748.848 L670.395 748.848 L670.395 742.968 Z" fill="#000000" fill-rule="nonzero" fill-opacity="1"></path><path clip-path="url(#clip000)" d="M685.51 714.288 L703.867 714.288 L703.867 718.223 L689.793 718.223 L689.793 726.695 Q690.811 726.348 691.83 726.186 Q692.848 726.001 693.867 726.001 Q699.654 726.001 703.033 729.172 Q706.413 732.343 706.413 737.76 Q706.413 743.339 702.941 746.44 Q699.468 749.519 693.149 749.519 Q690.973 749.519 688.705 749.149 Q686.459 748.778 684.052 748.038 L684.052 743.339 Q686.135 744.473 688.357 745.028 Q690.58 745.584 693.056 745.584 Q697.061 745.584 699.399 743.478 Q701.737 741.371 701.737 737.76 Q701.737 734.149 699.399 732.042 Q697.061 729.936 693.056 729.936 Q691.182 729.936 689.307 730.353 Q687.455 730.769 685.51 731.649 L685.51 714.288 Z" fill="#000000" fill-rule="nonzero" fill-opacity="1"></path><path clip-path="url(#clip000)" d="M725.626 717.367 Q722.015 717.367 720.186 720.931 Q718.38 724.473 718.38 731.603 Q718.38 738.709 720.186 742.274 Q722.015 745.815 725.626 745.815 Q729.26 745.815 731.066 742.274 Q732.894 738.709 732.894 731.603 Q732.894 724.473 731.066 720.931 Q729.26 717.367 725.626 717.367 M725.626 713.663 Q731.436 713.663 734.491 718.269 Q737.57 722.853 737.57 731.603 Q737.57 740.329 734.491 744.936 Q731.436 749.519 725.626 749.519 Q719.816 749.519 716.737 744.936 Q713.681 740.329 713.681 731.603 Q713.681 722.853 716.737 718.269 Q719.816 713.663 725.626 713.663 Z" fill="#000000" fill-rule="nonzero" fill-opacity="1"></path><path clip-path="url(#clip000)" d="M869.988 717.367 Q866.377 717.367 864.548 720.931 Q862.743 724.473 862.743 731.603 Q862.743 738.709 864.548 742.274 Q866.377 745.815 869.988 745.815 Q873.622 745.815 875.428 742.274 Q877.257 738.709 877.257 731.603 Q877.257 724.473 875.428 720.931 Q873.622 717.367 869.988 717.367 M869.988 713.663 Q875.798 713.663 878.854 718.269 Q881.933 722.853 881.933 731.603 Q881.933 740.329 878.854 744.936 Q875.798 749.519 869.988 749.519 Q864.178 749.519 861.099 744.936 Q858.044 740.329 858.044 731.603 Q858.044 722.853 861.099 718.269 Q864.178 713.663 869.988 713.663 Z" fill="#000000" fill-rule="nonzero" fill-opacity="1"></path><path clip-path="url(#clip000)" d="M890.15 742.968 L895.034 742.968 L895.034 748.848 L890.15 748.848 L890.15 742.968 Z" fill="#000000" fill-rule="nonzero" fill-opacity="1"></path><path clip-path="url(#clip000)" d="M904.039 714.288 L926.261 714.288 L926.261 716.279 L913.715 748.848 L908.831 748.848 L920.636 718.223 L904.039 718.223 L904.039 714.288 Z" fill="#000000" fill-rule="nonzero" fill-opacity="1"></path><path clip-path="url(#clip000)" d="M935.428 714.288 L953.784 714.288 L953.784 718.223 L939.71 718.223 L939.71 726.695 Q940.729 726.348 941.747 726.186 Q942.766 726.001 943.784 726.001 Q949.571 726.001 952.951 729.172 Q956.33 732.343 956.33 737.76 Q956.33 743.339 952.858 746.44 Q949.386 749.519 943.067 749.519 Q940.891 749.519 938.622 749.149 Q936.377 748.778 933.969 748.038 L933.969 743.339 Q936.053 744.473 938.275 745.028 Q940.497 745.584 942.974 745.584 Q946.979 745.584 949.316 743.478 Q951.654 741.371 951.654 737.76 Q951.654 734.149 949.316 732.042 Q946.979 729.936 942.974 729.936 Q941.099 729.936 939.224 730.353 Q937.372 730.769 935.428 731.649 L935.428 714.288 Z" fill="#000000" fill-rule="nonzero" fill-opacity="1"></path><path clip-path="url(#clip000)" d="M1078.52 744.913 L1086.16 744.913 L1086.16 718.547 L1077.85 720.214 L1077.85 715.955 L1086.11 714.288 L1090.79 714.288 L1090.79 744.913 L1098.42 744.913 L1098.42 748.848 L1078.52 748.848 L1078.52 744.913 Z" fill="#000000" fill-rule="nonzero" fill-opacity="1"></path><path clip-path="url(#clip000)" d="M1107.87 742.968 L1112.75 742.968 L1112.75 748.848 L1107.87 748.848 L1107.87 742.968 Z" fill="#000000" fill-rule="nonzero" fill-opacity="1"></path><path clip-path="url(#clip000)" d="M1132.94 717.367 Q1129.33 717.367 1127.5 720.931 Q1125.69 724.473 1125.69 731.603 Q1125.69 738.709 1127.5 742.274 Q1129.33 745.815 1132.94 745.815 Q1136.57 745.815 1138.38 742.274 Q1140.21 738.709 1140.21 731.603 Q1140.21 724.473 1138.38 720.931 Q1136.57 717.367 1132.94 717.367 M1132.94 713.663 Q1138.75 713.663 1141.8 718.269 Q1144.88 722.853 1144.88 731.603 Q1144.88 740.329 1141.8 744.936 Q1138.75 749.519 1132.94 749.519 Q1127.13 749.519 1124.05 744.936 Q1120.99 740.329 1120.99 731.603 Q1120.99 722.853 1124.05 718.269 Q1127.13 713.663 1132.94 713.663 Z" fill="#000000" fill-rule="nonzero" fill-opacity="1"></path><path clip-path="url(#clip000)" d="M1163.1 717.367 Q1159.49 717.367 1157.66 720.931 Q1155.85 724.473 1155.85 731.603 Q1155.85 738.709 1157.66 742.274 Q1159.49 745.815 1163.1 745.815 Q1166.73 745.815 1168.54 742.274 Q1170.37 738.709 1170.37 731.603 Q1170.37 724.473 1168.54 720.931 Q1166.73 717.367 1163.1 717.367 M1163.1 713.663 Q1168.91 713.663 1171.97 718.269 Q1175.04 722.853 1175.04 731.603 Q1175.04 740.329 1171.97 744.936 Q1168.91 749.519 1163.1 749.519 Q1157.29 749.519 1154.21 744.936 Q1151.16 740.329 1151.16 731.603 Q1151.16 722.853 1154.21 718.269 Q1157.29 713.663 1163.1 713.663 Z" fill="#000000" fill-rule="nonzero" fill-opacity="1"></path><polyline clip-path="url(#clip002)" style="stroke:#000000; stroke-linecap:round; stroke-linejoin:round; stroke-width:2; stroke-opacity:0.1; fill:none" points="223.103,656.485 1152.76,656.485 "></polyline>
<polyline clip-path="url(#clip002)" style="stroke:#000000; stroke-linecap:round; stroke-linejoin:round; stroke-width:2; stroke-opacity:0.1; fill:none" points="223.103,518.108 1152.76,518.108 "></polyline>
<polyline clip-path="url(#clip002)" style="stroke:#000000; stroke-linecap:round; stroke-linejoin:round; stroke-width:2; stroke-opacity:0.1; fill:none" points="223.103,379.732 1152.76,379.732 "></polyline>
<polyline clip-path="url(#clip002)" style="stroke:#000000; stroke-linecap:round; stroke-linejoin:round; stroke-width:2; stroke-opacity:0.1; fill:none" points="223.103,241.355 1152.76,241.355 "></polyline>
<polyline clip-path="url(#clip000)" style="stroke:#000000; stroke-linecap:round; stroke-linejoin:round; stroke-width:4; stroke-opacity:1; fill:none" points="223.103,686.448 223.103,123.472 "></polyline>
<polyline clip-path="url(#clip000)" style="stroke:#000000; stroke-linecap:round; stroke-linejoin:round; stroke-width:4; stroke-opacity:1; fill:none" points="223.103,656.485 242,656.485 "></polyline>
<polyline clip-path="url(#clip000)" style="stroke:#000000; stroke-linecap:round; stroke-linejoin:round; stroke-width:4; stroke-opacity:1; fill:none" points="223.103,518.108 242,518.108 "></polyline>
<polyline clip-path="url(#clip000)" style="stroke:#000000; stroke-linecap:round; stroke-linejoin:round; stroke-width:4; stroke-opacity:1; fill:none" points="223.103,379.732 242,379.732 "></polyline>
<polyline clip-path="url(#clip000)" style="stroke:#000000; stroke-linecap:round; stroke-linejoin:round; stroke-width:4; stroke-opacity:1; fill:none" points="223.103,241.355 242,241.355 "></polyline>
<path clip-path="url(#clip000)" d="M126.987 656.936 L156.663 656.936 L156.663 660.871 L126.987 660.871 L126.987 656.936 Z" fill="#000000" fill-rule="nonzero" fill-opacity="1"></path><path clip-path="url(#clip000)" d="M170.783 669.83 L187.103 669.83 L187.103 673.765 L165.158 673.765 L165.158 669.83 Q167.82 667.075 172.404 662.446 Q177.01 657.793 178.191 656.45 Q180.436 653.927 181.316 652.191 Q182.218 650.432 182.218 648.742 Q182.218 645.987 180.274 644.251 Q178.353 642.515 175.251 642.515 Q173.052 642.515 170.598 643.279 Q168.167 644.043 165.39 645.594 L165.39 640.872 Q168.214 639.737 170.667 639.159 Q173.121 638.58 175.158 638.58 Q180.528 638.58 183.723 641.265 Q186.917 643.95 186.917 648.441 Q186.917 650.571 186.107 652.492 Q185.32 654.39 183.214 656.983 Q182.635 657.654 179.533 660.871 Q176.431 664.066 170.783 669.83 Z" fill="#000000" fill-rule="nonzero" fill-opacity="1"></path><path clip-path="url(#clip000)" d="M126.617 518.56 L156.292 518.56 L156.292 522.495 L126.617 522.495 L126.617 518.56 Z" fill="#000000" fill-rule="nonzero" fill-opacity="1"></path><path clip-path="url(#clip000)" d="M167.195 531.453 L174.834 531.453 L174.834 505.088 L166.524 506.754 L166.524 502.495 L174.788 500.828 L179.464 500.828 L179.464 531.453 L187.103 531.453 L187.103 535.388 L167.195 535.388 L167.195 531.453 Z" fill="#000000" fill-rule="nonzero" fill-opacity="1"></path><path clip-path="url(#clip000)" d="M175.158 365.53 Q171.547 365.53 169.718 369.095 Q167.913 372.637 167.913 379.766 Q167.913 386.873 169.718 390.438 Q171.547 393.979 175.158 393.979 Q178.792 393.979 180.598 390.438 Q182.427 386.873 182.427 379.766 Q182.427 372.637 180.598 369.095 Q178.792 365.53 175.158 365.53 M175.158 361.827 Q180.968 361.827 184.024 366.433 Q187.103 371.017 187.103 379.766 Q187.103 388.493 184.024 393.1 Q180.968 397.683 175.158 397.683 Q169.348 397.683 166.269 393.1 Q163.214 388.493 163.214 379.766 Q163.214 371.017 166.269 366.433 Q169.348 361.827 175.158 361.827 Z" fill="#000000" fill-rule="nonzero" fill-opacity="1"></path><path clip-path="url(#clip000)" d="M167.195 254.7 L174.834 254.7 L174.834 228.334 L166.524 230.001 L166.524 225.742 L174.788 224.075 L179.464 224.075 L179.464 254.7 L187.103 254.7 L187.103 258.635 L167.195 258.635 L167.195 254.7 Z" fill="#000000" fill-rule="nonzero" fill-opacity="1"></path><path clip-path="url(#clip000)" d="M492.878 63.9476 L492.878 47.7034 L479.51 47.7034 L479.51 40.9789 L500.98 40.9789 L500.98 66.9452 Q496.24 70.3075 490.529 72.0494 Q484.817 73.7508 478.335 73.7508 Q464.157 73.7508 456.136 65.4869 Q448.156 57.1826 448.156 42.3968 Q448.156 27.5705 456.136 19.3066 Q464.157 11.0023 478.335 11.0023 Q484.25 11.0023 489.556 12.4606 Q494.904 13.9189 499.4 16.7545 L499.4 25.464 Q494.863 21.6156 489.759 19.6712 Q484.655 17.7268 479.024 17.7268 Q467.925 17.7268 462.334 23.9246 Q456.785 30.1225 456.785 42.3968 Q456.785 54.6305 462.334 60.8284 Q467.925 67.0263 479.024 67.0263 Q483.359 67.0263 486.761 66.2971 Q490.164 65.5274 492.878 63.9476 Z" fill="#000000" fill-rule="nonzero" fill-opacity="1"></path><path clip-path="url(#clip000)" d="M504.585 12.096 L555.748 12.096 L555.748 18.9825 L534.278 18.9825 L534.278 72.576 L526.055 72.576 L526.055 18.9825 L504.585 18.9825 L504.585 12.096 Z" fill="#000000" fill-rule="nonzero" fill-opacity="1"></path><path clip-path="url(#clip000)" d="M590.019 12.096 L624.776 12.096 L624.776 18.9825 L598.202 18.9825 L598.202 36.8065 L622.183 36.8065 L622.183 43.6931 L598.202 43.6931 L598.202 72.576 L590.019 72.576 L590.019 12.096 Z" fill="#000000" fill-rule="nonzero" fill-opacity="1"></path><path clip-path="url(#clip000)" d="M632.108 54.671 L632.108 27.2059 L639.561 27.2059 L639.561 54.3874 Q639.561 60.8284 642.073 64.0691 Q644.585 67.2693 649.608 67.2693 Q655.644 67.2693 659.127 63.421 Q662.652 59.5726 662.652 52.9291 L662.652 27.2059 L670.105 27.2059 L670.105 72.576 L662.652 72.576 L662.652 65.6084 Q659.937 69.7404 656.332 71.7658 Q652.767 73.7508 648.028 73.7508 Q640.21 73.7508 636.159 68.8897 Q632.108 64.0286 632.108 54.671 M650.863 26.1121 L650.863 26.1121 Z" fill="#000000" fill-rule="nonzero" fill-opacity="1"></path><path clip-path="url(#clip000)" d="M723.172 45.1919 L723.172 72.576 L715.718 72.576 L715.718 45.4349 Q715.718 38.994 713.207 35.7938 Q710.695 32.5936 705.672 32.5936 Q699.636 32.5936 696.153 36.4419 Q692.669 40.2903 692.669 46.9338 L692.669 72.576 L685.175 72.576 L685.175 27.2059 L692.669 27.2059 L692.669 34.2544 Q695.342 30.163 698.948 28.1376 Q702.593 26.1121 707.333 26.1121 Q715.151 26.1121 719.162 30.9732 Q723.172 35.7938 723.172 45.1919 Z" fill="#000000" fill-rule="nonzero" fill-opacity="1"></path><path clip-path="url(#clip000)" d="M770.689 28.9478 L770.689 35.9153 Q767.529 34.1734 764.329 33.3227 Q761.17 32.4315 757.929 32.4315 Q750.678 32.4315 746.667 37.0496 Q742.657 41.6271 742.657 49.9314 Q742.657 58.2358 746.667 62.8538 Q750.678 67.4314 757.929 67.4314 Q761.17 67.4314 764.329 66.5807 Q767.529 65.6895 770.689 63.9476 L770.689 70.8341 Q767.57 72.2924 764.208 73.0216 Q760.886 73.7508 757.119 73.7508 Q746.87 73.7508 740.834 67.3098 Q734.798 60.8689 734.798 49.9314 Q734.798 38.832 740.875 32.472 Q746.991 26.1121 757.605 26.1121 Q761.048 26.1121 764.329 26.8413 Q767.61 27.5299 770.689 28.9478 Z" fill="#000000" fill-rule="nonzero" fill-opacity="1"></path><path clip-path="url(#clip000)" d="M791.025 14.324 L791.025 27.2059 L806.378 27.2059 L806.378 32.9987 L791.025 32.9987 L791.025 57.6282 Q791.025 63.1779 792.524 64.7578 Q794.063 66.3376 798.721 66.3376 L806.378 66.3376 L806.378 72.576 L798.721 72.576 Q790.093 72.576 786.812 69.3758 Q783.531 66.1351 783.531 57.6282 L783.531 32.9987 L778.062 32.9987 L778.062 27.2059 L783.531 27.2059 L783.531 14.324 L791.025 14.324 Z" fill="#000000" fill-rule="nonzero" fill-opacity="1"></path><path clip-path="url(#clip000)" d="M816.181 27.2059 L823.634 27.2059 L823.634 72.576 L816.181 72.576 L816.181 27.2059 M816.181 9.54393 L823.634 9.54393 L823.634 18.9825 L816.181 18.9825 L816.181 9.54393 Z" fill="#000000" fill-rule="nonzero" fill-opacity="1"></path><path clip-path="url(#clip000)" d="M856.811 32.4315 Q850.816 32.4315 847.332 37.1306 Q843.849 41.7891 843.849 49.9314 Q843.849 58.0738 847.292 62.7728 Q850.776 67.4314 856.811 67.4314 Q862.766 67.4314 866.25 62.7323 Q869.734 58.0333 869.734 49.9314 Q869.734 41.8701 866.25 37.1711 Q862.766 32.4315 856.811 32.4315 M856.811 26.1121 Q866.534 26.1121 872.083 32.4315 Q877.633 38.7509 877.633 49.9314 Q877.633 61.0714 872.083 67.4314 Q866.534 73.7508 856.811 73.7508 Q847.049 73.7508 841.499 67.4314 Q835.99 61.0714 835.99 49.9314 Q835.99 38.7509 841.499 32.4315 Q847.049 26.1121 856.811 26.1121 Z" fill="#000000" fill-rule="nonzero" fill-opacity="1"></path><path clip-path="url(#clip000)" d="M927.702 45.1919 L927.702 72.576 L920.249 72.576 L920.249 45.4349 Q920.249 38.994 917.737 35.7938 Q915.225 32.5936 910.202 32.5936 Q904.166 32.5936 900.683 36.4419 Q897.199 40.2903 897.199 46.9338 L897.199 72.576 L889.705 72.576 L889.705 27.2059 L897.199 27.2059 L897.199 34.2544 Q899.873 30.163 903.478 28.1376 Q907.124 26.1121 911.863 26.1121 Q919.681 26.1121 923.692 30.9732 Q927.702 35.7938 927.702 45.1919 Z" fill="#000000" fill-rule="nonzero" fill-opacity="1"></path><polyline clip-path="url(#clip002)" style="stroke:#009af9; stroke-linecap:round; stroke-linejoin:round; stroke-width:4; stroke-opacity:1; fill:none" points="249.413,667.191 277.705,670.515 305.996,668.696 334.287,661.773 362.579,649.878 390.87,633.236 419.161,612.167 447.453,587.07 475.744,558.426 504.036,526.784 532.327,492.751 560.618,456.983 588.91,420.171 617.201,383.028 645.492,346.275 673.784,310.63 702.075,276.792 730.366,245.428 758.658,217.163 786.949,192.564 815.24,172.135 843.532,156.303 871.823,145.415 900.114,139.727 928.406,139.405 956.697,144.521 984.988,155.049 1013.28,170.873 1041.57,191.784 1069.86,217.489 1098.15,247.614 1126.44,281.715 "></polyline>
<path clip-path="url(#clip000)" d="M254.091 245.918 L399.487 245.918 L399.487 142.238 L254.091 142.238  Z" fill="#ffffff" fill-rule="evenodd" fill-opacity="1"></path>
<polyline clip-path="url(#clip000)" style="stroke:#000000; stroke-linecap:round; stroke-linejoin:round; stroke-width:4; stroke-opacity:1; fill:none" points="254.091,245.918 399.487,245.918 399.487,142.238 254.091,142.238 254.091,245.918 "></polyline>
<polyline clip-path="url(#clip000)" style="stroke:#009af9; stroke-linecap:round; stroke-linejoin:round; stroke-width:4; stroke-opacity:1; fill:none" points="264.42,194.078 326.397,194.078 "></polyline>
<path clip-path="url(#clip000)" d="M350.569 213.765 Q348.764 218.395 347.051 219.807 Q345.338 221.219 342.468 221.219 L339.065 221.219 L339.065 217.654 L341.565 217.654 Q343.324 217.654 344.296 216.821 Q345.268 215.988 346.449 212.886 L347.213 210.941 L336.727 185.432 L341.241 185.432 L349.342 205.71 L357.444 185.432 L361.958 185.432 L350.569 213.765 Z" fill="#000000" fill-rule="nonzero" fill-opacity="1"></path><path clip-path="url(#clip000)" d="M369.25 207.423 L376.889 207.423 L376.889 181.057 L368.578 182.724 L368.578 178.465 L376.842 176.798 L381.518 176.798 L381.518 207.423 L389.157 207.423 L389.157 211.358 L369.25 211.358 L369.25 207.423 Z" fill="#000000" fill-rule="nonzero" fill-opacity="1"></path><path clip-path="url(#clip000)" d="M1423.1 686.448 L2352.76 686.448 L2352.76 123.472 L1423.1 123.472  Z" fill="#ffffff" fill-rule="evenodd" fill-opacity="1"></path>
<defs>
  <clipPath id="clip003">
    <rect x="1423" y="123" width="931" height="564"></rect>
  </clipPath>
</defs>
<polyline clip-path="url(#clip003)" style="stroke:#000000; stroke-linecap:round; stroke-linejoin:round; stroke-width:2; stroke-opacity:0.1; fill:none" points="1449.41,686.448 1449.41,123.472 "></polyline>
<polyline clip-path="url(#clip003)" style="stroke:#000000; stroke-linecap:round; stroke-linejoin:round; stroke-width:2; stroke-opacity:0.1; fill:none" points="1668.67,686.448 1668.67,123.472 "></polyline>
<polyline clip-path="url(#clip003)" style="stroke:#000000; stroke-linecap:round; stroke-linejoin:round; stroke-width:2; stroke-opacity:0.1; fill:none" points="1887.93,686.448 1887.93,123.472 "></polyline>
<polyline clip-path="url(#clip003)" style="stroke:#000000; stroke-linecap:round; stroke-linejoin:round; stroke-width:2; stroke-opacity:0.1; fill:none" points="2107.19,686.448 2107.19,123.472 "></polyline>
<polyline clip-path="url(#clip003)" style="stroke:#000000; stroke-linecap:round; stroke-linejoin:round; stroke-width:2; stroke-opacity:0.1; fill:none" points="2326.44,686.448 2326.44,123.472 "></polyline>
<polyline clip-path="url(#clip000)" style="stroke:#000000; stroke-linecap:round; stroke-linejoin:round; stroke-width:4; stroke-opacity:1; fill:none" points="1423.1,686.448 2352.76,686.448 "></polyline>
<polyline clip-path="url(#clip000)" style="stroke:#000000; stroke-linecap:round; stroke-linejoin:round; stroke-width:4; stroke-opacity:1; fill:none" points="1449.41,686.448 1449.41,667.55 "></polyline>
<polyline clip-path="url(#clip000)" style="stroke:#000000; stroke-linecap:round; stroke-linejoin:round; stroke-width:4; stroke-opacity:1; fill:none" points="1668.67,686.448 1668.67,667.55 "></polyline>
<polyline clip-path="url(#clip000)" style="stroke:#000000; stroke-linecap:round; stroke-linejoin:round; stroke-width:4; stroke-opacity:1; fill:none" points="1887.93,686.448 1887.93,667.55 "></polyline>
<polyline clip-path="url(#clip000)" style="stroke:#000000; stroke-linecap:round; stroke-linejoin:round; stroke-width:4; stroke-opacity:1; fill:none" points="2107.19,686.448 2107.19,667.55 "></polyline>
<polyline clip-path="url(#clip000)" style="stroke:#000000; stroke-linecap:round; stroke-linejoin:round; stroke-width:4; stroke-opacity:1; fill:none" points="2326.44,686.448 2326.44,667.55 "></polyline>
<path clip-path="url(#clip000)" d="M1411.72 717.367 Q1408.11 717.367 1406.28 720.931 Q1404.47 724.473 1404.47 731.603 Q1404.47 738.709 1406.28 742.274 Q1408.11 745.815 1411.72 745.815 Q1415.35 745.815 1417.16 742.274 Q1418.99 738.709 1418.99 731.603 Q1418.99 724.473 1417.16 720.931 Q1415.35 717.367 1411.72 717.367 M1411.72 713.663 Q1417.53 713.663 1420.58 718.269 Q1423.66 722.853 1423.66 731.603 Q1423.66 740.329 1420.58 744.936 Q1417.53 749.519 1411.72 749.519 Q1405.91 749.519 1402.83 744.936 Q1399.77 740.329 1399.77 731.603 Q1399.77 722.853 1402.83 718.269 Q1405.91 713.663 1411.72 713.663 Z" fill="#000000" fill-rule="nonzero" fill-opacity="1"></path><path clip-path="url(#clip000)" d="M1431.88 742.968 L1436.76 742.968 L1436.76 748.848 L1431.88 748.848 L1431.88 742.968 Z" fill="#000000" fill-rule="nonzero" fill-opacity="1"></path><path clip-path="url(#clip000)" d="M1456.95 717.367 Q1453.34 717.367 1451.51 720.931 Q1449.7 724.473 1449.7 731.603 Q1449.7 738.709 1451.51 742.274 Q1453.34 745.815 1456.95 745.815 Q1460.58 745.815 1462.39 742.274 Q1464.22 738.709 1464.22 731.603 Q1464.22 724.473 1462.39 720.931 Q1460.58 717.367 1456.95 717.367 M1456.95 713.663 Q1462.76 713.663 1465.81 718.269 Q1468.89 722.853 1468.89 731.603 Q1468.89 740.329 1465.81 744.936 Q1462.76 749.519 1456.95 749.519 Q1451.14 749.519 1448.06 744.936 Q1445 740.329 1445 731.603 Q1445 722.853 1448.06 718.269 Q1451.14 713.663 1456.95 713.663 Z" fill="#000000" fill-rule="nonzero" fill-opacity="1"></path><path clip-path="url(#clip000)" d="M1487.11 717.367 Q1483.5 717.367 1481.67 720.931 Q1479.86 724.473 1479.86 731.603 Q1479.86 738.709 1481.67 742.274 Q1483.5 745.815 1487.11 745.815 Q1490.74 745.815 1492.55 742.274 Q1494.38 738.709 1494.38 731.603 Q1494.38 724.473 1492.55 720.931 Q1490.74 717.367 1487.11 717.367 M1487.11 713.663 Q1492.92 713.663 1495.98 718.269 Q1499.05 722.853 1499.05 731.603 Q1499.05 740.329 1495.98 744.936 Q1492.92 749.519 1487.11 749.519 Q1481.3 749.519 1478.22 744.936 Q1475.17 740.329 1475.17 731.603 Q1475.17 722.853 1478.22 718.269 Q1481.3 713.663 1487.11 713.663 Z" fill="#000000" fill-rule="nonzero" fill-opacity="1"></path><path clip-path="url(#clip000)" d="M1631.47 717.367 Q1627.86 717.367 1626.03 720.931 Q1624.23 724.473 1624.23 731.603 Q1624.23 738.709 1626.03 742.274 Q1627.86 745.815 1631.47 745.815 Q1635.11 745.815 1636.91 742.274 Q1638.74 738.709 1638.74 731.603 Q1638.74 724.473 1636.91 720.931 Q1635.11 717.367 1631.47 717.367 M1631.47 713.663 Q1637.28 713.663 1640.34 718.269 Q1643.42 722.853 1643.42 731.603 Q1643.42 740.329 1640.34 744.936 Q1637.28 749.519 1631.47 749.519 Q1625.66 749.519 1622.58 744.936 Q1619.53 740.329 1619.53 731.603 Q1619.53 722.853 1622.58 718.269 Q1625.66 713.663 1631.47 713.663 Z" fill="#000000" fill-rule="nonzero" fill-opacity="1"></path><path clip-path="url(#clip000)" d="M1651.63 742.968 L1656.52 742.968 L1656.52 748.848 L1651.63 748.848 L1651.63 742.968 Z" fill="#000000" fill-rule="nonzero" fill-opacity="1"></path><path clip-path="url(#clip000)" d="M1670.73 744.913 L1687.05 744.913 L1687.05 748.848 L1665.11 748.848 L1665.11 744.913 Q1667.77 742.158 1672.35 737.528 Q1676.96 732.876 1678.14 731.533 Q1680.38 729.01 1681.26 727.274 Q1682.17 725.515 1682.17 723.825 Q1682.17 721.07 1680.22 719.334 Q1678.3 717.598 1675.2 717.598 Q1673 717.598 1670.55 718.362 Q1668.12 719.126 1665.34 720.677 L1665.34 715.955 Q1668.16 714.82 1670.62 714.242 Q1673.07 713.663 1675.11 713.663 Q1680.48 713.663 1683.67 716.348 Q1686.87 719.033 1686.87 723.524 Q1686.87 725.654 1686.06 727.575 Q1685.27 729.473 1683.16 732.066 Q1682.58 732.737 1679.48 735.954 Q1676.38 739.149 1670.73 744.913 Z" fill="#000000" fill-rule="nonzero" fill-opacity="1"></path><path clip-path="url(#clip000)" d="M1696.91 714.288 L1715.27 714.288 L1715.27 718.223 L1701.19 718.223 L1701.19 726.695 Q1702.21 726.348 1703.23 726.186 Q1704.25 726.001 1705.27 726.001 Q1711.06 726.001 1714.43 729.172 Q1717.81 732.343 1717.81 737.76 Q1717.81 743.339 1714.34 746.44 Q1710.87 749.519 1704.55 749.519 Q1702.37 749.519 1700.11 749.149 Q1697.86 748.778 1695.45 748.038 L1695.45 743.339 Q1697.54 744.473 1699.76 745.028 Q1701.98 745.584 1704.46 745.584 Q1708.46 745.584 1710.8 743.478 Q1713.14 741.371 1713.14 737.76 Q1713.14 734.149 1710.8 732.042 Q1708.46 729.936 1704.46 729.936 Q1702.58 729.936 1700.71 730.353 Q1698.86 730.769 1696.91 731.649 L1696.91 714.288 Z" fill="#000000" fill-rule="nonzero" fill-opacity="1"></path><path clip-path="url(#clip000)" d="M1850.23 717.367 Q1846.62 717.367 1844.79 720.931 Q1842.99 724.473 1842.99 731.603 Q1842.99 738.709 1844.79 742.274 Q1846.62 745.815 1850.23 745.815 Q1853.87 745.815 1855.67 742.274 Q1857.5 738.709 1857.5 731.603 Q1857.5 724.473 1855.67 720.931 Q1853.87 717.367 1850.23 717.367 M1850.23 713.663 Q1856.04 713.663 1859.1 718.269 Q1862.18 722.853 1862.18 731.603 Q1862.18 740.329 1859.1 744.936 Q1856.04 749.519 1850.23 749.519 Q1844.42 749.519 1841.34 744.936 Q1838.29 740.329 1838.29 731.603 Q1838.29 722.853 1841.34 718.269 Q1844.42 713.663 1850.23 713.663 Z" fill="#000000" fill-rule="nonzero" fill-opacity="1"></path><path clip-path="url(#clip000)" d="M1870.39 742.968 L1875.28 742.968 L1875.28 748.848 L1870.39 748.848 L1870.39 742.968 Z" fill="#000000" fill-rule="nonzero" fill-opacity="1"></path><path clip-path="url(#clip000)" d="M1885.51 714.288 L1903.87 714.288 L1903.87 718.223 L1889.79 718.223 L1889.79 726.695 Q1890.81 726.348 1891.83 726.186 Q1892.85 726.001 1893.87 726.001 Q1899.65 726.001 1903.03 729.172 Q1906.41 732.343 1906.41 737.76 Q1906.41 743.339 1902.94 746.44 Q1899.47 749.519 1893.15 749.519 Q1890.97 749.519 1888.7 749.149 Q1886.46 748.778 1884.05 748.038 L1884.05 743.339 Q1886.14 744.473 1888.36 745.028 Q1890.58 745.584 1893.06 745.584 Q1897.06 745.584 1899.4 743.478 Q1901.74 741.371 1901.74 737.76 Q1901.74 734.149 1899.4 732.042 Q1897.06 729.936 1893.06 729.936 Q1891.18 729.936 1889.31 730.353 Q1887.45 730.769 1885.51 731.649 L1885.51 714.288 Z" fill="#000000" fill-rule="nonzero" fill-opacity="1"></path><path clip-path="url(#clip000)" d="M1925.63 717.367 Q1922.01 717.367 1920.19 720.931 Q1918.38 724.473 1918.38 731.603 Q1918.38 738.709 1920.19 742.274 Q1922.01 745.815 1925.63 745.815 Q1929.26 745.815 1931.07 742.274 Q1932.89 738.709 1932.89 731.603 Q1932.89 724.473 1931.07 720.931 Q1929.26 717.367 1925.63 717.367 M1925.63 713.663 Q1931.44 713.663 1934.49 718.269 Q1937.57 722.853 1937.57 731.603 Q1937.57 740.329 1934.49 744.936 Q1931.44 749.519 1925.63 749.519 Q1919.82 749.519 1916.74 744.936 Q1913.68 740.329 1913.68 731.603 Q1913.68 722.853 1916.74 718.269 Q1919.82 713.663 1925.63 713.663 Z" fill="#000000" fill-rule="nonzero" fill-opacity="1"></path><path clip-path="url(#clip000)" d="M2069.99 717.367 Q2066.38 717.367 2064.55 720.931 Q2062.74 724.473 2062.74 731.603 Q2062.74 738.709 2064.55 742.274 Q2066.38 745.815 2069.99 745.815 Q2073.62 745.815 2075.43 742.274 Q2077.26 738.709 2077.26 731.603 Q2077.26 724.473 2075.43 720.931 Q2073.62 717.367 2069.99 717.367 M2069.99 713.663 Q2075.8 713.663 2078.85 718.269 Q2081.93 722.853 2081.93 731.603 Q2081.93 740.329 2078.85 744.936 Q2075.8 749.519 2069.99 749.519 Q2064.18 749.519 2061.1 744.936 Q2058.04 740.329 2058.04 731.603 Q2058.04 722.853 2061.1 718.269 Q2064.18 713.663 2069.99 713.663 Z" fill="#000000" fill-rule="nonzero" fill-opacity="1"></path><path clip-path="url(#clip000)" d="M2090.15 742.968 L2095.03 742.968 L2095.03 748.848 L2090.15 748.848 L2090.15 742.968 Z" fill="#000000" fill-rule="nonzero" fill-opacity="1"></path><path clip-path="url(#clip000)" d="M2104.04 714.288 L2126.26 714.288 L2126.26 716.279 L2113.71 748.848 L2108.83 748.848 L2120.64 718.223 L2104.04 718.223 L2104.04 714.288 Z" fill="#000000" fill-rule="nonzero" fill-opacity="1"></path><path clip-path="url(#clip000)" d="M2135.43 714.288 L2153.78 714.288 L2153.78 718.223 L2139.71 718.223 L2139.71 726.695 Q2140.73 726.348 2141.75 726.186 Q2142.77 726.001 2143.78 726.001 Q2149.57 726.001 2152.95 729.172 Q2156.33 732.343 2156.33 737.76 Q2156.33 743.339 2152.86 746.44 Q2149.39 749.519 2143.07 749.519 Q2140.89 749.519 2138.62 749.149 Q2136.38 748.778 2133.97 748.038 L2133.97 743.339 Q2136.05 744.473 2138.27 745.028 Q2140.5 745.584 2142.97 745.584 Q2146.98 745.584 2149.32 743.478 Q2151.65 741.371 2151.65 737.76 Q2151.65 734.149 2149.32 732.042 Q2146.98 729.936 2142.97 729.936 Q2141.1 729.936 2139.22 730.353 Q2137.37 730.769 2135.43 731.649 L2135.43 714.288 Z" fill="#000000" fill-rule="nonzero" fill-opacity="1"></path><path clip-path="url(#clip000)" d="M2278.52 744.913 L2286.16 744.913 L2286.16 718.547 L2277.85 720.214 L2277.85 715.955 L2286.11 714.288 L2290.79 714.288 L2290.79 744.913 L2298.42 744.913 L2298.42 748.848 L2278.52 748.848 L2278.52 744.913 Z" fill="#000000" fill-rule="nonzero" fill-opacity="1"></path><path clip-path="url(#clip000)" d="M2307.87 742.968 L2312.75 742.968 L2312.75 748.848 L2307.87 748.848 L2307.87 742.968 Z" fill="#000000" fill-rule="nonzero" fill-opacity="1"></path><path clip-path="url(#clip000)" d="M2332.94 717.367 Q2329.33 717.367 2327.5 720.931 Q2325.69 724.473 2325.69 731.603 Q2325.69 738.709 2327.5 742.274 Q2329.33 745.815 2332.94 745.815 Q2336.57 745.815 2338.38 742.274 Q2340.21 738.709 2340.21 731.603 Q2340.21 724.473 2338.38 720.931 Q2336.57 717.367 2332.94 717.367 M2332.94 713.663 Q2338.75 713.663 2341.8 718.269 Q2344.88 722.853 2344.88 731.603 Q2344.88 740.329 2341.8 744.936 Q2338.75 749.519 2332.94 749.519 Q2327.13 749.519 2324.05 744.936 Q2320.99 740.329 2320.99 731.603 Q2320.99 722.853 2324.05 718.269 Q2327.13 713.663 2332.94 713.663 Z" fill="#000000" fill-rule="nonzero" fill-opacity="1"></path><path clip-path="url(#clip000)" d="M2363.1 717.367 Q2359.49 717.367 2357.66 720.931 Q2355.85 724.473 2355.85 731.603 Q2355.85 738.709 2357.66 742.274 Q2359.49 745.815 2363.1 745.815 Q2366.73 745.815 2368.54 742.274 Q2370.37 738.709 2370.37 731.603 Q2370.37 724.473 2368.54 720.931 Q2366.73 717.367 2363.1 717.367 M2363.1 713.663 Q2368.91 713.663 2371.97 718.269 Q2375.04 722.853 2375.04 731.603 Q2375.04 740.329 2371.97 744.936 Q2368.91 749.519 2363.1 749.519 Q2357.29 749.519 2354.21 744.936 Q2351.16 740.329 2351.16 731.603 Q2351.16 722.853 2354.21 718.269 Q2357.29 713.663 2363.1 713.663 Z" fill="#000000" fill-rule="nonzero" fill-opacity="1"></path><polyline clip-path="url(#clip003)" style="stroke:#000000; stroke-linecap:round; stroke-linejoin:round; stroke-width:2; stroke-opacity:0.1; fill:none" points="1423.1,602.088 2352.76,602.088 "></polyline>
<polyline clip-path="url(#clip003)" style="stroke:#000000; stroke-linecap:round; stroke-linejoin:round; stroke-width:2; stroke-opacity:0.1; fill:none" points="1423.1,493.246 2352.76,493.246 "></polyline>
<polyline clip-path="url(#clip003)" style="stroke:#000000; stroke-linecap:round; stroke-linejoin:round; stroke-width:2; stroke-opacity:0.1; fill:none" points="1423.1,384.404 2352.76,384.404 "></polyline>
<polyline clip-path="url(#clip003)" style="stroke:#000000; stroke-linecap:round; stroke-linejoin:round; stroke-width:2; stroke-opacity:0.1; fill:none" points="1423.1,275.561 2352.76,275.561 "></polyline>
<polyline clip-path="url(#clip003)" style="stroke:#000000; stroke-linecap:round; stroke-linejoin:round; stroke-width:2; stroke-opacity:0.1; fill:none" points="1423.1,166.719 2352.76,166.719 "></polyline>
<polyline clip-path="url(#clip000)" style="stroke:#000000; stroke-linecap:round; stroke-linejoin:round; stroke-width:4; stroke-opacity:1; fill:none" points="1423.1,686.448 1423.1,123.472 "></polyline>
<polyline clip-path="url(#clip000)" style="stroke:#000000; stroke-linecap:round; stroke-linejoin:round; stroke-width:4; stroke-opacity:1; fill:none" points="1423.1,602.088 1442,602.088 "></polyline>
<polyline clip-path="url(#clip000)" style="stroke:#000000; stroke-linecap:round; stroke-linejoin:round; stroke-width:4; stroke-opacity:1; fill:none" points="1423.1,493.246 1442,493.246 "></polyline>
<polyline clip-path="url(#clip000)" style="stroke:#000000; stroke-linecap:round; stroke-linejoin:round; stroke-width:4; stroke-opacity:1; fill:none" points="1423.1,384.404 1442,384.404 "></polyline>
<polyline clip-path="url(#clip000)" style="stroke:#000000; stroke-linecap:round; stroke-linejoin:round; stroke-width:4; stroke-opacity:1; fill:none" points="1423.1,275.561 1442,275.561 "></polyline>
<polyline clip-path="url(#clip000)" style="stroke:#000000; stroke-linecap:round; stroke-linejoin:round; stroke-width:4; stroke-opacity:1; fill:none" points="1423.1,166.719 1442,166.719 "></polyline>
<path clip-path="url(#clip000)" d="M1250.99 602.539 L1280.67 602.539 L1280.67 606.474 L1250.99 606.474 L1250.99 602.539 Z" fill="#000000" fill-rule="nonzero" fill-opacity="1"></path><path clip-path="url(#clip000)" d="M1300.76 587.886 Q1297.15 587.886 1295.32 591.451 Q1293.52 594.993 1293.52 602.123 Q1293.52 609.229 1295.32 612.794 Q1297.15 616.335 1300.76 616.335 Q1304.39 616.335 1306.2 612.794 Q1308.03 609.229 1308.03 602.123 Q1308.03 594.993 1306.2 591.451 Q1304.39 587.886 1300.76 587.886 M1300.76 584.183 Q1306.57 584.183 1309.63 588.789 Q1312.7 593.373 1312.7 602.123 Q1312.7 610.849 1309.63 615.456 Q1306.57 620.039 1300.76 620.039 Q1294.95 620.039 1291.87 615.456 Q1288.82 610.849 1288.82 602.123 Q1288.82 593.373 1291.87 588.789 Q1294.95 584.183 1300.76 584.183 Z" fill="#000000" fill-rule="nonzero" fill-opacity="1"></path><path clip-path="url(#clip000)" d="M1320.92 613.488 L1325.81 613.488 L1325.81 619.368 L1320.92 619.368 L1320.92 613.488 Z" fill="#000000" fill-rule="nonzero" fill-opacity="1"></path><path clip-path="url(#clip000)" d="M1340.02 615.433 L1356.34 615.433 L1356.34 619.368 L1334.39 619.368 L1334.39 615.433 Q1337.06 612.678 1341.64 608.048 Q1346.25 603.396 1347.43 602.053 Q1349.67 599.53 1350.55 597.794 Q1351.45 596.035 1351.45 594.345 Q1351.45 591.59 1349.51 589.854 Q1347.59 588.118 1344.49 588.118 Q1342.29 588.118 1339.83 588.882 Q1337.4 589.646 1334.63 591.197 L1334.63 586.474 Q1337.45 585.34 1339.9 584.761 Q1342.36 584.183 1344.39 584.183 Q1349.76 584.183 1352.96 586.868 Q1356.15 589.553 1356.15 594.044 Q1356.15 596.173 1355.34 598.095 Q1354.56 599.993 1352.45 602.585 Q1351.87 603.257 1348.77 606.474 Q1345.67 609.669 1340.02 615.433 Z" fill="#000000" fill-rule="nonzero" fill-opacity="1"></path><path clip-path="url(#clip000)" d="M1366.2 584.808 L1384.56 584.808 L1384.56 588.743 L1370.48 588.743 L1370.48 597.215 Q1371.5 596.868 1372.52 596.706 Q1373.54 596.521 1374.56 596.521 Q1380.34 596.521 1383.72 599.692 Q1387.1 602.863 1387.1 608.28 Q1387.1 613.859 1383.63 616.96 Q1380.16 620.039 1373.84 620.039 Q1371.66 620.039 1369.39 619.669 Q1367.15 619.298 1364.74 618.558 L1364.74 613.859 Q1366.82 614.993 1369.05 615.548 Q1371.27 616.104 1373.75 616.104 Q1377.75 616.104 1380.09 613.997 Q1382.43 611.891 1382.43 608.28 Q1382.43 604.669 1380.09 602.562 Q1377.75 600.456 1373.75 600.456 Q1371.87 600.456 1370 600.873 Q1368.14 601.289 1366.2 602.169 L1366.2 584.808 Z" fill="#000000" fill-rule="nonzero" fill-opacity="1"></path><path clip-path="url(#clip000)" d="M1299.77 479.044 Q1296.15 479.044 1294.33 482.609 Q1292.52 486.151 1292.52 493.28 Q1292.52 500.387 1294.33 503.952 Q1296.15 507.493 1299.77 507.493 Q1303.4 507.493 1305.2 503.952 Q1307.03 500.387 1307.03 493.28 Q1307.03 486.151 1305.2 482.609 Q1303.4 479.044 1299.77 479.044 M1299.77 475.341 Q1305.58 475.341 1308.63 479.947 Q1311.71 484.53 1311.71 493.28 Q1311.71 502.007 1308.63 506.614 Q1305.58 511.197 1299.77 511.197 Q1293.95 511.197 1290.88 506.614 Q1287.82 502.007 1287.82 493.28 Q1287.82 484.53 1290.88 479.947 Q1293.95 475.341 1299.77 475.341 Z" fill="#000000" fill-rule="nonzero" fill-opacity="1"></path><path clip-path="url(#clip000)" d="M1319.93 504.646 L1324.81 504.646 L1324.81 510.526 L1319.93 510.526 L1319.93 504.646 Z" fill="#000000" fill-rule="nonzero" fill-opacity="1"></path><path clip-path="url(#clip000)" d="M1345 479.044 Q1341.39 479.044 1339.56 482.609 Q1337.75 486.151 1337.75 493.28 Q1337.75 500.387 1339.56 503.952 Q1341.39 507.493 1345 507.493 Q1348.63 507.493 1350.44 503.952 Q1352.26 500.387 1352.26 493.28 Q1352.26 486.151 1350.44 482.609 Q1348.63 479.044 1345 479.044 M1345 475.341 Q1350.81 475.341 1353.86 479.947 Q1356.94 484.53 1356.94 493.28 Q1356.94 502.007 1353.86 506.614 Q1350.81 511.197 1345 511.197 Q1339.19 511.197 1336.11 506.614 Q1333.05 502.007 1333.05 493.28 Q1333.05 484.53 1336.11 479.947 Q1339.19 475.341 1345 475.341 Z" fill="#000000" fill-rule="nonzero" fill-opacity="1"></path><path clip-path="url(#clip000)" d="M1375.16 479.044 Q1371.55 479.044 1369.72 482.609 Q1367.91 486.151 1367.91 493.28 Q1367.91 500.387 1369.72 503.952 Q1371.55 507.493 1375.16 507.493 Q1378.79 507.493 1380.6 503.952 Q1382.43 500.387 1382.43 493.28 Q1382.43 486.151 1380.6 482.609 Q1378.79 479.044 1375.16 479.044 M1375.16 475.341 Q1380.97 475.341 1384.02 479.947 Q1387.1 484.53 1387.1 493.28 Q1387.1 502.007 1384.02 506.614 Q1380.97 511.197 1375.16 511.197 Q1369.35 511.197 1366.27 506.614 Q1363.21 502.007 1363.21 493.28 Q1363.21 484.53 1366.27 479.947 Q1369.35 475.341 1375.16 475.341 Z" fill="#000000" fill-rule="nonzero" fill-opacity="1"></path><path clip-path="url(#clip000)" d="M1300.76 370.202 Q1297.15 370.202 1295.32 373.767 Q1293.52 377.309 1293.52 384.438 Q1293.52 391.545 1295.32 395.109 Q1297.15 398.651 1300.76 398.651 Q1304.39 398.651 1306.2 395.109 Q1308.03 391.545 1308.03 384.438 Q1308.03 377.309 1306.2 373.767 Q1304.39 370.202 1300.76 370.202 M1300.76 366.499 Q1306.57 366.499 1309.63 371.105 Q1312.7 375.688 1312.7 384.438 Q1312.7 393.165 1309.63 397.772 Q1306.57 402.355 1300.76 402.355 Q1294.95 402.355 1291.87 397.772 Q1288.82 393.165 1288.82 384.438 Q1288.82 375.688 1291.87 371.105 Q1294.95 366.499 1300.76 366.499 Z" fill="#000000" fill-rule="nonzero" fill-opacity="1"></path><path clip-path="url(#clip000)" d="M1320.92 395.804 L1325.81 395.804 L1325.81 401.684 L1320.92 401.684 L1320.92 395.804 Z" fill="#000000" fill-rule="nonzero" fill-opacity="1"></path><path clip-path="url(#clip000)" d="M1340.02 397.748 L1356.34 397.748 L1356.34 401.684 L1334.39 401.684 L1334.39 397.748 Q1337.06 394.994 1341.64 390.364 Q1346.25 385.711 1347.43 384.369 Q1349.67 381.846 1350.55 380.11 Q1351.45 378.35 1351.45 376.661 Q1351.45 373.906 1349.51 372.17 Q1347.59 370.434 1344.49 370.434 Q1342.29 370.434 1339.83 371.198 Q1337.4 371.961 1334.63 373.512 L1334.63 368.79 Q1337.45 367.656 1339.9 367.077 Q1342.36 366.499 1344.39 366.499 Q1349.76 366.499 1352.96 369.184 Q1356.15 371.869 1356.15 376.36 Q1356.15 378.489 1355.34 380.41 Q1354.56 382.309 1352.45 384.901 Q1351.87 385.573 1348.77 388.79 Q1345.67 391.985 1340.02 397.748 Z" fill="#000000" fill-rule="nonzero" fill-opacity="1"></path><path clip-path="url(#clip000)" d="M1366.2 367.124 L1384.56 367.124 L1384.56 371.059 L1370.48 371.059 L1370.48 379.531 Q1371.5 379.184 1372.52 379.022 Q1373.54 378.836 1374.56 378.836 Q1380.34 378.836 1383.72 382.008 Q1387.1 385.179 1387.1 390.596 Q1387.1 396.174 1383.63 399.276 Q1380.16 402.355 1373.84 402.355 Q1371.66 402.355 1369.39 401.984 Q1367.15 401.614 1364.74 400.873 L1364.74 396.174 Q1366.82 397.309 1369.05 397.864 Q1371.27 398.42 1373.75 398.42 Q1377.75 398.42 1380.09 396.313 Q1382.43 394.207 1382.43 390.596 Q1382.43 386.985 1380.09 384.878 Q1377.75 382.772 1373.75 382.772 Q1371.87 382.772 1370 383.188 Q1368.14 383.605 1366.2 384.485 L1366.2 367.124 Z" fill="#000000" fill-rule="nonzero" fill-opacity="1"></path><path clip-path="url(#clip000)" d="M1299.77 261.36 Q1296.15 261.36 1294.33 264.925 Q1292.52 268.467 1292.52 275.596 Q1292.52 282.703 1294.33 286.267 Q1296.15 289.809 1299.77 289.809 Q1303.4 289.809 1305.2 286.267 Q1307.03 282.703 1307.03 275.596 Q1307.03 268.467 1305.2 264.925 Q1303.4 261.36 1299.77 261.36 M1299.77 257.656 Q1305.58 257.656 1308.63 262.263 Q1311.71 266.846 1311.71 275.596 Q1311.71 284.323 1308.63 288.929 Q1305.58 293.513 1299.77 293.513 Q1293.95 293.513 1290.88 288.929 Q1287.82 284.323 1287.82 275.596 Q1287.82 266.846 1290.88 262.263 Q1293.95 257.656 1299.77 257.656 Z" fill="#000000" fill-rule="nonzero" fill-opacity="1"></path><path clip-path="url(#clip000)" d="M1319.93 286.962 L1324.81 286.962 L1324.81 292.841 L1319.93 292.841 L1319.93 286.962 Z" fill="#000000" fill-rule="nonzero" fill-opacity="1"></path><path clip-path="url(#clip000)" d="M1335.04 258.281 L1353.4 258.281 L1353.4 262.217 L1339.32 262.217 L1339.32 270.689 Q1340.34 270.342 1341.36 270.179 Q1342.38 269.994 1343.4 269.994 Q1349.19 269.994 1352.57 273.166 Q1355.95 276.337 1355.95 281.754 Q1355.95 287.332 1352.47 290.434 Q1349 293.513 1342.68 293.513 Q1340.51 293.513 1338.24 293.142 Q1335.99 292.772 1333.58 292.031 L1333.58 287.332 Q1335.67 288.466 1337.89 289.022 Q1340.11 289.578 1342.59 289.578 Q1346.59 289.578 1348.93 287.471 Q1351.27 285.365 1351.27 281.754 Q1351.27 278.142 1348.93 276.036 Q1346.59 273.929 1342.59 273.929 Q1340.71 273.929 1338.84 274.346 Q1336.99 274.763 1335.04 275.642 L1335.04 258.281 Z" fill="#000000" fill-rule="nonzero" fill-opacity="1"></path><path clip-path="url(#clip000)" d="M1375.16 261.36 Q1371.55 261.36 1369.72 264.925 Q1367.91 268.467 1367.91 275.596 Q1367.91 282.703 1369.72 286.267 Q1371.55 289.809 1375.16 289.809 Q1378.79 289.809 1380.6 286.267 Q1382.43 282.703 1382.43 275.596 Q1382.43 268.467 1380.6 264.925 Q1378.79 261.36 1375.16 261.36 M1375.16 257.656 Q1380.97 257.656 1384.02 262.263 Q1387.1 266.846 1387.1 275.596 Q1387.1 284.323 1384.02 288.929 Q1380.97 293.513 1375.16 293.513 Q1369.35 293.513 1366.27 288.929 Q1363.21 284.323 1363.21 275.596 Q1363.21 266.846 1366.27 262.263 Q1369.35 257.656 1375.16 257.656 Z" fill="#000000" fill-rule="nonzero" fill-opacity="1"></path><path clip-path="url(#clip000)" d="M1300.76 152.518 Q1297.15 152.518 1295.32 156.083 Q1293.52 159.624 1293.52 166.754 Q1293.52 173.86 1295.32 177.425 Q1297.15 180.967 1300.76 180.967 Q1304.39 180.967 1306.2 177.425 Q1308.03 173.86 1308.03 166.754 Q1308.03 159.624 1306.2 156.083 Q1304.39 152.518 1300.76 152.518 M1300.76 148.814 Q1306.57 148.814 1309.63 153.421 Q1312.7 158.004 1312.7 166.754 Q1312.7 175.481 1309.63 180.087 Q1306.57 184.671 1300.76 184.671 Q1294.95 184.671 1291.87 180.087 Q1288.82 175.481 1288.82 166.754 Q1288.82 158.004 1291.87 153.421 Q1294.95 148.814 1300.76 148.814 Z" fill="#000000" fill-rule="nonzero" fill-opacity="1"></path><path clip-path="url(#clip000)" d="M1320.92 178.12 L1325.81 178.12 L1325.81 183.999 L1320.92 183.999 L1320.92 178.12 Z" fill="#000000" fill-rule="nonzero" fill-opacity="1"></path><path clip-path="url(#clip000)" d="M1334.81 149.439 L1357.03 149.439 L1357.03 151.43 L1344.49 183.999 L1339.6 183.999 L1351.41 153.374 L1334.81 153.374 L1334.81 149.439 Z" fill="#000000" fill-rule="nonzero" fill-opacity="1"></path><path clip-path="url(#clip000)" d="M1366.2 149.439 L1384.56 149.439 L1384.56 153.374 L1370.48 153.374 L1370.48 161.847 Q1371.5 161.499 1372.52 161.337 Q1373.54 161.152 1374.56 161.152 Q1380.34 161.152 1383.72 164.323 Q1387.1 167.495 1387.1 172.911 Q1387.1 178.49 1383.63 181.592 Q1380.16 184.671 1373.84 184.671 Q1371.66 184.671 1369.39 184.3 Q1367.15 183.93 1364.74 183.189 L1364.74 178.49 Q1366.82 179.624 1369.05 180.18 Q1371.27 180.735 1373.75 180.735 Q1377.75 180.735 1380.09 178.629 Q1382.43 176.522 1382.43 172.911 Q1382.43 169.3 1380.09 167.194 Q1377.75 165.087 1373.75 165.087 Q1371.87 165.087 1370 165.504 Q1368.14 165.921 1366.2 166.8 L1366.2 149.439 Z" fill="#000000" fill-rule="nonzero" fill-opacity="1"></path><path clip-path="url(#clip000)" d="M1700.33 63.9476 L1700.33 47.7034 L1686.96 47.7034 L1686.96 40.9789 L1708.43 40.9789 L1708.43 66.9452 Q1703.69 70.3075 1697.98 72.0494 Q1692.27 73.7508 1685.79 73.7508 Q1671.61 73.7508 1663.59 65.4869 Q1655.61 57.1826 1655.61 42.3968 Q1655.61 27.5705 1663.59 19.3066 Q1671.61 11.0023 1685.79 11.0023 Q1691.7 11.0023 1697.01 12.4606 Q1702.36 13.9189 1706.85 16.7545 L1706.85 25.464 Q1702.32 21.6156 1697.21 19.6712 Q1692.11 17.7268 1686.48 17.7268 Q1675.38 17.7268 1669.79 23.9246 Q1664.24 30.1225 1664.24 42.3968 Q1664.24 54.6305 1669.79 60.8284 Q1675.38 67.0263 1686.48 67.0263 Q1690.81 67.0263 1694.21 66.2971 Q1697.62 65.5274 1700.33 63.9476 Z" fill="#000000" fill-rule="nonzero" fill-opacity="1"></path><path clip-path="url(#clip000)" d="M1712.04 12.096 L1763.2 12.096 L1763.2 18.9825 L1741.73 18.9825 L1741.73 72.576 L1733.51 72.576 L1733.51 18.9825 L1712.04 18.9825 L1712.04 12.096 Z" fill="#000000" fill-rule="nonzero" fill-opacity="1"></path><path clip-path="url(#clip000)" d="M1833.73 14.0809 L1833.73 22.0612 Q1829.07 19.8332 1824.94 18.7395 Q1820.81 17.6457 1816.96 17.6457 Q1810.27 17.6457 1806.63 20.2383 Q1803.02 22.8309 1803.02 27.611 Q1803.02 31.6214 1805.41 33.6873 Q1807.84 35.7128 1814.57 36.9686 L1819.51 37.9813 Q1828.66 39.7232 1833 44.1387 Q1837.37 48.5136 1837.37 55.8863 Q1837.37 64.6767 1831.46 69.2137 Q1825.59 73.7508 1814.2 73.7508 Q1809.91 73.7508 1805.05 72.7785 Q1800.23 71.8063 1795.04 69.9024 L1795.04 61.4765 Q1800.02 64.2716 1804.8 65.6895 Q1809.58 67.1073 1814.2 67.1073 Q1821.21 67.1073 1825.02 64.3527 Q1828.83 61.598 1828.83 56.4939 Q1828.83 52.0379 1826.07 49.5264 Q1823.36 47.0148 1817.12 45.759 L1812.14 44.7868 Q1802.98 42.9639 1798.89 39.075 Q1794.8 35.1862 1794.8 28.2591 Q1794.8 20.2383 1800.43 15.6203 Q1806.1 11.0023 1816.03 11.0023 Q1820.28 11.0023 1824.69 11.7719 Q1829.11 12.5416 1833.73 14.0809 Z" fill="#000000" fill-rule="nonzero" fill-opacity="1"></path><path clip-path="url(#clip000)" d="M1867.39 32.4315 Q1861.4 32.4315 1857.91 37.1306 Q1854.43 41.7891 1854.43 49.9314 Q1854.43 58.0738 1857.87 62.7728 Q1861.36 67.4314 1867.39 67.4314 Q1873.35 67.4314 1876.83 62.7323 Q1880.31 58.0333 1880.31 49.9314 Q1880.31 41.8701 1876.83 37.1711 Q1873.35 32.4315 1867.39 32.4315 M1867.39 26.1121 Q1877.11 26.1121 1882.66 32.4315 Q1888.21 38.7509 1888.21 49.9314 Q1888.21 61.0714 1882.66 67.4314 Q1877.11 73.7508 1867.39 73.7508 Q1857.63 73.7508 1852.08 67.4314 Q1846.57 61.0714 1846.57 49.9314 Q1846.57 38.7509 1852.08 32.4315 Q1857.63 26.1121 1867.39 26.1121 Z" fill="#000000" fill-rule="nonzero" fill-opacity="1"></path><path clip-path="url(#clip000)" d="M1900.57 9.54393 L1908.02 9.54393 L1908.02 72.576 L1900.57 72.576 L1900.57 9.54393 Z" fill="#000000" fill-rule="nonzero" fill-opacity="1"></path><path clip-path="url(#clip000)" d="M1922.85 54.671 L1922.85 27.2059 L1930.3 27.2059 L1930.3 54.3874 Q1930.3 60.8284 1932.81 64.0691 Q1935.32 67.2693 1940.35 67.2693 Q1946.38 67.2693 1949.87 63.421 Q1953.39 59.5726 1953.39 52.9291 L1953.39 27.2059 L1960.85 27.2059 L1960.85 72.576 L1953.39 72.576 L1953.39 65.6084 Q1950.68 69.7404 1947.07 71.7658 Q1943.51 73.7508 1938.77 73.7508 Q1930.95 73.7508 1926.9 68.8897 Q1922.85 64.0286 1922.85 54.671 M1941.6 26.1121 L1941.6 26.1121 Z" fill="#000000" fill-rule="nonzero" fill-opacity="1"></path><path clip-path="url(#clip000)" d="M1983.57 14.324 L1983.57 27.2059 L1998.92 27.2059 L1998.92 32.9987 L1983.57 32.9987 L1983.57 57.6282 Q1983.57 63.1779 1985.07 64.7578 Q1986.61 66.3376 1991.27 66.3376 L1998.92 66.3376 L1998.92 72.576 L1991.27 72.576 Q1982.64 72.576 1979.36 69.3758 Q1976.08 66.1351 1976.08 57.6282 L1976.08 32.9987 L1970.61 32.9987 L1970.61 27.2059 L1976.08 27.2059 L1976.08 14.324 L1983.57 14.324 Z" fill="#000000" fill-rule="nonzero" fill-opacity="1"></path><path clip-path="url(#clip000)" d="M2008.73 27.2059 L2016.18 27.2059 L2016.18 72.576 L2008.73 72.576 L2008.73 27.2059 M2008.73 9.54393 L2016.18 9.54393 L2016.18 18.9825 L2008.73 18.9825 L2008.73 9.54393 Z" fill="#000000" fill-rule="nonzero" fill-opacity="1"></path><path clip-path="url(#clip000)" d="M2049.36 32.4315 Q2043.36 32.4315 2039.88 37.1306 Q2036.39 41.7891 2036.39 49.9314 Q2036.39 58.0738 2039.84 62.7728 Q2043.32 67.4314 2049.36 67.4314 Q2055.31 67.4314 2058.8 62.7323 Q2062.28 58.0333 2062.28 49.9314 Q2062.28 41.8701 2058.8 37.1711 Q2055.31 32.4315 2049.36 32.4315 M2049.36 26.1121 Q2059.08 26.1121 2064.63 32.4315 Q2070.18 38.7509 2070.18 49.9314 Q2070.18 61.0714 2064.63 67.4314 Q2059.08 73.7508 2049.36 73.7508 Q2039.6 73.7508 2034.05 67.4314 Q2028.54 61.0714 2028.54 49.9314 Q2028.54 38.7509 2034.05 32.4315 Q2039.6 26.1121 2049.36 26.1121 Z" fill="#000000" fill-rule="nonzero" fill-opacity="1"></path><path clip-path="url(#clip000)" d="M2120.25 45.1919 L2120.25 72.576 L2112.79 72.576 L2112.79 45.4349 Q2112.79 38.994 2110.28 35.7938 Q2107.77 32.5936 2102.75 32.5936 Q2096.71 32.5936 2093.23 36.4419 Q2089.75 40.2903 2089.75 46.9338 L2089.75 72.576 L2082.25 72.576 L2082.25 27.2059 L2089.75 27.2059 L2089.75 34.2544 Q2092.42 30.163 2096.02 28.1376 Q2099.67 26.1121 2104.41 26.1121 Q2112.23 26.1121 2116.24 30.9732 Q2120.25 35.7938 2120.25 45.1919 Z" fill="#000000" fill-rule="nonzero" fill-opacity="1"></path><polyline clip-path="url(#clip003)" style="stroke:#009af9; stroke-linecap:round; stroke-linejoin:round; stroke-width:4; stroke-opacity:1; fill:none" points="1449.41,493.246 1477.7,522.348 1506,550.766 1534.29,577.706 1562.58,602.413 1590.87,624.184 1619.16,642.383 1647.45,656.457 1675.74,665.952 1704.04,670.515 1732.33,669.908 1760.62,664.016 1788.91,652.844 1817.2,636.523 1845.49,615.302 1873.78,589.549 1902.07,559.745 1930.37,526.471 1958.66,490.392 1986.95,452.253 2015.24,412.866 2043.53,373.089 2071.82,333.809 2100.11,295.917 2128.41,260.307 2156.7,227.848 2184.99,199.379 2213.28,175.663 2241.57,157.381 2269.86,145.129 2298.15,139.405 2326.44,140.582 "></polyline>
<path clip-path="url(#clip000)" d="M1454.09 245.918 L1599.49 245.918 L1599.49 142.238 L1454.09 142.238  Z" fill="#ffffff" fill-rule="evenodd" fill-opacity="1"></path>
<polyline clip-path="url(#clip000)" style="stroke:#000000; stroke-linecap:round; stroke-linejoin:round; stroke-width:4; stroke-opacity:1; fill:none" points="1454.09,245.918 1599.49,245.918 1599.49,142.238 1454.09,142.238 1454.09,245.918 "></polyline>
<polyline clip-path="url(#clip000)" style="stroke:#009af9; stroke-linecap:round; stroke-linejoin:round; stroke-width:4; stroke-opacity:1; fill:none" points="1464.42,194.078 1526.4,194.078 "></polyline>
<path clip-path="url(#clip000)" d="M1550.57 213.765 Q1548.76 218.395 1547.05 219.807 Q1545.34 221.219 1542.47 221.219 L1539.06 221.219 L1539.06 217.654 L1541.56 217.654 Q1543.32 217.654 1544.3 216.821 Q1545.27 215.988 1546.45 212.886 L1547.21 210.941 L1536.73 185.432 L1541.24 185.432 L1549.34 205.71 L1557.44 185.432 L1561.96 185.432 L1550.57 213.765 Z" fill="#000000" fill-rule="nonzero" fill-opacity="1"></path><path clip-path="url(#clip000)" d="M1569.25 207.423 L1576.89 207.423 L1576.89 181.057 L1568.58 182.724 L1568.58 178.465 L1576.84 176.798 L1581.52 176.798 L1581.52 207.423 L1589.16 207.423 L1589.16 211.358 L1569.25 211.358 L1569.25 207.423 Z" fill="#000000" fill-rule="nonzero" fill-opacity="1"></path><path clip-path="url(#clip000)" d="M223.103 1486.45 L1152.76 1486.45 L1152.76 923.472 L223.103 923.472  Z" fill="#ffffff" fill-rule="evenodd" fill-opacity="1"></path>
<defs>
  <clipPath id="clip004">
    <rect x="223" y="923" width="931" height="564"></rect>
  </clipPath>
</defs>
<polyline clip-path="url(#clip004)" style="stroke:#000000; stroke-linecap:round; stroke-linejoin:round; stroke-width:2; stroke-opacity:0.1; fill:none" points="249.413,1486.45 249.413,923.472 "></polyline>
<polyline clip-path="url(#clip004)" style="stroke:#000000; stroke-linecap:round; stroke-linejoin:round; stroke-width:2; stroke-opacity:0.1; fill:none" points="468.671,1486.45 468.671,923.472 "></polyline>
<polyline clip-path="url(#clip004)" style="stroke:#000000; stroke-linecap:round; stroke-linejoin:round; stroke-width:2; stroke-opacity:0.1; fill:none" points="687.929,1486.45 687.929,923.472 "></polyline>
<polyline clip-path="url(#clip004)" style="stroke:#000000; stroke-linecap:round; stroke-linejoin:round; stroke-width:2; stroke-opacity:0.1; fill:none" points="907.187,1486.45 907.187,923.472 "></polyline>
<polyline clip-path="url(#clip004)" style="stroke:#000000; stroke-linecap:round; stroke-linejoin:round; stroke-width:2; stroke-opacity:0.1; fill:none" points="1126.44,1486.45 1126.44,923.472 "></polyline>
<polyline clip-path="url(#clip000)" style="stroke:#000000; stroke-linecap:round; stroke-linejoin:round; stroke-width:4; stroke-opacity:1; fill:none" points="223.103,1486.45 1152.76,1486.45 "></polyline>
<polyline clip-path="url(#clip000)" style="stroke:#000000; stroke-linecap:round; stroke-linejoin:round; stroke-width:4; stroke-opacity:1; fill:none" points="249.413,1486.45 249.413,1467.55 "></polyline>
<polyline clip-path="url(#clip000)" style="stroke:#000000; stroke-linecap:round; stroke-linejoin:round; stroke-width:4; stroke-opacity:1; fill:none" points="468.671,1486.45 468.671,1467.55 "></polyline>
<polyline clip-path="url(#clip000)" style="stroke:#000000; stroke-linecap:round; stroke-linejoin:round; stroke-width:4; stroke-opacity:1; fill:none" points="687.929,1486.45 687.929,1467.55 "></polyline>
<polyline clip-path="url(#clip000)" style="stroke:#000000; stroke-linecap:round; stroke-linejoin:round; stroke-width:4; stroke-opacity:1; fill:none" points="907.187,1486.45 907.187,1467.55 "></polyline>
<polyline clip-path="url(#clip000)" style="stroke:#000000; stroke-linecap:round; stroke-linejoin:round; stroke-width:4; stroke-opacity:1; fill:none" points="1126.44,1486.45 1126.44,1467.55 "></polyline>
<path clip-path="url(#clip000)" d="M211.717 1517.37 Q208.106 1517.37 206.277 1520.93 Q204.472 1524.47 204.472 1531.6 Q204.472 1538.71 206.277 1542.27 Q208.106 1545.82 211.717 1545.82 Q215.351 1545.82 217.157 1542.27 Q218.985 1538.71 218.985 1531.6 Q218.985 1524.47 217.157 1520.93 Q215.351 1517.37 211.717 1517.37 M211.717 1513.66 Q217.527 1513.66 220.583 1518.27 Q223.661 1522.85 223.661 1531.6 Q223.661 1540.33 220.583 1544.94 Q217.527 1549.52 211.717 1549.52 Q205.907 1549.52 202.828 1544.94 Q199.773 1540.33 199.773 1531.6 Q199.773 1522.85 202.828 1518.27 Q205.907 1513.66 211.717 1513.66 Z" fill="#000000" fill-rule="nonzero" fill-opacity="1"></path><path clip-path="url(#clip000)" d="M231.879 1542.97 L236.763 1542.97 L236.763 1548.85 L231.879 1548.85 L231.879 1542.97 Z" fill="#000000" fill-rule="nonzero" fill-opacity="1"></path><path clip-path="url(#clip000)" d="M256.948 1517.37 Q253.337 1517.37 251.508 1520.93 Q249.703 1524.47 249.703 1531.6 Q249.703 1538.71 251.508 1542.27 Q253.337 1545.82 256.948 1545.82 Q260.582 1545.82 262.388 1542.27 Q264.217 1538.71 264.217 1531.6 Q264.217 1524.47 262.388 1520.93 Q260.582 1517.37 256.948 1517.37 M256.948 1513.66 Q262.758 1513.66 265.814 1518.27 Q268.893 1522.85 268.893 1531.6 Q268.893 1540.33 265.814 1544.94 Q262.758 1549.52 256.948 1549.52 Q251.138 1549.52 248.059 1544.94 Q245.004 1540.33 245.004 1531.6 Q245.004 1522.85 248.059 1518.27 Q251.138 1513.66 256.948 1513.66 Z" fill="#000000" fill-rule="nonzero" fill-opacity="1"></path><path clip-path="url(#clip000)" d="M287.11 1517.37 Q283.499 1517.37 281.67 1520.93 Q279.865 1524.47 279.865 1531.6 Q279.865 1538.71 281.67 1542.27 Q283.499 1545.82 287.11 1545.82 Q290.744 1545.82 292.55 1542.27 Q294.378 1538.71 294.378 1531.6 Q294.378 1524.47 292.55 1520.93 Q290.744 1517.37 287.11 1517.37 M287.11 1513.66 Q292.92 1513.66 295.976 1518.27 Q299.054 1522.85 299.054 1531.6 Q299.054 1540.33 295.976 1544.94 Q292.92 1549.52 287.11 1549.52 Q281.3 1549.52 278.221 1544.94 Q275.166 1540.33 275.166 1531.6 Q275.166 1522.85 278.221 1518.27 Q281.3 1513.66 287.11 1513.66 Z" fill="#000000" fill-rule="nonzero" fill-opacity="1"></path><path clip-path="url(#clip000)" d="M431.472 1517.37 Q427.861 1517.37 426.033 1520.93 Q424.227 1524.47 424.227 1531.6 Q424.227 1538.71 426.033 1542.27 Q427.861 1545.82 431.472 1545.82 Q435.107 1545.82 436.912 1542.27 Q438.741 1538.71 438.741 1531.6 Q438.741 1524.47 436.912 1520.93 Q435.107 1517.37 431.472 1517.37 M431.472 1513.66 Q437.283 1513.66 440.338 1518.27 Q443.417 1522.85 443.417 1531.6 Q443.417 1540.33 440.338 1544.94 Q437.283 1549.52 431.472 1549.52 Q425.662 1549.52 422.584 1544.94 Q419.528 1540.33 419.528 1531.6 Q419.528 1522.85 422.584 1518.27 Q425.662 1513.66 431.472 1513.66 Z" fill="#000000" fill-rule="nonzero" fill-opacity="1"></path><path clip-path="url(#clip000)" d="M451.634 1542.97 L456.519 1542.97 L456.519 1548.85 L451.634 1548.85 L451.634 1542.97 Z" fill="#000000" fill-rule="nonzero" fill-opacity="1"></path><path clip-path="url(#clip000)" d="M470.732 1544.91 L487.051 1544.91 L487.051 1548.85 L465.107 1548.85 L465.107 1544.91 Q467.769 1542.16 472.352 1537.53 Q476.958 1532.88 478.139 1531.53 Q480.384 1529.01 481.264 1527.27 Q482.167 1525.51 482.167 1523.82 Q482.167 1521.07 480.222 1519.33 Q478.301 1517.6 475.199 1517.6 Q473 1517.6 470.546 1518.36 Q468.116 1519.13 465.338 1520.68 L465.338 1515.95 Q468.162 1514.82 470.616 1514.24 Q473.069 1513.66 475.106 1513.66 Q480.477 1513.66 483.671 1516.35 Q486.866 1519.03 486.866 1523.52 Q486.866 1525.65 486.055 1527.57 Q485.268 1529.47 483.162 1532.07 Q482.583 1532.74 479.481 1535.95 Q476.38 1539.15 470.732 1544.91 Z" fill="#000000" fill-rule="nonzero" fill-opacity="1"></path><path clip-path="url(#clip000)" d="M496.912 1514.29 L515.268 1514.29 L515.268 1518.22 L501.194 1518.22 L501.194 1526.7 Q502.213 1526.35 503.231 1526.19 Q504.25 1526 505.268 1526 Q511.055 1526 514.435 1529.17 Q517.815 1532.34 517.815 1537.76 Q517.815 1543.34 514.342 1546.44 Q510.87 1549.52 504.551 1549.52 Q502.375 1549.52 500.106 1549.15 Q497.861 1548.78 495.454 1548.04 L495.454 1543.34 Q497.537 1544.47 499.759 1545.03 Q501.981 1545.58 504.458 1545.58 Q508.463 1545.58 510.801 1543.48 Q513.139 1541.37 513.139 1537.76 Q513.139 1534.15 510.801 1532.04 Q508.463 1529.94 504.458 1529.94 Q502.583 1529.94 500.708 1530.35 Q498.856 1530.77 496.912 1531.65 L496.912 1514.29 Z" fill="#000000" fill-rule="nonzero" fill-opacity="1"></path><path clip-path="url(#clip000)" d="M650.233 1517.37 Q646.622 1517.37 644.793 1520.93 Q642.987 1524.47 642.987 1531.6 Q642.987 1538.71 644.793 1542.27 Q646.622 1545.82 650.233 1545.82 Q653.867 1545.82 655.672 1542.27 Q657.501 1538.71 657.501 1531.6 Q657.501 1524.47 655.672 1520.93 Q653.867 1517.37 650.233 1517.37 M650.233 1513.66 Q656.043 1513.66 659.098 1518.27 Q662.177 1522.85 662.177 1531.6 Q662.177 1540.33 659.098 1544.94 Q656.043 1549.52 650.233 1549.52 Q644.422 1549.52 641.344 1544.94 Q638.288 1540.33 638.288 1531.6 Q638.288 1522.85 641.344 1518.27 Q644.422 1513.66 650.233 1513.66 Z" fill="#000000" fill-rule="nonzero" fill-opacity="1"></path><path clip-path="url(#clip000)" d="M670.395 1542.97 L675.279 1542.97 L675.279 1548.85 L670.395 1548.85 L670.395 1542.97 Z" fill="#000000" fill-rule="nonzero" fill-opacity="1"></path><path clip-path="url(#clip000)" d="M685.51 1514.29 L703.867 1514.29 L703.867 1518.22 L689.793 1518.22 L689.793 1526.7 Q690.811 1526.35 691.83 1526.19 Q692.848 1526 693.867 1526 Q699.654 1526 703.033 1529.17 Q706.413 1532.34 706.413 1537.76 Q706.413 1543.34 702.941 1546.44 Q699.468 1549.52 693.149 1549.52 Q690.973 1549.52 688.705 1549.15 Q686.459 1548.78 684.052 1548.04 L684.052 1543.34 Q686.135 1544.47 688.357 1545.03 Q690.58 1545.58 693.056 1545.58 Q697.061 1545.58 699.399 1543.48 Q701.737 1541.37 701.737 1537.76 Q701.737 1534.15 699.399 1532.04 Q697.061 1529.94 693.056 1529.94 Q691.182 1529.94 689.307 1530.35 Q687.455 1530.77 685.51 1531.65 L685.51 1514.29 Z" fill="#000000" fill-rule="nonzero" fill-opacity="1"></path><path clip-path="url(#clip000)" d="M725.626 1517.37 Q722.015 1517.37 720.186 1520.93 Q718.38 1524.47 718.38 1531.6 Q718.38 1538.71 720.186 1542.27 Q722.015 1545.82 725.626 1545.82 Q729.26 1545.82 731.066 1542.27 Q732.894 1538.71 732.894 1531.6 Q732.894 1524.47 731.066 1520.93 Q729.26 1517.37 725.626 1517.37 M725.626 1513.66 Q731.436 1513.66 734.491 1518.27 Q737.57 1522.85 737.57 1531.6 Q737.57 1540.33 734.491 1544.94 Q731.436 1549.52 725.626 1549.52 Q719.816 1549.52 716.737 1544.94 Q713.681 1540.33 713.681 1531.6 Q713.681 1522.85 716.737 1518.27 Q719.816 1513.66 725.626 1513.66 Z" fill="#000000" fill-rule="nonzero" fill-opacity="1"></path><path clip-path="url(#clip000)" d="M869.988 1517.37 Q866.377 1517.37 864.548 1520.93 Q862.743 1524.47 862.743 1531.6 Q862.743 1538.71 864.548 1542.27 Q866.377 1545.82 869.988 1545.82 Q873.622 1545.82 875.428 1542.27 Q877.257 1538.71 877.257 1531.6 Q877.257 1524.47 875.428 1520.93 Q873.622 1517.37 869.988 1517.37 M869.988 1513.66 Q875.798 1513.66 878.854 1518.27 Q881.933 1522.85 881.933 1531.6 Q881.933 1540.33 878.854 1544.94 Q875.798 1549.52 869.988 1549.52 Q864.178 1549.52 861.099 1544.94 Q858.044 1540.33 858.044 1531.6 Q858.044 1522.85 861.099 1518.27 Q864.178 1513.66 869.988 1513.66 Z" fill="#000000" fill-rule="nonzero" fill-opacity="1"></path><path clip-path="url(#clip000)" d="M890.15 1542.97 L895.034 1542.97 L895.034 1548.85 L890.15 1548.85 L890.15 1542.97 Z" fill="#000000" fill-rule="nonzero" fill-opacity="1"></path><path clip-path="url(#clip000)" d="M904.039 1514.29 L926.261 1514.29 L926.261 1516.28 L913.715 1548.85 L908.831 1548.85 L920.636 1518.22 L904.039 1518.22 L904.039 1514.29 Z" fill="#000000" fill-rule="nonzero" fill-opacity="1"></path><path clip-path="url(#clip000)" d="M935.428 1514.29 L953.784 1514.29 L953.784 1518.22 L939.71 1518.22 L939.71 1526.7 Q940.729 1526.35 941.747 1526.19 Q942.766 1526 943.784 1526 Q949.571 1526 952.951 1529.17 Q956.33 1532.34 956.33 1537.76 Q956.33 1543.34 952.858 1546.44 Q949.386 1549.52 943.067 1549.52 Q940.891 1549.52 938.622 1549.15 Q936.377 1548.78 933.969 1548.04 L933.969 1543.34 Q936.053 1544.47 938.275 1545.03 Q940.497 1545.58 942.974 1545.58 Q946.979 1545.58 949.316 1543.48 Q951.654 1541.37 951.654 1537.76 Q951.654 1534.15 949.316 1532.04 Q946.979 1529.94 942.974 1529.94 Q941.099 1529.94 939.224 1530.35 Q937.372 1530.77 935.428 1531.65 L935.428 1514.29 Z" fill="#000000" fill-rule="nonzero" fill-opacity="1"></path><path clip-path="url(#clip000)" d="M1078.52 1544.91 L1086.16 1544.91 L1086.16 1518.55 L1077.85 1520.21 L1077.85 1515.95 L1086.11 1514.29 L1090.79 1514.29 L1090.79 1544.91 L1098.42 1544.91 L1098.42 1548.85 L1078.52 1548.85 L1078.52 1544.91 Z" fill="#000000" fill-rule="nonzero" fill-opacity="1"></path><path clip-path="url(#clip000)" d="M1107.87 1542.97 L1112.75 1542.97 L1112.75 1548.85 L1107.87 1548.85 L1107.87 1542.97 Z" fill="#000000" fill-rule="nonzero" fill-opacity="1"></path><path clip-path="url(#clip000)" d="M1132.94 1517.37 Q1129.33 1517.37 1127.5 1520.93 Q1125.69 1524.47 1125.69 1531.6 Q1125.69 1538.71 1127.5 1542.27 Q1129.33 1545.82 1132.94 1545.82 Q1136.57 1545.82 1138.38 1542.27 Q1140.21 1538.71 1140.21 1531.6 Q1140.21 1524.47 1138.38 1520.93 Q1136.57 1517.37 1132.94 1517.37 M1132.94 1513.66 Q1138.75 1513.66 1141.8 1518.27 Q1144.88 1522.85 1144.88 1531.6 Q1144.88 1540.33 1141.8 1544.94 Q1138.75 1549.52 1132.94 1549.52 Q1127.13 1549.52 1124.05 1544.94 Q1120.99 1540.33 1120.99 1531.6 Q1120.99 1522.85 1124.05 1518.27 Q1127.13 1513.66 1132.94 1513.66 Z" fill="#000000" fill-rule="nonzero" fill-opacity="1"></path><path clip-path="url(#clip000)" d="M1163.1 1517.37 Q1159.49 1517.37 1157.66 1520.93 Q1155.85 1524.47 1155.85 1531.6 Q1155.85 1538.71 1157.66 1542.27 Q1159.49 1545.82 1163.1 1545.82 Q1166.73 1545.82 1168.54 1542.27 Q1170.37 1538.71 1170.37 1531.6 Q1170.37 1524.47 1168.54 1520.93 Q1166.73 1517.37 1163.1 1517.37 M1163.1 1513.66 Q1168.91 1513.66 1171.97 1518.27 Q1175.04 1522.85 1175.04 1531.6 Q1175.04 1540.33 1171.97 1544.94 Q1168.91 1549.52 1163.1 1549.52 Q1157.29 1549.52 1154.21 1544.94 Q1151.16 1540.33 1151.16 1531.6 Q1151.16 1522.85 1154.21 1518.27 Q1157.29 1513.66 1163.1 1513.66 Z" fill="#000000" fill-rule="nonzero" fill-opacity="1"></path><polyline clip-path="url(#clip004)" style="stroke:#000000; stroke-linecap:round; stroke-linejoin:round; stroke-width:2; stroke-opacity:0.1; fill:none" points="223.103,1398.97 1152.76,1398.97 "></polyline>
<polyline clip-path="url(#clip004)" style="stroke:#000000; stroke-linecap:round; stroke-linejoin:round; stroke-width:2; stroke-opacity:0.1; fill:none" points="223.103,1290.47 1152.76,1290.47 "></polyline>
<polyline clip-path="url(#clip004)" style="stroke:#000000; stroke-linecap:round; stroke-linejoin:round; stroke-width:2; stroke-opacity:0.1; fill:none" points="223.103,1181.98 1152.76,1181.98 "></polyline>
<polyline clip-path="url(#clip004)" style="stroke:#000000; stroke-linecap:round; stroke-linejoin:round; stroke-width:2; stroke-opacity:0.1; fill:none" points="223.103,1073.48 1152.76,1073.48 "></polyline>
<polyline clip-path="url(#clip004)" style="stroke:#000000; stroke-linecap:round; stroke-linejoin:round; stroke-width:2; stroke-opacity:0.1; fill:none" points="223.103,964.99 1152.76,964.99 "></polyline>
<polyline clip-path="url(#clip000)" style="stroke:#000000; stroke-linecap:round; stroke-linejoin:round; stroke-width:4; stroke-opacity:1; fill:none" points="223.103,1486.45 223.103,923.472 "></polyline>
<polyline clip-path="url(#clip000)" style="stroke:#000000; stroke-linecap:round; stroke-linejoin:round; stroke-width:4; stroke-opacity:1; fill:none" points="223.103,1398.97 242,1398.97 "></polyline>
<polyline clip-path="url(#clip000)" style="stroke:#000000; stroke-linecap:round; stroke-linejoin:round; stroke-width:4; stroke-opacity:1; fill:none" points="223.103,1290.47 242,1290.47 "></polyline>
<polyline clip-path="url(#clip000)" style="stroke:#000000; stroke-linecap:round; stroke-linejoin:round; stroke-width:4; stroke-opacity:1; fill:none" points="223.103,1181.98 242,1181.98 "></polyline>
<polyline clip-path="url(#clip000)" style="stroke:#000000; stroke-linecap:round; stroke-linejoin:round; stroke-width:4; stroke-opacity:1; fill:none" points="223.103,1073.48 242,1073.48 "></polyline>
<polyline clip-path="url(#clip000)" style="stroke:#000000; stroke-linecap:round; stroke-linejoin:round; stroke-width:4; stroke-opacity:1; fill:none" points="223.103,964.99 242,964.99 "></polyline>
<path clip-path="url(#clip000)" d="M50.9921 1399.42 L80.6679 1399.42 L80.6679 1403.36 L50.9921 1403.36 L50.9921 1399.42 Z" fill="#000000" fill-rule="nonzero" fill-opacity="1"></path><path clip-path="url(#clip000)" d="M100.76 1384.77 Q97.1493 1384.77 95.3206 1388.33 Q93.515 1391.87 93.515 1399 Q93.515 1406.11 95.3206 1409.67 Q97.1493 1413.22 100.76 1413.22 Q104.395 1413.22 106.2 1409.67 Q108.029 1406.11 108.029 1399 Q108.029 1391.87 106.2 1388.33 Q104.395 1384.77 100.76 1384.77 M100.76 1381.06 Q106.571 1381.06 109.626 1385.67 Q112.705 1390.25 112.705 1399 Q112.705 1407.73 109.626 1412.34 Q106.571 1416.92 100.76 1416.92 Q94.9502 1416.92 91.8715 1412.34 Q88.816 1407.73 88.816 1399 Q88.816 1390.25 91.8715 1385.67 Q94.9502 1381.06 100.76 1381.06 Z" fill="#000000" fill-rule="nonzero" fill-opacity="1"></path><path clip-path="url(#clip000)" d="M120.922 1410.37 L125.807 1410.37 L125.807 1416.25 L120.922 1416.25 L120.922 1410.37 Z" fill="#000000" fill-rule="nonzero" fill-opacity="1"></path><path clip-path="url(#clip000)" d="M140.019 1412.31 L156.339 1412.31 L156.339 1416.25 L134.394 1416.25 L134.394 1412.31 Q137.056 1409.56 141.64 1404.93 Q146.246 1400.28 147.427 1398.93 Q149.672 1396.41 150.552 1394.67 Q151.455 1392.92 151.455 1391.23 Q151.455 1388.47 149.51 1386.74 Q147.589 1385 144.487 1385 Q142.288 1385 139.834 1385.76 Q137.404 1386.53 134.626 1388.08 L134.626 1383.36 Q137.45 1382.22 139.904 1381.64 Q142.357 1381.06 144.394 1381.06 Q149.765 1381.06 152.959 1383.75 Q156.154 1386.43 156.154 1390.92 Q156.154 1393.05 155.343 1394.98 Q154.556 1396.87 152.45 1399.47 Q151.871 1400.14 148.769 1403.36 Q145.668 1406.55 140.019 1412.31 Z" fill="#000000" fill-rule="nonzero" fill-opacity="1"></path><path clip-path="url(#clip000)" d="M166.2 1381.69 L184.556 1381.69 L184.556 1385.62 L170.482 1385.62 L170.482 1394.1 Q171.501 1393.75 172.519 1393.59 Q173.538 1393.4 174.556 1393.4 Q180.343 1393.4 183.723 1396.57 Q187.103 1399.74 187.103 1405.16 Q187.103 1410.74 183.63 1413.84 Q180.158 1416.92 173.839 1416.92 Q171.663 1416.92 169.394 1416.55 Q167.149 1416.18 164.742 1415.44 L164.742 1410.74 Q166.825 1411.87 169.047 1412.43 Q171.269 1412.99 173.746 1412.99 Q177.751 1412.99 180.089 1410.88 Q182.427 1408.77 182.427 1405.16 Q182.427 1401.55 180.089 1399.44 Q177.751 1397.34 173.746 1397.34 Q171.871 1397.34 169.996 1397.75 Q168.144 1398.17 166.2 1399.05 L166.2 1381.69 Z" fill="#000000" fill-rule="nonzero" fill-opacity="1"></path><path clip-path="url(#clip000)" d="M99.765 1276.27 Q96.1539 1276.27 94.3252 1279.84 Q92.5197 1283.38 92.5197 1290.51 Q92.5197 1297.62 94.3252 1301.18 Q96.1539 1304.72 99.765 1304.72 Q103.399 1304.72 105.205 1301.18 Q107.033 1297.62 107.033 1290.51 Q107.033 1283.38 105.205 1279.84 Q103.399 1276.27 99.765 1276.27 M99.765 1272.57 Q105.575 1272.57 108.631 1277.18 Q111.709 1281.76 111.709 1290.51 Q111.709 1299.24 108.631 1303.84 Q105.575 1308.43 99.765 1308.43 Q93.9549 1308.43 90.8762 1303.84 Q87.8206 1299.24 87.8206 1290.51 Q87.8206 1281.76 90.8762 1277.18 Q93.9549 1272.57 99.765 1272.57 Z" fill="#000000" fill-rule="nonzero" fill-opacity="1"></path><path clip-path="url(#clip000)" d="M119.927 1301.87 L124.811 1301.87 L124.811 1307.75 L119.927 1307.75 L119.927 1301.87 Z" fill="#000000" fill-rule="nonzero" fill-opacity="1"></path><path clip-path="url(#clip000)" d="M144.996 1276.27 Q141.385 1276.27 139.556 1279.84 Q137.751 1283.38 137.751 1290.51 Q137.751 1297.62 139.556 1301.18 Q141.385 1304.72 144.996 1304.72 Q148.63 1304.72 150.436 1301.18 Q152.265 1297.62 152.265 1290.51 Q152.265 1283.38 150.436 1279.84 Q148.63 1276.27 144.996 1276.27 M144.996 1272.57 Q150.806 1272.57 153.862 1277.18 Q156.941 1281.76 156.941 1290.51 Q156.941 1299.24 153.862 1303.84 Q150.806 1308.43 144.996 1308.43 Q139.186 1308.43 136.107 1303.84 Q133.052 1299.24 133.052 1290.51 Q133.052 1281.76 136.107 1277.18 Q139.186 1272.57 144.996 1272.57 Z" fill="#000000" fill-rule="nonzero" fill-opacity="1"></path><path clip-path="url(#clip000)" d="M175.158 1276.27 Q171.547 1276.27 169.718 1279.84 Q167.913 1283.38 167.913 1290.51 Q167.913 1297.62 169.718 1301.18 Q171.547 1304.72 175.158 1304.72 Q178.792 1304.72 180.598 1301.18 Q182.427 1297.62 182.427 1290.51 Q182.427 1283.38 180.598 1279.84 Q178.792 1276.27 175.158 1276.27 M175.158 1272.57 Q180.968 1272.57 184.024 1277.18 Q187.103 1281.76 187.103 1290.51 Q187.103 1299.24 184.024 1303.84 Q180.968 1308.43 175.158 1308.43 Q169.348 1308.43 166.269 1303.84 Q163.214 1299.24 163.214 1290.51 Q163.214 1281.76 166.269 1277.18 Q169.348 1272.57 175.158 1272.57 Z" fill="#000000" fill-rule="nonzero" fill-opacity="1"></path><path clip-path="url(#clip000)" d="M100.76 1167.78 Q97.1493 1167.78 95.3206 1171.34 Q93.515 1174.88 93.515 1182.01 Q93.515 1189.12 95.3206 1192.69 Q97.1493 1196.23 100.76 1196.23 Q104.395 1196.23 106.2 1192.69 Q108.029 1189.12 108.029 1182.01 Q108.029 1174.88 106.2 1171.34 Q104.395 1167.78 100.76 1167.78 M100.76 1164.07 Q106.571 1164.07 109.626 1168.68 Q112.705 1173.26 112.705 1182.01 Q112.705 1190.74 109.626 1195.35 Q106.571 1199.93 100.76 1199.93 Q94.9502 1199.93 91.8715 1195.35 Q88.816 1190.74 88.816 1182.01 Q88.816 1173.26 91.8715 1168.68 Q94.9502 1164.07 100.76 1164.07 Z" fill="#000000" fill-rule="nonzero" fill-opacity="1"></path><path clip-path="url(#clip000)" d="M120.922 1193.38 L125.807 1193.38 L125.807 1199.26 L120.922 1199.26 L120.922 1193.38 Z" fill="#000000" fill-rule="nonzero" fill-opacity="1"></path><path clip-path="url(#clip000)" d="M140.019 1195.32 L156.339 1195.32 L156.339 1199.26 L134.394 1199.26 L134.394 1195.32 Q137.056 1192.57 141.64 1187.94 Q146.246 1183.29 147.427 1181.94 Q149.672 1179.42 150.552 1177.69 Q151.455 1175.93 151.455 1174.24 Q151.455 1171.48 149.51 1169.75 Q147.589 1168.01 144.487 1168.01 Q142.288 1168.01 139.834 1168.77 Q137.404 1169.54 134.626 1171.09 L134.626 1166.37 Q137.45 1165.23 139.904 1164.65 Q142.357 1164.07 144.394 1164.07 Q149.765 1164.07 152.959 1166.76 Q156.154 1169.44 156.154 1173.94 Q156.154 1176.07 155.343 1177.99 Q154.556 1179.88 152.45 1182.48 Q151.871 1183.15 148.769 1186.37 Q145.668 1189.56 140.019 1195.32 Z" fill="#000000" fill-rule="nonzero" fill-opacity="1"></path><path clip-path="url(#clip000)" d="M166.2 1164.7 L184.556 1164.7 L184.556 1168.63 L170.482 1168.63 L170.482 1177.11 Q171.501 1176.76 172.519 1176.6 Q173.538 1176.41 174.556 1176.41 Q180.343 1176.41 183.723 1179.58 Q187.103 1182.76 187.103 1188.17 Q187.103 1193.75 183.63 1196.85 Q180.158 1199.93 173.839 1199.93 Q171.663 1199.93 169.394 1199.56 Q167.149 1199.19 164.742 1198.45 L164.742 1193.75 Q166.825 1194.88 169.047 1195.44 Q171.269 1196 173.746 1196 Q177.751 1196 180.089 1193.89 Q182.427 1191.78 182.427 1188.17 Q182.427 1184.56 180.089 1182.45 Q177.751 1180.35 173.746 1180.35 Q171.871 1180.35 169.996 1180.76 Q168.144 1181.18 166.2 1182.06 L166.2 1164.7 Z" fill="#000000" fill-rule="nonzero" fill-opacity="1"></path><path clip-path="url(#clip000)" d="M99.765 1059.28 Q96.1539 1059.28 94.3252 1062.85 Q92.5197 1066.39 92.5197 1073.52 Q92.5197 1080.63 94.3252 1084.19 Q96.1539 1087.73 99.765 1087.73 Q103.399 1087.73 105.205 1084.19 Q107.033 1080.63 107.033 1073.52 Q107.033 1066.39 105.205 1062.85 Q103.399 1059.28 99.765 1059.28 M99.765 1055.58 Q105.575 1055.58 108.631 1060.19 Q111.709 1064.77 111.709 1073.52 Q111.709 1082.25 108.631 1086.85 Q105.575 1091.44 99.765 1091.44 Q93.9549 1091.44 90.8762 1086.85 Q87.8206 1082.25 87.8206 1073.52 Q87.8206 1064.77 90.8762 1060.19 Q93.9549 1055.58 99.765 1055.58 Z" fill="#000000" fill-rule="nonzero" fill-opacity="1"></path><path clip-path="url(#clip000)" d="M119.927 1084.89 L124.811 1084.89 L124.811 1090.76 L119.927 1090.76 L119.927 1084.89 Z" fill="#000000" fill-rule="nonzero" fill-opacity="1"></path><path clip-path="url(#clip000)" d="M135.043 1056.2 L153.399 1056.2 L153.399 1060.14 L139.325 1060.14 L139.325 1068.61 Q140.343 1068.27 141.362 1068.1 Q142.381 1067.92 143.399 1067.92 Q149.186 1067.92 152.566 1071.09 Q155.945 1074.26 155.945 1079.68 Q155.945 1085.26 152.473 1088.36 Q149.001 1091.44 142.681 1091.44 Q140.506 1091.44 138.237 1091.07 Q135.992 1090.7 133.584 1089.95 L133.584 1085.26 Q135.668 1086.39 137.89 1086.95 Q140.112 1087.5 142.589 1087.5 Q146.593 1087.5 148.931 1085.39 Q151.269 1083.29 151.269 1079.68 Q151.269 1076.07 148.931 1073.96 Q146.593 1071.85 142.589 1071.85 Q140.714 1071.85 138.839 1072.27 Q136.987 1072.69 135.043 1073.57 L135.043 1056.2 Z" fill="#000000" fill-rule="nonzero" fill-opacity="1"></path><path clip-path="url(#clip000)" d="M175.158 1059.28 Q171.547 1059.28 169.718 1062.85 Q167.913 1066.39 167.913 1073.52 Q167.913 1080.63 169.718 1084.19 Q171.547 1087.73 175.158 1087.73 Q178.792 1087.73 180.598 1084.19 Q182.427 1080.63 182.427 1073.52 Q182.427 1066.39 180.598 1062.85 Q178.792 1059.28 175.158 1059.28 M175.158 1055.58 Q180.968 1055.58 184.024 1060.19 Q187.103 1064.77 187.103 1073.52 Q187.103 1082.25 184.024 1086.85 Q180.968 1091.44 175.158 1091.44 Q169.348 1091.44 166.269 1086.85 Q163.214 1082.25 163.214 1073.52 Q163.214 1064.77 166.269 1060.19 Q169.348 1055.58 175.158 1055.58 Z" fill="#000000" fill-rule="nonzero" fill-opacity="1"></path><path clip-path="url(#clip000)" d="M100.76 950.789 Q97.1493 950.789 95.3206 954.354 Q93.515 957.895 93.515 965.025 Q93.515 972.131 95.3206 975.696 Q97.1493 979.238 100.76 979.238 Q104.395 979.238 106.2 975.696 Q108.029 972.131 108.029 965.025 Q108.029 957.895 106.2 954.354 Q104.395 950.789 100.76 950.789 M100.76 947.085 Q106.571 947.085 109.626 951.692 Q112.705 956.275 112.705 965.025 Q112.705 973.752 109.626 978.358 Q106.571 982.942 100.76 982.942 Q94.9502 982.942 91.8715 978.358 Q88.816 973.752 88.816 965.025 Q88.816 956.275 91.8715 951.692 Q94.9502 947.085 100.76 947.085 Z" fill="#000000" fill-rule="nonzero" fill-opacity="1"></path><path clip-path="url(#clip000)" d="M120.922 976.391 L125.807 976.391 L125.807 982.27 L120.922 982.27 L120.922 976.391 Z" fill="#000000" fill-rule="nonzero" fill-opacity="1"></path><path clip-path="url(#clip000)" d="M134.811 947.71 L157.033 947.71 L157.033 949.701 L144.487 982.27 L139.603 982.27 L151.408 951.645 L134.811 951.645 L134.811 947.71 Z" fill="#000000" fill-rule="nonzero" fill-opacity="1"></path><path clip-path="url(#clip000)" d="M166.2 947.71 L184.556 947.71 L184.556 951.645 L170.482 951.645 L170.482 960.118 Q171.501 959.77 172.519 959.608 Q173.538 959.423 174.556 959.423 Q180.343 959.423 183.723 962.594 Q187.103 965.766 187.103 971.182 Q187.103 976.761 183.63 979.863 Q180.158 982.942 173.839 982.942 Q171.663 982.942 169.394 982.571 Q167.149 982.201 164.742 981.46 L164.742 976.761 Q166.825 977.895 169.047 978.451 Q171.269 979.006 173.746 979.006 Q177.751 979.006 180.089 976.9 Q182.427 974.793 182.427 971.182 Q182.427 967.571 180.089 965.465 Q177.751 963.358 173.746 963.358 Q171.871 963.358 169.996 963.775 Q168.144 964.192 166.2 965.071 L166.2 947.71 Z" fill="#000000" fill-rule="nonzero" fill-opacity="1"></path><path clip-path="url(#clip000)" d="M452.146 814.081 L452.146 822.061 Q447.488 819.833 443.356 818.739 Q439.224 817.646 435.376 817.646 Q428.692 817.646 425.046 820.238 Q421.44 822.831 421.44 827.611 Q421.44 831.621 423.831 833.687 Q426.261 835.713 432.986 836.969 L437.928 837.981 Q447.083 839.723 451.417 844.139 Q455.792 848.514 455.792 855.886 Q455.792 864.677 449.878 869.214 Q444.004 873.751 432.621 873.751 Q428.327 873.751 423.466 872.779 Q418.645 871.806 413.46 869.902 L413.46 861.477 Q418.443 864.272 423.223 865.689 Q428.003 867.107 432.621 867.107 Q439.629 867.107 443.437 864.353 Q447.245 861.598 447.245 856.494 Q447.245 852.038 444.49 849.526 Q441.776 847.015 435.538 845.759 L430.555 844.787 Q421.4 842.964 417.309 839.075 Q413.217 835.186 413.217 828.259 Q413.217 820.238 418.848 815.62 Q424.519 811.002 434.444 811.002 Q438.697 811.002 443.113 811.772 Q447.528 812.542 452.146 814.081 Z" fill="#000000" fill-rule="nonzero" fill-opacity="1"></path><path clip-path="url(#clip000)" d="M485.809 832.432 Q479.814 832.432 476.33 837.131 Q472.846 841.789 472.846 849.931 Q472.846 858.074 476.29 862.773 Q479.773 867.431 485.809 867.431 Q491.764 867.431 495.248 862.732 Q498.732 858.033 498.732 849.931 Q498.732 841.87 495.248 837.171 Q491.764 832.432 485.809 832.432 M485.809 826.112 Q495.532 826.112 501.081 832.432 Q506.631 838.751 506.631 849.931 Q506.631 861.071 501.081 867.431 Q495.532 873.751 485.809 873.751 Q476.047 873.751 470.497 867.431 Q464.988 861.071 464.988 849.931 Q464.988 838.751 470.497 832.432 Q476.047 826.112 485.809 826.112 Z" fill="#000000" fill-rule="nonzero" fill-opacity="1"></path><path clip-path="url(#clip000)" d="M518.986 809.544 L526.44 809.544 L526.44 872.576 L518.986 872.576 L518.986 809.544 Z" fill="#000000" fill-rule="nonzero" fill-opacity="1"></path><path clip-path="url(#clip000)" d="M541.266 854.671 L541.266 827.206 L548.72 827.206 L548.72 854.387 Q548.72 860.828 551.231 864.069 Q553.743 867.269 558.766 867.269 Q564.802 867.269 568.286 863.421 Q571.81 859.573 571.81 852.929 L571.81 827.206 L579.264 827.206 L579.264 872.576 L571.81 872.576 L571.81 865.608 Q569.096 869.74 565.491 871.766 Q561.926 873.751 557.186 873.751 Q549.368 873.751 545.317 868.89 Q541.266 864.029 541.266 854.671 M560.022 826.112 L560.022 826.112 Z" fill="#000000" fill-rule="nonzero" fill-opacity="1"></path><path clip-path="url(#clip000)" d="M601.989 814.324 L601.989 827.206 L617.342 827.206 L617.342 832.999 L601.989 832.999 L601.989 857.628 Q601.989 863.178 603.488 864.758 Q605.027 866.338 609.686 866.338 L617.342 866.338 L617.342 872.576 L609.686 872.576 Q601.058 872.576 597.776 869.376 Q594.495 866.135 594.495 857.628 L594.495 832.999 L589.026 832.999 L589.026 827.206 L594.495 827.206 L594.495 814.324 L601.989 814.324 Z" fill="#000000" fill-rule="nonzero" fill-opacity="1"></path><path clip-path="url(#clip000)" d="M627.145 827.206 L634.599 827.206 L634.599 872.576 L627.145 872.576 L627.145 827.206 M627.145 809.544 L634.599 809.544 L634.599 818.983 L627.145 818.983 L627.145 809.544 Z" fill="#000000" fill-rule="nonzero" fill-opacity="1"></path><path clip-path="url(#clip000)" d="M667.776 832.432 Q661.781 832.432 658.297 837.131 Q654.813 841.789 654.813 849.931 Q654.813 858.074 658.256 862.773 Q661.74 867.431 667.776 867.431 Q673.731 867.431 677.215 862.732 Q680.698 858.033 680.698 849.931 Q680.698 841.87 677.215 837.171 Q673.731 832.432 667.776 832.432 M667.776 826.112 Q677.498 826.112 683.048 832.432 Q688.598 838.751 688.598 849.931 Q688.598 861.071 683.048 867.431 Q677.498 873.751 667.776 873.751 Q658.013 873.751 652.464 867.431 Q646.954 861.071 646.954 849.931 Q646.954 838.751 652.464 832.432 Q658.013 826.112 667.776 826.112 Z" fill="#000000" fill-rule="nonzero" fill-opacity="1"></path><path clip-path="url(#clip000)" d="M738.667 845.192 L738.667 872.576 L731.213 872.576 L731.213 845.435 Q731.213 838.994 728.702 835.794 Q726.19 832.594 721.167 832.594 Q715.131 832.594 711.647 836.442 Q708.163 840.29 708.163 846.934 L708.163 872.576 L700.669 872.576 L700.669 827.206 L708.163 827.206 L708.163 834.254 Q710.837 830.163 714.442 828.138 Q718.088 826.112 722.828 826.112 Q730.646 826.112 734.656 830.973 Q738.667 835.794 738.667 845.192 Z" fill="#000000" fill-rule="nonzero" fill-opacity="1"></path><path clip-path="url(#clip000)" d="M788.412 818.821 L788.412 865.851 L798.296 865.851 Q810.813 865.851 816.606 860.18 Q822.439 854.509 822.439 842.275 Q822.439 830.123 816.606 824.492 Q810.813 818.821 798.296 818.821 L788.412 818.821 M780.229 812.096 L797.04 812.096 Q814.621 812.096 822.845 819.428 Q831.068 826.72 831.068 842.275 Q831.068 857.912 822.804 865.244 Q814.54 872.576 797.04 872.576 L780.229 872.576 L780.229 812.096 Z" fill="#000000" fill-rule="nonzero" fill-opacity="1"></path><path clip-path="url(#clip000)" d="M864.407 849.769 Q855.373 849.769 851.89 851.835 Q848.406 853.901 848.406 858.884 Q848.406 862.854 850.998 865.203 Q853.631 867.512 858.128 867.512 Q864.326 867.512 868.053 863.137 Q871.82 858.722 871.82 851.43 L871.82 849.769 L864.407 849.769 M879.274 846.691 L879.274 872.576 L871.82 872.576 L871.82 865.689 Q869.268 869.821 865.46 871.806 Q861.652 873.751 856.143 873.751 Q849.175 873.751 845.044 869.862 Q840.952 865.933 840.952 859.37 Q840.952 851.714 846.056 847.825 Q851.201 843.936 861.369 843.936 L871.82 843.936 L871.82 843.207 Q871.82 838.062 868.417 835.267 Q865.055 832.432 858.938 832.432 Q855.049 832.432 851.363 833.363 Q847.677 834.295 844.274 836.158 L844.274 829.272 Q848.365 827.692 852.214 826.922 Q856.062 826.112 859.708 826.112 Q869.551 826.112 874.413 831.216 Q879.274 836.32 879.274 846.691 Z" fill="#000000" fill-rule="nonzero" fill-opacity="1"></path><path clip-path="url(#clip000)" d="M901.999 814.324 L901.999 827.206 L917.352 827.206 L917.352 832.999 L901.999 832.999 L901.999 857.628 Q901.999 863.178 903.498 864.758 Q905.037 866.338 909.696 866.338 L917.352 866.338 L917.352 872.576 L909.696 872.576 Q901.068 872.576 897.786 869.376 Q894.505 866.135 894.505 857.628 L894.505 832.999 L889.036 832.999 L889.036 827.206 L894.505 827.206 L894.505 814.324 L901.999 814.324 Z" fill="#000000" fill-rule="nonzero" fill-opacity="1"></path><path clip-path="url(#clip000)" d="M947.774 849.769 Q938.741 849.769 935.257 851.835 Q931.773 853.901 931.773 858.884 Q931.773 862.854 934.366 865.203 Q936.999 867.512 941.496 867.512 Q947.693 867.512 951.42 863.137 Q955.188 858.722 955.188 851.43 L955.188 849.769 L947.774 849.769 M962.641 846.691 L962.641 872.576 L955.188 872.576 L955.188 865.689 Q952.636 869.821 948.828 871.806 Q945.02 873.751 939.511 873.751 Q932.543 873.751 928.411 869.862 Q924.32 865.933 924.32 859.37 Q924.32 851.714 929.424 847.825 Q934.569 843.936 944.736 843.936 L955.188 843.936 L955.188 843.207 Q955.188 838.062 951.785 835.267 Q948.423 832.432 942.306 832.432 Q938.417 832.432 934.731 833.363 Q931.044 834.295 927.641 836.158 L927.641 829.272 Q931.733 827.692 935.581 826.922 Q939.43 826.112 943.075 826.112 Q952.919 826.112 957.78 831.216 Q962.641 836.32 962.641 846.691 Z" fill="#000000" fill-rule="nonzero" fill-opacity="1"></path><polyline clip-path="url(#clip004)" style="stroke:#009af9; stroke-linecap:round; stroke-linejoin:round; stroke-width:4; stroke-opacity:1; fill:none" points="249.413,1294.69 277.705,1311.03 305.996,1345.52 334.287,1378.86 362.579,1408.24 390.87,1414.35 419.161,1432.34 447.453,1446.79 475.744,1470.51 504.036,1469.39 532.327,1466.69 560.618,1457.99 588.91,1451.12 617.201,1440.29 645.492,1415.77 673.784,1387.59 702.075,1356.46 730.366,1323.85 758.658,1270.84 786.949,1259.34 815.24,1203.69 843.532,1171.27 871.823,1144.92 900.114,1105.82 928.406,1058.91 956.697,1037.13 984.988,992.765 1013.28,977.553 1041.57,965.57 1069.86,944.581 1098.15,939.405 1126.44,949.634 "></polyline>
<path clip-path="url(#clip000)" d="M254.091 1045.92 L399.487 1045.92 L399.487 942.238 L254.091 942.238  Z" fill="#ffffff" fill-rule="evenodd" fill-opacity="1"></path>
<polyline clip-path="url(#clip000)" style="stroke:#000000; stroke-linecap:round; stroke-linejoin:round; stroke-width:4; stroke-opacity:1; fill:none" points="254.091,1045.92 399.487,1045.92 399.487,942.238 254.091,942.238 254.091,1045.92 "></polyline>
<polyline clip-path="url(#clip000)" style="stroke:#009af9; stroke-linecap:round; stroke-linejoin:round; stroke-width:4; stroke-opacity:1; fill:none" points="264.42,994.078 326.397,994.078 "></polyline>
<path clip-path="url(#clip000)" d="M350.569 1013.77 Q348.764 1018.39 347.051 1019.81 Q345.338 1021.22 342.468 1021.22 L339.065 1021.22 L339.065 1017.65 L341.565 1017.65 Q343.324 1017.65 344.296 1016.82 Q345.268 1015.99 346.449 1012.89 L347.213 1010.94 L336.727 985.432 L341.241 985.432 L349.342 1005.71 L357.444 985.432 L361.958 985.432 L350.569 1013.77 Z" fill="#000000" fill-rule="nonzero" fill-opacity="1"></path><path clip-path="url(#clip000)" d="M369.25 1007.42 L376.889 1007.42 L376.889 981.057 L368.578 982.724 L368.578 978.465 L376.842 976.798 L381.518 976.798 L381.518 1007.42 L389.157 1007.42 L389.157 1011.36 L369.25 1011.36 L369.25 1007.42 Z" fill="#000000" fill-rule="nonzero" fill-opacity="1"></path></svg>